<svg width="311" height="181" viewBox="0 0 311 181" fill="none" xmlns="http://www.w3.org/2000/svg">
<g clip-path="url(#clip0_2012_2)">
<g opacity="0.1">
<path d="M228.657 178.33C231.977 178.33 234.668 174.801 234.668 170.446C234.668 166.092 231.977 162.563 228.657 162.563C225.338 162.563 222.647 166.092 222.647 170.446C222.647 174.801 225.338 178.33 228.657 178.33Z" fill="#3F3D56"/>
<path d="M233.413 136.719C234.255 135.254 234.692 133.591 234.678 131.9C234.678 127.537 231.987 124.016 228.668 124.016C225.348 124.016 222.66 127.545 222.66 131.9C222.643 133.59 223.076 135.253 223.914 136.719C223.092 138.191 222.66 139.849 222.66 141.536C222.66 143.223 223.092 144.882 223.914 146.353C223.092 147.826 222.66 149.485 222.66 151.172C222.66 152.859 223.092 154.518 223.914 155.991C223.076 157.456 222.643 159.12 222.66 160.809C222.66 165.172 225.351 168.693 228.668 168.693C231.985 168.693 234.678 165.164 234.678 160.809C234.695 159.12 234.262 157.456 233.424 155.991C234.247 154.518 234.678 152.859 234.678 151.172C234.678 149.485 234.247 147.826 233.424 146.353C234.247 144.882 234.678 143.223 234.678 141.536C234.678 139.849 234.247 138.191 233.424 136.719H233.413Z" fill="#3F3D56"/>
<path d="M228.657 130.149C231.977 130.149 234.668 126.62 234.668 122.266C234.668 117.912 231.977 114.382 228.657 114.382C225.338 114.382 222.647 117.912 222.647 122.266C222.647 126.62 225.338 130.149 228.657 130.149Z" fill="#3F3D56"/>
<path d="M228.657 120.512C231.977 120.512 234.668 116.982 234.668 112.628C234.668 108.274 231.977 104.745 228.657 104.745C225.338 104.745 222.647 108.274 222.647 112.628C222.647 116.982 225.338 120.512 228.657 120.512Z" fill="#3F3D56"/>
<path d="M251.154 46.6837C251.974 45.6356 252.721 44.5322 253.39 43.3813L237.609 40.7825L254.688 40.9106C256.325 37.3379 257.217 33.4682 257.311 29.538C257.404 25.6077 256.697 21.6997 255.232 18.0528L232.317 29.959L253.453 14.3986C251.472 10.9727 248.809 7.99197 245.629 5.64211C242.449 3.29225 238.821 1.62351 234.97 0.739775C231.119 -0.143964 227.128 -0.223787 223.244 0.505274C219.361 1.23434 215.669 2.75668 212.399 4.97753C209.128 7.19839 206.348 10.0702 204.233 13.4143C202.117 16.7583 200.711 20.503 200.102 24.4152C199.493 28.3274 199.694 32.3234 200.692 36.1545C201.69 39.9856 203.465 43.5697 205.905 46.6837C204.626 48.3141 203.526 50.0778 202.623 51.9441L223.12 62.6177L201.266 55.2547C199.728 59.7995 199.346 64.657 200.153 69.3873C200.961 74.1175 202.933 78.5712 205.891 82.3449C202.552 86.6002 200.474 91.7116 199.896 97.0945C199.318 102.477 200.264 107.915 202.624 112.785C204.984 117.655 208.663 121.761 213.242 124.633C217.821 127.506 223.114 129.03 228.516 129.03C233.917 129.03 239.21 127.506 243.789 124.633C248.368 121.761 252.047 117.655 254.408 112.785C256.768 107.915 257.713 102.477 257.135 97.0945C256.557 91.7116 254.48 86.6002 251.14 82.3449C255.131 77.26 257.3 70.9783 257.3 64.5088C257.3 58.0394 255.131 51.7577 251.14 46.6728L251.154 46.6837Z" fill="black"/>
<path opacity="0.1" d="M199.745 64.5211C199.735 70.9918 201.905 77.2762 205.905 82.3558C202.565 86.6111 200.488 91.7225 199.91 97.1054C199.332 102.488 200.277 107.926 202.637 112.795C204.997 117.665 208.677 121.771 213.256 124.644C217.834 127.517 223.127 129.04 228.529 129.04C233.931 129.04 239.224 127.517 243.803 124.644C248.381 121.771 252.061 117.665 254.421 112.795C256.781 107.926 257.726 102.488 257.149 97.1054C256.571 91.7225 254.493 86.6111 251.154 82.3558C255.012 77.4472 199.745 61.2814 199.745 64.5211Z" fill="black"/>
</g>
<g opacity="0.1">
<path d="M60.0804 169.898C62.1 169.898 63.7373 167.75 63.7373 165.099C63.7373 162.448 62.1 160.299 60.0804 160.299C58.0607 160.299 56.4235 162.448 56.4235 165.099C56.4235 167.75 58.0607 169.898 60.0804 169.898Z" fill="#3F3D56"/>
<path d="M62.9891 144.567C63.4995 143.674 63.7634 142.662 63.7536 141.633C63.7536 138.982 62.1211 136.833 60.094 136.833C58.0669 136.833 56.4371 138.982 56.4371 141.633C56.4265 142.661 56.6894 143.674 57.199 144.567C56.6995 145.464 56.4373 146.473 56.4373 147.5C56.4373 148.527 56.6995 149.536 57.199 150.433C56.6995 151.329 56.4373 152.339 56.4373 153.366C56.4373 154.393 56.6995 155.402 57.199 156.299C56.689 157.19 56.426 158.203 56.4371 159.23C56.4371 161.884 58.0696 164.033 60.094 164.033C62.1184 164.033 63.7536 161.884 63.7536 159.23C63.7639 158.202 63.4999 157.19 62.9891 156.299C63.49 155.403 63.7531 154.393 63.7531 153.366C63.7531 152.339 63.49 151.329 62.9891 150.433C63.49 149.537 63.7531 148.527 63.7531 147.5C63.7531 146.473 63.49 145.463 62.9891 144.567Z" fill="#3F3D56"/>
<path d="M60.0804 140.567C62.1 140.567 63.7373 138.418 63.7373 135.767C63.7373 133.116 62.1 130.968 60.0804 130.968C58.0607 130.968 56.4235 133.116 56.4235 135.767C56.4235 138.418 58.0607 140.567 60.0804 140.567Z" fill="#3F3D56"/>
<path d="M60.0804 134.701C62.1 134.701 63.7373 132.552 63.7373 129.901C63.7373 127.251 62.1 125.102 60.0804 125.102C58.0607 125.102 56.4235 127.251 56.4235 129.901C56.4235 132.552 58.0607 134.701 60.0804 134.701Z" fill="#3F3D56"/>
<path d="M46.3915 89.7542C45.8921 89.1166 45.4375 88.4451 45.031 87.7444L54.644 86.1627L44.2474 86.2418C43.2521 84.0679 42.7091 81.7136 42.6515 79.3224C42.594 76.9313 43.0231 74.5535 43.9127 72.334L57.852 79.5906L44.9902 70.1006C46.1966 68.0164 47.8179 66.2032 49.7534 64.774C51.689 63.3448 53.8972 62.33 56.2408 61.7929C58.5844 61.2557 61.0133 61.2076 63.3762 61.6516C65.7392 62.0956 67.9857 63.0222 69.976 64.3738C71.9663 65.7253 73.6578 67.4729 74.9453 69.5077C76.2328 71.5426 77.0887 73.8212 77.4599 76.2019C77.831 78.5825 77.7093 81.0142 77.1025 83.3457C76.4957 85.6772 75.4166 87.8586 73.9325 89.7542C74.7111 90.7454 75.3807 91.8178 75.9297 92.953L63.4516 99.4541L76.7568 94.9791C77.6913 97.7468 77.9224 100.704 77.4292 103.584C76.9361 106.464 75.7343 109.175 73.9325 111.472C75.9654 114.063 77.2299 117.174 77.5815 120.451C77.9331 123.728 77.3576 127.038 75.9209 130.002C74.4842 132.967 72.2441 135.466 69.4568 137.215C66.6696 138.963 63.4476 139.891 60.1593 139.891C56.871 139.891 53.649 138.963 50.8617 137.215C48.0745 135.466 45.8344 132.967 44.3977 130.002C42.9609 127.038 42.3855 123.728 42.7371 120.451C43.0887 117.174 44.3532 114.063 46.386 111.472C43.9569 108.376 42.6364 104.552 42.6364 100.613C42.6364 96.6745 43.9569 92.8502 46.386 89.7542H46.3915Z" fill="black"/>
<path opacity="0.1" d="M77.6819 100.613C77.6877 104.553 76.3666 108.379 73.9325 111.472C75.9653 114.063 77.2298 117.174 77.5815 120.451C77.9331 123.728 77.3576 127.038 75.9209 130.002C74.4841 132.967 72.2441 135.466 69.4568 137.215C66.6696 138.963 63.4476 139.891 60.1593 139.891C56.8709 139.891 53.649 138.963 50.8617 137.215C48.0745 135.466 45.8344 132.967 44.3977 130.002C42.9609 127.038 42.3855 123.728 42.7371 120.451C43.0887 117.174 44.3532 114.063 46.386 111.472C44.0379 108.497 77.6819 98.6415 77.6819 100.613Z" fill="black"/>
</g>
<g opacity="0.1">
<path d="M142.524 174.076C145.227 174.076 147.419 171.201 147.419 167.654C147.419 164.107 145.227 161.232 142.524 161.232C139.821 161.232 137.629 164.107 137.629 167.654C137.629 171.201 139.821 174.076 142.524 174.076Z" fill="#3F3D56"/>
<path d="M146.399 140.177C147.081 138.982 147.433 137.626 147.419 136.25C147.419 132.705 145.242 129.828 142.521 129.828C139.8 129.828 137.624 132.705 137.624 136.25C137.609 137.627 137.962 138.982 138.647 140.177C137.976 141.376 137.624 142.727 137.624 144.102C137.624 145.477 137.976 146.829 138.647 148.028C137.976 149.226 137.624 150.578 137.624 151.952C137.624 153.326 137.976 154.677 138.647 155.876C137.962 157.07 137.609 158.426 137.624 159.803C137.624 163.348 139.817 166.225 142.521 166.225C145.226 166.225 147.419 163.348 147.419 159.803C147.433 158.426 147.081 157.071 146.399 155.876C147.068 154.677 147.419 153.326 147.419 151.952C147.419 150.578 147.068 149.227 146.399 148.028C147.068 146.828 147.419 145.477 147.419 144.102C147.419 142.728 147.068 141.376 146.399 140.177Z" fill="#3F3D56"/>
<path d="M142.524 134.823C145.227 134.823 147.419 131.948 147.419 128.401C147.419 124.855 145.227 121.979 142.524 121.979C139.821 121.979 137.629 124.855 137.629 128.401C137.629 131.948 139.821 134.823 142.524 134.823Z" fill="#3F3D56"/>
<path d="M142.524 126.972C145.227 126.972 147.419 124.097 147.419 120.55C147.419 117.003 145.227 114.128 142.524 114.128C139.821 114.128 137.629 117.003 137.629 120.55C137.629 124.097 139.821 126.972 142.524 126.972Z" fill="#3F3D56"/>
<path d="M124.21 66.8282C123.54 65.9753 122.931 65.0768 122.387 64.1393L135.248 62.0232L121.339 62.1268C120.004 59.2165 119.276 56.0639 119.199 52.8618C119.122 49.6597 119.697 46.4756 120.89 43.504L139.555 53.2067L122.34 40.5261C123.949 37.7248 126.116 35.2861 128.707 33.3623C131.299 31.4385 134.258 30.0709 137.4 29.3451C140.543 28.6193 143.801 28.5508 146.971 29.144C150.141 29.7371 153.154 30.9791 155.824 32.7923C158.493 34.6056 160.761 36.9511 162.485 39.6824C164.209 42.4136 165.353 45.4719 165.844 48.6661C166.336 51.8603 166.165 55.1218 165.342 58.2468C164.519 61.3718 163.062 64.2931 161.062 66.8282C162.103 68.1569 162.999 69.5941 163.733 71.115L147.038 79.8087L164.841 73.8093C166.091 77.5129 166.401 81.4705 165.741 85.3241C165.081 89.1776 163.473 92.8054 161.062 95.879C163.782 99.3457 165.474 103.509 165.944 107.894C166.415 112.279 165.645 116.709 163.722 120.676C161.8 124.643 158.802 127.988 155.072 130.328C151.342 132.668 147.031 133.909 142.63 133.909C138.23 133.909 133.918 132.668 130.188 130.328C126.458 127.988 123.461 124.643 121.538 120.676C119.615 116.709 118.845 112.279 119.316 107.894C119.786 103.509 121.478 99.3457 124.199 95.879C120.948 91.736 119.181 86.6185 119.181 81.3482C119.181 76.0778 120.948 70.9603 124.199 66.8173L124.21 66.8282Z" fill="black"/>
<path opacity="0.1" d="M166.079 81.3604C166.087 86.6317 164.319 91.7514 161.062 95.8899C163.782 99.3566 165.474 103.52 165.944 107.905C166.415 112.29 165.645 116.72 163.722 120.687C161.8 124.654 158.802 127.998 155.072 130.339C151.342 132.679 147.031 133.92 142.63 133.92C138.23 133.92 133.918 132.679 130.188 130.339C126.458 127.998 123.461 124.654 121.538 120.687C119.615 116.72 118.845 112.29 119.316 107.905C119.786 103.52 121.478 99.3566 124.199 95.8899C121.056 91.8921 166.079 78.7207 166.079 81.3604Z" fill="black"/>
</g>
<path d="M311 173.498C311 175.371 297.336 177.084 274.744 178.407C270.635 178.644 266.233 178.87 261.564 179.083C257.53 179.265 253.301 179.437 248.879 179.598C244.594 179.751 240.146 179.893 235.533 180.024C220.965 180.441 204.86 180.741 187.751 180.891C183.599 180.929 179.391 180.958 175.129 180.978C170.688 180.998 166.197 181.007 161.655 181.005C79.173 181.005 12.3121 177.649 12.3121 173.506C12.3121 169.364 79.173 166.007 161.655 166.007C197.165 166.007 229.775 166.631 255.406 167.668L258.209 167.782H258.225C290.512 169.154 311 171.218 311 173.498Z" fill="#3F3D56"/>
<path opacity="0.15" d="M311 173.498C311 175.371 297.336 177.084 274.744 178.407C270.635 178.644 266.233 178.87 261.564 179.083C257.53 179.265 253.301 179.437 248.879 179.598C244.594 179.751 240.146 179.893 235.533 180.024C220.965 180.441 204.86 180.741 187.751 180.891C183.599 180.929 179.391 180.958 175.129 180.978C170.688 180.998 166.197 181.007 161.655 181.005C79.173 181.005 12.3121 177.649 12.3121 173.506C12.3121 169.364 79.173 166.007 161.655 166.007C197.165 166.007 229.775 166.631 255.406 167.668L258.209 167.782H258.225C290.512 169.154 311 171.218 311 173.498Z" fill="black"/>
<path d="M298.688 172.178C298.688 173.743 285.023 175.178 262.432 176.269C258.326 176.468 253.921 176.656 249.254 176.833C245.218 176.986 240.99 177.129 236.569 177.264C232.285 177.391 227.836 177.51 223.223 177.621C208.653 177.97 192.548 178.221 175.439 178.347C171.29 178.378 167.083 178.401 162.817 178.418C158.376 178.434 153.886 178.442 149.345 178.442C66.8636 178.442 0 175.636 0 172.17C0 168.704 66.8636 165.898 149.345 165.898C184.853 165.898 217.463 166.419 243.094 167.286L245.897 167.381H245.916C278.213 168.546 298.688 170.261 298.688 172.178Z" fill="#3F3D56"/>
<path d="M38.5717 115.203L34.8223 103.697L124.612 102.713L128.291 114.104L38.5717 115.203Z" fill="#3F3D56"/>
<path opacity="0.15" d="M38.5717 115.203L34.8223 103.697L124.612 102.713L128.291 114.104L38.5717 115.203Z" fill="black"/>
<path d="M32.5856 115.203L28.8362 103.697L118.626 102.713L122.305 114.104L32.5856 115.203Z" fill="#3F3D56"/>
<path d="M185.868 97.5234C176.584 97.5234 169.268 93.8301 163.918 86.4436C158.569 79.057 155.895 70.1088 155.895 59.5989C155.895 49.0181 158.481 40.088 163.655 32.8087C168.828 25.5294 176.125 21.8934 185.547 21.9006C195.538 21.9006 203.066 25.7357 208.131 33.4059C213.195 41.0761 215.728 49.9534 215.73 60.0379C215.73 70.0497 213.109 78.8016 207.867 86.2936C202.624 93.7856 195.291 97.5289 185.868 97.5234ZM186.14 89.2142C192.248 89.2142 196.812 86.5463 199.835 81.2104C202.857 75.8746 204.368 69.1479 204.368 61.0305C204.368 51.995 202.821 44.5966 199.728 38.8354C196.636 33.0741 191.892 30.1926 185.498 30.1908C173.345 30.1908 167.268 39.8662 167.268 59.2171C167.268 79.217 173.557 89.216 186.135 89.2142H186.14ZM189.198 168.786H175.771L263.678 23.3814H276.853L189.198 168.786ZM266.968 170.277C257.544 170.277 250.198 166.55 244.928 159.097C239.659 151.643 237.013 142.694 236.991 132.249C236.991 121.739 239.56 112.845 244.697 105.565C249.834 98.2861 257.15 94.6501 266.644 94.6573C276.564 94.6573 284.039 98.4924 289.069 106.163C294.1 113.833 296.615 122.709 296.617 132.792C296.617 142.738 294.013 151.474 288.806 158.998C283.598 166.523 276.317 170.283 266.962 170.277H266.968ZM267.125 161.755C273.204 161.755 277.744 159.133 280.746 153.888C283.748 148.643 285.249 141.944 285.249 133.79C285.249 125.064 283.73 117.745 280.692 111.835C277.653 105.924 272.92 102.965 266.491 102.956C254.267 102.956 248.155 112.631 248.155 131.982C248.152 151.833 254.473 161.757 267.12 161.755H267.125Z" fill="#3F3D56"/>
<path d="M185.868 97.5234C176.584 97.5234 169.268 93.8301 163.918 86.4436C158.569 79.057 155.895 70.1088 155.895 59.5989C155.895 49.0181 158.481 40.088 163.655 32.8087C168.828 25.5294 176.125 21.8934 185.547 21.9006C195.538 21.9006 203.066 25.7357 208.131 33.4059C213.195 41.0761 215.728 49.9534 215.73 60.0379C215.73 70.0497 213.109 78.8016 207.867 86.2936C202.624 93.7856 195.291 97.5289 185.868 97.5234ZM186.14 89.2142C192.248 89.2142 196.812 86.5463 199.835 81.2104C202.857 75.8746 204.368 69.1479 204.368 61.0305C204.368 51.995 202.821 44.5966 199.728 38.8354C196.636 33.0741 191.892 30.1926 185.498 30.1908C173.345 30.1908 167.268 39.8662 167.268 59.2171C167.268 79.217 173.557 89.216 186.135 89.2142H186.14ZM189.198 168.786H175.771L263.678 23.3814H276.853L189.198 168.786ZM266.968 170.277C257.544 170.277 250.198 166.55 244.928 159.097C239.659 151.643 237.013 142.694 236.991 132.249C236.991 121.739 239.56 112.845 244.697 105.565C249.834 98.2861 257.15 94.6501 266.644 94.6573C276.564 94.6573 284.039 98.4924 289.069 106.163C294.1 113.833 296.615 122.709 296.617 132.792C296.617 142.738 294.013 151.474 288.806 158.998C283.598 166.523 276.317 170.283 266.962 170.277H266.968ZM267.125 161.755C273.204 161.755 277.744 159.133 280.746 153.888C283.748 148.643 285.249 141.944 285.249 133.79C285.249 125.064 283.73 117.745 280.692 111.835C277.653 105.924 272.92 102.965 266.491 102.956C254.267 102.956 248.155 112.631 248.155 131.982C248.152 151.833 254.473 161.757 267.12 161.755H267.125Z" fill="#3F3D56"/>
<path opacity="0.15" d="M185.868 97.5234C176.584 97.5234 169.268 93.8301 163.918 86.4436C158.569 79.057 155.895 70.1088 155.895 59.5989C155.895 49.0181 158.481 40.088 163.655 32.8087C168.828 25.5294 176.125 21.8934 185.547 21.9006C195.538 21.9006 203.066 25.7357 208.131 33.4059C213.195 41.0761 215.728 49.9534 215.73 60.0379C215.73 70.0497 213.109 78.8016 207.867 86.2936C202.624 93.7856 195.291 97.5289 185.868 97.5234ZM186.14 89.2142C192.248 89.2142 196.812 86.5463 199.835 81.2104C202.857 75.8746 204.368 69.1479 204.368 61.0305C204.368 51.995 202.821 44.5966 199.728 38.8354C196.636 33.0741 191.892 30.1926 185.498 30.1908C173.345 30.1908 167.268 39.8662 167.268 59.2171C167.268 79.217 173.557 89.216 186.135 89.2142H186.14ZM189.198 168.786H175.771L263.678 23.3814H276.853L189.198 168.786ZM266.968 170.277C257.544 170.277 250.198 166.55 244.928 159.097C239.659 151.643 237.013 142.694 236.991 132.249C236.991 121.739 239.56 112.845 244.697 105.565C249.834 98.2861 257.15 94.6501 266.644 94.6573C276.564 94.6573 284.039 98.4924 289.069 106.163C294.1 113.833 296.615 122.709 296.617 132.792C296.617 142.738 294.013 151.474 288.806 158.998C283.598 166.523 276.317 170.283 266.962 170.277H266.968ZM267.125 161.755C273.204 161.755 277.744 159.133 280.746 153.888C283.748 148.643 285.249 141.944 285.249 133.79C285.249 125.064 283.73 117.745 280.692 111.835C277.653 105.924 272.92 102.965 266.491 102.956C254.267 102.956 248.155 112.631 248.155 131.982C248.152 151.833 254.473 161.757 267.12 161.755H267.125Z" fill="black"/>
<path d="M177.433 97.5234C168.15 97.5234 160.833 93.8301 155.484 86.4436C150.134 79.057 147.46 70.1088 147.46 59.5989C147.46 49.0181 150.046 40.088 155.22 32.8087C160.393 25.5294 167.691 21.8934 177.112 21.9006C187.103 21.9006 194.631 25.7357 199.696 33.4059C204.76 41.0761 207.293 49.9534 207.295 60.0379C207.295 70.0497 204.674 78.8016 199.432 86.2936C194.19 93.7856 186.857 97.5289 177.433 97.5234ZM177.705 89.2142C183.813 89.2142 188.378 86.5463 191.4 81.2104C194.422 75.8746 195.933 69.1479 195.933 61.0305C195.933 51.995 194.386 44.5966 191.294 38.8354C188.201 33.0741 183.457 30.1926 177.063 30.1908C164.91 30.1908 158.833 39.8662 158.833 59.2171C158.833 79.217 165.122 89.216 177.7 89.2142H177.705ZM180.764 168.786H167.336L255.243 23.3814H268.418L180.764 168.786ZM258.533 170.277C249.109 170.277 241.763 166.55 236.493 159.097C231.224 151.643 228.578 142.694 228.556 132.249C228.556 121.739 231.125 112.845 236.262 105.565C241.399 98.2861 248.715 94.6501 258.209 94.6573C268.129 94.6573 275.605 98.4924 280.635 106.163C285.665 113.833 288.181 122.709 288.182 132.792C288.182 142.738 285.579 151.474 280.371 158.998C275.163 166.523 267.882 170.283 258.527 170.277H258.533ZM258.691 161.755C264.769 161.755 269.309 159.133 272.311 153.888C275.313 148.643 276.814 141.944 276.814 133.79C276.814 125.064 275.295 117.745 272.257 111.835C269.219 105.924 264.483 102.965 258.051 102.956C245.827 102.956 239.715 112.631 239.715 131.982C239.715 151.833 246.038 161.757 258.685 161.755H258.691Z" fill="#3F3D56"/>
<path d="M206.808 172.434C207.929 170.351 206.656 167.799 205.192 165.939C203.728 164.079 201.943 162.148 201.981 159.778C202.036 156.378 205.638 154.368 208.511 152.563C210.648 151.225 212.619 149.637 214.383 147.834C215.122 147.139 215.732 146.32 216.187 145.412C216.783 144.082 216.764 142.568 216.731 141.112C216.606 136.254 216.367 131.404 216.013 126.561" stroke="#3F3D56" stroke-width="4" stroke-miterlimit="10"/>
<path d="M221.488 126.293C221.447 125.405 221.183 124.541 220.721 123.781C220.26 123.022 219.615 122.391 218.846 121.947L217.659 124.297L217.695 121.45C217.129 121.285 216.539 121.214 215.951 121.24C214.904 121.289 213.896 121.648 213.054 122.272C212.211 122.895 211.572 123.755 211.217 124.742C210.862 125.729 210.807 126.8 211.059 127.819C211.311 128.837 211.859 129.758 212.634 130.465C213.408 131.172 214.374 131.632 215.409 131.789C216.445 131.945 217.503 131.79 218.451 131.344C219.399 130.897 220.193 130.179 220.734 129.28C221.274 128.381 221.536 127.342 221.488 126.293Z" fill="white"/>
<path d="M212.046 162.219C211.49 163.301 210.581 164.159 209.469 164.648C208.357 165.137 207.112 165.229 205.941 164.907C204.77 164.585 203.745 163.87 203.038 162.881C202.331 161.892 201.985 160.689 202.058 159.474C202.13 158.26 202.618 157.107 203.438 156.21C204.257 155.312 205.36 154.725 206.561 154.546C207.762 154.366 208.988 154.607 210.033 155.226C211.078 155.845 211.879 156.805 212.302 157.946L208.993 160.643L212.639 159.792C212.638 160.637 212.434 161.469 212.046 162.219Z" fill="white"/>
<path d="M209.431 151.908C208.737 151.941 208.042 151.836 207.388 151.6C206.734 151.363 206.133 151 205.618 150.531C205.104 150.062 204.687 149.496 204.391 148.865C204.096 148.234 203.927 147.551 203.894 146.855C203.853 146.024 204.01 145.195 204.351 144.436C204.668 143.727 205.135 143.096 205.721 142.588C206.306 142.08 206.996 141.706 207.742 141.494L207.712 143.675L208.912 141.297C210.314 141.232 211.686 141.727 212.724 142.675C213.763 143.622 214.383 144.945 214.449 146.351C214.514 147.757 214.02 149.131 213.074 150.172C212.129 151.213 210.81 151.834 209.407 151.9L209.431 151.908Z" fill="white"/>
<path d="M222.285 143.337C221.582 143.384 220.877 143.29 220.211 143.06C219.545 142.831 218.931 142.47 218.405 142C217.88 141.53 217.453 140.959 217.151 140.322C216.848 139.684 216.675 138.993 216.642 138.288C216.609 137.582 216.717 136.878 216.959 136.215C217.201 135.552 217.572 134.944 218.052 134.426C218.531 133.909 219.109 133.493 219.75 133.202C220.392 132.911 221.085 132.751 221.79 132.732C222.779 132.684 223.762 132.917 224.625 133.405L223.689 135.974L225.615 134.123C226.649 135.067 227.267 136.384 227.332 137.785C227.356 138.276 227.31 138.768 227.196 139.247C226.933 140.371 226.311 141.379 225.424 142.117C224.538 142.855 223.436 143.284 222.285 143.337Z" fill="white"/>
<path opacity="0.1" d="M220.775 127.709C219.553 127.842 218.367 128.224 217.14 128.3C215.912 128.377 214.566 128.082 213.79 127.125C213.371 126.612 213.164 125.961 212.811 125.399C212.477 124.876 212.018 124.444 211.477 124.142C211.137 124.814 210.944 125.552 210.911 126.305C210.878 127.058 211.005 127.81 211.285 128.51C211.564 129.21 211.989 129.843 212.532 130.365C213.074 130.888 213.721 131.288 214.43 131.541C215.139 131.793 215.894 131.891 216.643 131.828C217.393 131.765 218.121 131.542 218.778 131.175C219.435 130.808 220.007 130.305 220.455 129.699C220.903 129.094 221.217 128.399 221.376 127.662C221.175 127.673 220.976 127.687 220.775 127.709Z" fill="black"/>
<path opacity="0.1" d="M222.285 143.337C221.372 143.379 220.465 143.184 219.65 142.77C218.835 142.357 218.14 141.739 217.634 140.978C217.127 140.216 216.825 139.336 216.758 138.423C216.69 137.51 216.859 136.595 217.248 135.767C217.668 136.052 218.029 136.415 218.312 136.836C218.69 137.406 218.919 138.066 219.363 138.589C220.179 139.563 221.596 139.879 222.872 139.822C224.149 139.765 225.384 139.399 226.657 139.277C226.834 139.26 227.014 139.249 227.201 139.244C226.938 140.37 226.316 141.379 225.428 142.117C224.541 142.856 223.437 143.285 222.285 143.337Z" fill="black"/>
<path opacity="0.1" d="M209.431 151.908C208.737 151.941 208.042 151.836 207.388 151.6C206.734 151.363 206.133 151 205.618 150.531C205.104 150.062 204.687 149.496 204.391 148.865C204.096 148.234 203.927 147.551 203.894 146.855C203.853 146.024 204.01 145.195 204.351 144.436C204.788 144.728 205.167 145.098 205.47 145.527C205.88 146.108 206.139 146.779 206.62 147.316C207.513 148.311 209.015 148.663 210.367 148.63C211.719 148.598 212.941 148.281 214.244 148.18C213.921 149.222 213.286 150.139 212.425 150.806C211.564 151.473 210.518 151.858 209.431 151.908Z" fill="black"/>
<path opacity="0.1" d="M212.046 162.219C211.43 163.433 210.372 164.362 209.091 164.816C207.81 165.27 206.404 165.212 205.164 164.656C203.924 164.1 202.944 163.087 202.429 161.828C201.913 160.568 201.9 159.158 202.392 157.889C202.828 158.176 203.22 158.526 203.554 158.928C204.057 159.544 204.389 160.242 204.972 160.815C206.06 161.878 207.801 162.317 209.358 162.358C210.256 162.365 211.153 162.319 212.046 162.219Z" fill="black"/>
<path d="M288.708 172.162C289.829 170.078 288.555 167.526 287.091 165.666C285.628 163.806 283.843 161.875 283.881 159.506C283.935 156.105 287.538 154.095 290.411 152.29C292.548 150.952 294.519 149.365 296.283 147.561C297.021 146.867 297.632 146.047 298.087 145.14C298.682 143.809 298.663 142.296 298.631 140.839C298.506 135.982 298.266 131.131 297.912 126.288" stroke="#3F3D56" stroke-width="4" stroke-miterlimit="10"/>
<path d="M303.387 126.021C303.346 125.132 303.082 124.268 302.621 123.508C302.159 122.749 301.514 122.118 300.745 121.674L299.559 124.025L299.594 121.178C299.028 121.012 298.439 120.941 297.85 120.968C296.804 121.017 295.796 121.376 294.953 121.999C294.111 122.622 293.471 123.482 293.116 124.469C292.761 125.457 292.706 126.527 292.959 127.546C293.211 128.565 293.759 129.486 294.533 130.192C295.307 130.899 296.273 131.36 297.309 131.516C298.344 131.672 299.403 131.518 300.35 131.071C301.298 130.625 302.092 129.906 302.633 129.007C303.173 128.108 303.436 127.069 303.387 126.021Z" fill="white"/>
<path d="M293.945 161.946C293.39 163.028 292.48 163.886 291.368 164.375C290.257 164.865 289.011 164.956 287.84 164.634C286.67 164.313 285.645 163.597 284.938 162.608C284.231 161.619 283.884 160.416 283.957 159.202C284.03 157.987 284.517 156.834 285.337 155.937C286.157 155.04 287.26 154.452 288.461 154.273C289.661 154.094 290.887 154.334 291.932 154.953C292.978 155.572 293.779 156.532 294.201 157.673L290.892 160.37L294.538 159.519C294.537 160.364 294.334 161.196 293.945 161.946Z" fill="white"/>
<path d="M291.331 151.636C290.636 151.668 289.942 151.563 289.288 151.327C288.633 151.091 288.032 150.728 287.518 150.258C287.004 149.789 286.587 149.223 286.291 148.592C285.995 147.962 285.826 147.279 285.794 146.582C285.752 145.751 285.909 144.922 286.251 144.164C286.567 143.455 287.034 142.824 287.62 142.315C288.206 141.807 288.896 141.434 289.641 141.221L289.611 143.403L290.811 141.025H290.825C291.519 140.992 292.213 141.097 292.868 141.333C293.522 141.57 294.123 141.933 294.637 142.402C295.151 142.871 295.568 143.437 295.864 144.068C296.16 144.699 296.329 145.382 296.362 146.078C296.394 146.774 296.289 147.47 296.054 148.125C295.818 148.781 295.456 149.384 294.987 149.899C294.519 150.414 293.954 150.832 293.325 151.129C292.696 151.425 292.014 151.595 291.32 151.627L291.331 151.636Z" fill="white"/>
<path d="M304.184 143.065C303.481 143.111 302.776 143.017 302.11 142.788C301.444 142.558 300.83 142.197 300.305 141.727C299.779 141.257 299.353 140.687 299.05 140.049C298.747 139.412 298.574 138.72 298.541 138.015C298.508 137.31 298.616 136.605 298.858 135.942C299.1 135.279 299.472 134.671 299.951 134.154C300.431 133.636 301.008 133.22 301.65 132.929C302.292 132.638 302.985 132.478 303.689 132.459C304.679 132.411 305.662 132.644 306.524 133.133L305.588 135.702L307.515 133.85C308.548 134.794 309.166 136.112 309.231 137.512C309.256 138.004 309.21 138.496 309.095 138.974C308.832 140.098 308.21 141.106 307.324 141.844C306.438 142.582 305.335 143.011 304.184 143.065Z" fill="white"/>
<path opacity="0.1" d="M302.674 127.436C301.452 127.57 300.266 127.951 299.039 128.028C297.812 128.104 296.465 127.81 295.689 126.852C295.27 126.34 295.064 125.688 294.71 125.126C294.376 124.603 293.918 124.171 293.377 123.869C293.037 124.542 292.844 125.279 292.811 126.033C292.777 126.786 292.905 127.537 293.184 128.238C293.464 128.938 293.889 129.57 294.431 130.092C294.973 130.615 295.621 131.016 296.33 131.268C297.039 131.52 297.793 131.618 298.543 131.555C299.292 131.492 300.02 131.269 300.677 130.903C301.334 130.536 301.906 130.032 302.354 129.427C302.802 128.821 303.116 128.127 303.275 127.39C303.074 127.401 302.875 127.414 302.674 127.436Z" fill="black"/>
<path opacity="0.1" d="M304.184 143.065C303.272 143.106 302.364 142.911 301.549 142.497C300.734 142.084 300.04 141.467 299.533 140.705C299.026 139.943 298.725 139.063 298.657 138.15C298.59 137.237 298.759 136.323 299.148 135.494C299.567 135.779 299.928 136.142 300.212 136.563C300.59 137.133 300.818 137.793 301.262 138.317C302.078 139.29 303.496 139.607 304.772 139.549C306.048 139.492 307.283 139.127 308.557 139.004C308.734 138.988 308.913 138.977 309.101 138.971C308.838 140.097 308.215 141.106 307.328 141.845C306.44 142.584 305.337 143.012 304.184 143.065Z" fill="black"/>
<path opacity="0.1" d="M291.331 151.636C290.636 151.668 289.942 151.563 289.288 151.327C288.633 151.091 288.032 150.728 287.518 150.258C287.004 149.789 286.587 149.223 286.291 148.592C285.995 147.962 285.826 147.279 285.794 146.582C285.752 145.751 285.909 144.922 286.251 144.164C286.687 144.455 287.066 144.825 287.369 145.254C287.78 145.835 288.038 146.506 288.52 147.043C289.412 148.039 290.914 148.39 292.267 148.358C293.578 148.33 294.841 148.009 296.144 147.908C295.821 148.949 295.186 149.866 294.324 150.533C293.463 151.2 292.418 151.585 291.331 151.636Z" fill="black"/>
<path opacity="0.1" d="M293.945 161.946C293.329 163.16 292.271 164.09 290.99 164.543C289.709 164.997 288.303 164.94 287.063 164.383C285.823 163.827 284.844 162.814 284.328 161.555C283.812 160.295 283.799 158.885 284.292 157.616C284.728 157.903 285.119 158.253 285.453 158.655C285.957 159.271 286.289 159.969 286.871 160.542C287.959 161.605 289.701 162.045 291.257 162.085C292.155 162.093 293.053 162.046 293.945 161.946Z" fill="black"/>
<path d="M29.911 168.617C28.79 166.533 30.0633 163.981 31.5272 162.121C32.991 160.261 34.776 158.33 34.7379 155.961C34.6834 152.56 31.081 150.55 28.2077 148.745C26.0707 147.407 24.0997 145.82 22.336 144.016C21.5973 143.322 20.9867 142.502 20.532 141.595C19.9361 140.264 19.9552 138.75 19.9878 137.294C20.113 132.436 20.3524 127.586 20.7061 122.743" stroke="#3F3D56" stroke-width="4" stroke-miterlimit="10"/>
<path d="M15.2317 122.476C15.2726 121.587 15.5361 120.723 15.9978 119.963C16.4595 119.204 17.1046 118.573 17.8737 118.129L19.06 120.479L19.0246 117.632C19.5905 117.467 20.1798 117.396 20.7687 117.422C21.8148 117.472 22.8228 117.83 23.6653 118.454C24.5078 119.077 25.147 119.937 25.5021 120.924C25.8571 121.912 25.912 122.982 25.6599 124.001C25.4078 125.02 24.86 125.941 24.0857 126.647C23.3114 127.354 22.3454 127.814 21.3099 127.971C20.2744 128.127 19.2159 127.972 18.2682 127.526C17.3204 127.079 16.5261 126.361 15.9856 125.462C15.4452 124.563 15.1828 123.524 15.2317 122.476Z" fill="white"/>
<path d="M24.6732 158.401C25.2288 159.483 26.1386 160.341 27.2502 160.83C28.3617 161.32 29.6073 161.411 30.7782 161.089C31.949 160.768 32.9739 160.052 33.6809 159.063C34.388 158.074 34.7341 156.871 34.6614 155.656C34.5887 154.442 34.1016 153.289 33.2816 152.392C32.4617 151.495 31.3588 150.907 30.158 150.728C28.9572 150.549 27.7314 150.789 26.6862 151.408C25.641 152.027 24.84 152.987 24.4175 154.128L27.7261 156.825L24.0801 155.974C24.0816 156.819 24.285 157.651 24.6732 158.401Z" fill="white"/>
<path d="M27.288 148.09C27.9827 148.123 28.6769 148.018 29.3311 147.782C29.9853 147.546 30.5867 147.183 31.1009 146.713C31.615 146.244 32.032 145.678 32.3278 145.047C32.6236 144.416 32.7926 143.733 32.8251 143.037C32.8663 142.206 32.7096 141.377 32.368 140.618C32.0517 139.909 31.5842 139.279 30.9985 138.77C30.4128 138.262 29.723 137.888 28.9777 137.676L29.0077 139.858L27.8077 137.48C26.4049 137.414 25.0334 137.909 23.995 138.857C22.9566 139.805 22.3364 141.127 22.2707 142.533C22.205 143.939 22.6993 145.313 23.6449 146.354C24.5904 147.395 25.9097 148.016 27.3125 148.082L27.288 148.09Z" fill="white"/>
<path d="M14.4344 139.519C15.1373 139.566 15.8424 139.472 16.5085 139.242C17.1746 139.013 17.7883 138.652 18.3138 138.182C18.8392 137.712 19.2658 137.141 19.5686 136.504C19.8714 135.867 20.0444 135.175 20.0773 134.47C20.1102 133.765 20.0025 133.06 19.7604 132.397C19.5183 131.734 19.1467 131.126 18.6674 130.609C18.1881 130.091 17.6106 129.675 16.9688 129.384C16.327 129.093 15.6338 128.933 14.9297 128.914C13.9447 128.868 12.9667 129.102 12.1081 129.588L13.0441 132.156L11.1041 130.313C10.0721 131.256 9.45474 132.57 9.38716 133.967C9.36306 134.458 9.40887 134.951 9.5232 135.429C9.78652 136.553 10.4085 137.561 11.2948 138.299C12.181 139.037 13.2833 139.466 14.4344 139.519Z" fill="white"/>
<path opacity="0.1" d="M15.9445 123.891C17.1662 124.025 18.3525 124.406 19.5797 124.483C20.8068 124.559 22.1536 124.265 22.9291 123.307C23.3481 122.795 23.5549 122.143 23.9086 121.581C24.2427 121.058 24.7007 120.626 25.2419 120.324C25.5818 120.997 25.7747 121.734 25.8079 122.487C25.8411 123.241 25.7137 123.992 25.4343 124.692C25.1549 125.392 24.7299 126.025 24.1875 126.547C23.6452 127.07 22.9979 127.471 22.289 127.723C21.58 127.975 20.8255 128.073 20.0758 128.01C19.3262 127.947 18.5985 127.724 17.9413 127.357C17.2841 126.99 16.7124 126.487 16.2645 125.882C15.8165 125.276 15.5024 124.581 15.3432 123.845C15.5445 123.855 15.7432 123.869 15.9445 123.891Z" fill="white"/>
<path opacity="0.1" d="M14.4344 139.519C15.3469 139.561 16.2546 139.366 17.0695 138.952C17.8844 138.539 18.5789 137.921 19.0856 137.16C19.5924 136.398 19.8941 135.518 19.9616 134.605C20.0291 133.692 19.86 132.777 19.4708 131.949C19.0514 132.234 18.6902 132.597 18.407 133.018C18.0288 133.588 17.8002 134.248 17.3567 134.772C16.5404 135.745 15.1228 136.062 13.8467 136.004C12.5706 135.947 11.3353 135.582 10.0619 135.459C9.88509 135.443 9.7055 135.432 9.51776 135.426C9.78083 136.552 10.4034 137.561 11.2908 138.3C12.1782 139.038 13.282 139.467 14.4344 139.519Z" fill="black"/>
<path opacity="0.1" d="M27.288 148.09C27.9827 148.123 28.6769 148.018 29.3311 147.782C29.9853 147.546 30.5867 147.183 31.1008 146.713C31.615 146.244 32.0319 145.678 32.3278 145.047C32.6236 144.416 32.7926 143.733 32.8251 143.037C32.8663 142.206 32.7096 141.377 32.368 140.618C31.9314 140.91 31.5523 141.28 31.2497 141.709C30.8388 142.29 30.5803 142.961 30.0987 143.498C29.2063 144.493 27.7043 144.845 26.352 144.813C25.0405 144.785 23.778 144.463 22.4747 144.363C22.7978 145.404 23.4331 146.321 24.2943 146.988C25.1555 147.655 26.2008 148.04 27.288 148.09Z" fill="black"/>
<path opacity="0.1" d="M24.6732 158.401C25.2894 159.615 26.3474 160.545 27.6284 160.998C28.9094 161.452 30.3153 161.395 31.5554 160.838C32.7955 160.282 33.7748 159.269 34.2906 158.01C34.8065 156.75 34.8195 155.34 34.327 154.071C33.8911 154.358 33.4996 154.708 33.1652 155.11C32.6618 155.726 32.3299 156.424 31.7476 156.997C30.6592 158.06 28.9178 158.499 27.3615 158.54C26.4634 158.548 25.5657 158.501 24.6732 158.401Z" fill="black"/>
<path d="M85.3821 160.678L89.0064 158.543C88.5166 157.704 87.8903 156.953 87.1534 156.321L80.3185 158.45L85.6732 155.295C84.3473 154.567 82.8551 154.198 81.3435 154.224C79.832 154.25 78.3531 154.669 77.0525 155.442C75.752 156.214 74.6744 157.313 73.926 158.629C73.1777 159.946 72.7842 161.435 72.7843 162.95C72.7843 167.769 76.6834 167.935 81.4912 167.935C86.2991 167.935 90.1981 167.769 90.1981 162.95C90.201 161.729 89.946 160.52 89.4499 159.405L85.3821 160.678Z" fill="white"/>
<path opacity="0.1" d="M86.3045 165.363C85.9185 164.976 85.4873 164.636 85.0202 164.352C84.3645 163.913 83.6816 163.465 82.9061 163.318C82.2259 163.187 81.5239 163.299 80.83 163.258C79.6253 163.184 78.4912 162.663 77.6493 161.796C77.1541 161.284 76.765 160.654 76.1691 160.261C75.5031 159.864 74.7173 159.72 73.9543 159.855C73.7332 159.886 73.5142 159.93 73.2986 159.988C72.9575 160.938 72.7835 161.94 72.7843 162.95C72.7843 167.769 76.6834 167.935 81.4912 167.935C83.8258 167.935 85.9426 167.897 87.5071 167.305L87.2351 166.817C86.9879 166.295 86.6752 165.806 86.3045 165.363Z" fill="black"/>
</g>
<defs>
<clipPath id="clip0_2012_2">
<rect width="311" height="181" fill="white"/>
</clipPath>
</defs>
</svg>
