<svg width="317" height="180" viewBox="0 0 317 180" fill="none" xmlns="http://www.w3.org/2000/svg">
<g clip-path="url(#clip0_2_106)">
<path opacity="0.1" d="M317 119.004C317.017 128.151 314.513 137.127 309.762 144.951C309.762 154.52 305.29 163.193 298.035 169.514C296.22 171.097 294.265 172.513 292.194 173.745C292.111 173.798 292.025 173.848 291.939 173.897C291.784 173.989 291.629 174.08 291.471 174.174L291.324 174.259C284.457 178.077 276.718 180.059 268.857 180.014H60.1773C45.7877 180.014 32.7613 175.017 23.3233 166.941C13.8854 158.865 8.06908 147.688 8.06908 135.361C2.78412 127.244 -0.019469 117.768 -6.16098e-06 108.09C-6.16098e-06 80.6885 21.9572 58.4753 49.0463 58.4753C50.0051 58.4753 50.9555 58.5084 51.9004 58.561C68.8976 29.6508 107.237 9.49115 151.778 9.49115C179.16 9.49115 204.191 17.1056 223.363 29.6868C230.626 25.5918 238.829 23.4444 247.171 23.4542C274.255 23.4542 296.218 45.6675 296.218 73.0685C296.214 74.8023 296.121 76.5347 295.941 78.2591C302.469 82.8687 307.79 88.9768 311.456 96.0681C315.121 103.159 317.022 111.026 317 119.004Z" fill="white"/>
<path opacity="0.1" d="M114.441 134.672C174.432 134.672 223.064 133.373 223.064 131.77C223.064 130.168 174.432 128.868 114.441 128.868C54.451 128.868 5.81906 130.168 5.81906 131.77C5.81906 133.373 54.451 134.672 114.441 134.672Z" fill="white"/>
<g opacity="0.7">
<path d="M73.9851 110.35H39.3479V129.421H73.9851V110.35Z" fill="#65617D"/>
<path opacity="0.1" d="M62.0699 113.667H51.5402V115.878H62.0699V113.667Z" fill="black"/>
<path opacity="0.1" d="M60.7537 113.943H52.8564V115.602H60.7537V113.943Z" fill="black"/>
<path d="M109.177 110.35H74.5393V129.421H109.177V110.35Z" fill="#65617D"/>
<path opacity="0.1" d="M97.2614 113.667H86.7316V115.878H97.2614V113.667Z" fill="black"/>
<path opacity="0.1" d="M95.9451 113.943H88.0479V115.602H95.9451V113.943Z" fill="black"/>
<path d="M73.9851 90.7269H39.3479V109.798H73.9851V90.7269Z" fill="#65617D"/>
<path opacity="0.1" d="M62.0699 94.0435H51.5402V96.2546H62.0699V94.0435Z" fill="black"/>
<path opacity="0.1" d="M60.7537 94.3199H52.8564V95.9783H60.7537V94.3199Z" fill="black"/>
<path d="M109.177 90.7269H74.5393V109.798H109.177V90.7269Z" fill="#65617D"/>
<path opacity="0.1" d="M97.2614 94.0435H86.7316V96.2546H97.2614V94.0435Z" fill="black"/>
<path opacity="0.1" d="M95.9451 94.3199H88.0479V95.9783H95.9451V94.3199Z" fill="black"/>
<path d="M73.9851 70.827H39.3479V89.8977H73.9851V70.827Z" fill="#65617D"/>
<path opacity="0.1" d="M62.0699 74.1437H51.5402V76.3548H62.0699V74.1437Z" fill="black"/>
<path opacity="0.1" d="M60.7537 74.42H52.8564V76.0784H60.7537V74.42Z" fill="black"/>
<path d="M109.177 70.827H74.5393V89.8977H109.177V70.827Z" fill="#65617D"/>
<path opacity="0.1" d="M97.2614 74.1437H86.7316V76.3548H97.2614V74.1437Z" fill="black"/>
<path opacity="0.1" d="M95.9451 74.42H88.0479V76.0784H95.9451V74.42Z" fill="black"/>
<path d="M109.177 50.9271H74.5393V69.9978H109.177V50.9271Z" fill="#65617D"/>
<path opacity="0.1" d="M97.2614 54.2438H86.7316V56.4549H97.2614V54.2438Z" fill="black"/>
<path opacity="0.1" d="M95.9451 54.5202H88.0479V56.1785H95.9451V54.5202Z" fill="black"/>
</g>
<g opacity="0.7">
<path d="M144.368 110.074H109.731V129.145H144.368V110.074Z" fill="#65617D"/>
<path opacity="0.1" d="M132.453 113.391H121.923V115.602H132.453V113.391Z" fill="black"/>
<path opacity="0.1" d="M131.137 113.667H123.239V115.325H131.137V113.667Z" fill="black"/>
<path d="M179.559 110.074H144.922V129.145H179.559V110.074Z" fill="#65617D"/>
<path opacity="0.1" d="M167.644 113.391H157.115V115.602H167.644V113.391Z" fill="black"/>
<path opacity="0.1" d="M166.328 113.667H158.431V115.325H166.328V113.667Z" fill="black"/>
<path d="M144.368 90.4505H109.731V109.521H144.368V90.4505Z" fill="#65617D"/>
<path opacity="0.1" d="M132.453 93.7672H121.923V95.9782H132.453V93.7672Z" fill="black"/>
<path opacity="0.1" d="M131.137 94.0435H123.239V95.7019H131.137V94.0435Z" fill="black"/>
<path d="M179.559 90.4505H144.922V109.521H179.559V90.4505Z" fill="#65617D"/>
<path opacity="0.1" d="M167.644 93.7672H157.115V95.9782H167.644V93.7672Z" fill="black"/>
<path opacity="0.1" d="M166.328 94.0435H158.431V95.7019H166.328V94.0435Z" fill="black"/>
<path d="M144.368 70.5506H109.731V89.6213H144.368V70.5506Z" fill="#65617D"/>
<path opacity="0.1" d="M132.453 73.8673H121.923V76.0784H132.453V73.8673Z" fill="black"/>
<path opacity="0.1" d="M131.137 74.1436H123.239V75.802H131.137V74.1436Z" fill="black"/>
<path d="M179.559 70.5506H144.922V89.6213H179.559V70.5506Z" fill="#65617D"/>
<path opacity="0.1" d="M167.644 73.8673H157.115V76.0784H167.644V73.8673Z" fill="black"/>
<path opacity="0.1" d="M166.328 74.1436H158.431V75.802H166.328V74.1436Z" fill="black"/>
<path d="M179.559 50.6507H144.922V69.7215H179.559V50.6507Z" fill="#65617D"/>
<path opacity="0.1" d="M167.644 53.9674H157.115V56.1785H167.644V53.9674Z" fill="black"/>
<path opacity="0.1" d="M166.328 54.2438H158.431V55.9021H166.328V54.2438Z" fill="black"/>
</g>
<path opacity="0.1" d="M243.372 0.0304005C243.372 0.0304005 220.043 -1.37365 222.787 14.9332C222.787 14.9332 222.233 17.8159 224.859 19.1232C224.859 19.1232 224.901 17.9154 227.254 18.3272C228.091 18.4657 228.942 18.5065 229.789 18.4488C230.933 18.37 232.021 17.9218 232.887 17.1719C232.887 17.1719 239.446 14.4689 241.995 3.77821C241.995 3.77821 243.882 1.4455 243.807 0.845742L239.87 2.52341C239.87 2.52341 241.217 5.35638 240.147 7.7112C240.147 7.7112 240.019 2.62568 239.263 2.73623C239.111 2.76111 237.218 3.71741 237.218 3.71741C237.218 3.71741 239.532 8.65092 237.786 12.2384C237.786 12.2384 238.448 6.15791 236.495 4.07395L233.724 5.68805C233.724 5.68805 236.428 10.7846 234.594 14.9443C234.594 14.9443 235.065 8.56524 233.139 6.08052L230.629 8.03458C230.629 8.03458 233.17 13.0593 231.621 16.5086C231.621 16.5086 231.418 9.08208 230.085 8.52102C230.085 8.52102 227.888 10.4557 227.553 11.2462C227.553 11.2462 229.293 14.8945 228.212 16.8182C228.212 16.8182 227.55 11.8708 227.007 11.8432C227.007 11.8432 224.818 15.1211 224.591 17.3709C224.591 17.3709 224.685 14.0267 226.478 11.5309C226.478 11.5309 224.361 11.8929 223.125 13.2638C223.125 13.2638 223.466 10.9449 227.018 10.7432C227.018 10.7432 228.827 8.25569 229.31 8.10367C229.31 8.10367 225.779 7.8107 223.637 8.75595C223.637 8.75595 225.522 6.56973 229.958 7.56472L232.438 5.54432C232.438 5.54432 227.788 4.9114 225.815 5.61066C225.815 5.61066 228.085 3.67595 233.106 5.08829L235.81 3.49077C235.81 3.49077 231.845 2.6395 229.484 2.93799C229.484 2.93799 231.978 1.59752 236.603 3.05131L238.542 2.18622C238.542 2.18622 235.639 1.61686 234.788 1.52565C233.937 1.43445 233.893 1.20228 233.893 1.20228C235.733 0.896281 237.621 1.10583 239.349 1.80757C239.349 1.80757 243.444 0.287441 243.372 0.0304005Z" fill="white"/>
<path opacity="0.1" d="M214.598 4.17898C214.598 4.17898 204.069 3.54329 205.302 10.9145C205.302 10.9145 205.055 12.2163 206.236 12.8078C206.236 12.8078 206.255 12.255 207.319 12.4457C207.697 12.5092 208.081 12.5277 208.464 12.501C208.981 12.4659 209.472 12.2631 209.863 11.9233C209.863 11.9233 212.828 10.7045 213.981 5.87323C213.981 5.87323 214.831 4.81743 214.798 4.54657L213.019 5.30387C213.019 5.30387 213.629 6.58631 213.149 7.6504C213.149 7.6504 213.091 5.35086 212.75 5.40613C212.681 5.40613 211.825 5.84836 211.825 5.84836C211.825 5.84836 212.872 8.0788 212.082 9.7012C212.082 9.7012 212.382 6.9539 211.498 6.01142L210.245 6.74109C210.245 6.74109 211.47 9.04339 210.639 10.9228C210.639 10.9228 210.852 8.04011 209.982 6.91797L208.849 7.79965C208.849 7.79965 209.996 10.0716 209.298 11.6304C209.298 11.6304 209.206 8.27227 208.602 8.02076C208.602 8.02076 207.61 8.89415 207.458 9.25345C207.458 9.25345 208.245 10.9118 207.757 11.7686C207.757 11.7686 207.458 9.5326 207.203 9.52431C207.203 9.52431 206.216 11.0057 206.111 12.0118C206.16 11.0729 206.455 10.1631 206.964 9.37229C206.394 9.48015 205.867 9.75201 205.449 10.1545C205.449 10.1545 205.604 9.10973 207.208 9.01576C207.208 9.01576 208.04 7.89362 208.245 7.82452C208.245 7.82452 206.649 7.69186 205.681 8.12026C205.681 8.12026 206.532 7.13079 208.538 7.58131L209.647 6.66923C209.647 6.66923 207.546 6.39284 206.654 6.69963C206.654 6.69963 207.679 5.82625 209.949 6.46194L211.168 5.73504C211.168 5.73504 209.378 5.34809 208.308 5.48905C208.308 5.48905 209.436 4.881 211.525 5.5388L212.398 5.1491C212.398 5.1491 211.085 4.88929 210.7 4.8506C210.315 4.8119 210.295 4.70411 210.295 4.70411C211.127 4.56609 211.981 4.66179 212.761 4.9805C212.761 4.9805 214.632 4.29506 214.598 4.17898Z" fill="white"/>
<path d="M62.1226 178.203C68.2762 178.203 73.2647 177.362 73.2647 176.324C73.2647 175.286 68.2762 174.445 62.1226 174.445C55.969 174.445 50.9805 175.286 50.9805 176.324C50.9805 177.362 55.969 178.203 62.1226 178.203Z" fill="white"/>
<path d="M66.7307 173.251C67.2394 172.837 67.6097 172.279 67.792 171.65C67.9305 171.017 67.659 170.268 67.0494 170.022C66.3677 169.763 65.639 170.235 65.0875 170.711C64.5361 171.186 63.9015 171.73 63.1811 171.628C63.5524 171.292 63.8301 170.865 63.9874 170.39C64.1447 169.915 64.1763 169.408 64.0789 168.917C64.0474 168.714 63.9612 168.522 63.8295 168.364C63.4499 167.961 62.7654 168.132 62.311 168.45C60.8701 169.461 60.4683 171.415 60.46 173.17C60.3159 172.538 60.4378 171.877 60.4351 171.236C60.4323 170.595 60.2522 169.854 59.7007 169.514C59.3607 169.331 58.9783 169.242 58.5923 169.254C57.9467 169.229 57.2235 169.296 56.7829 169.768C56.2287 170.354 56.3756 171.338 56.8522 171.979C57.3288 172.62 58.0576 173.032 58.7281 173.477C59.2646 173.796 59.722 174.232 60.0665 174.751C60.108 174.824 60.1415 174.901 60.1663 174.981H64.2285C65.137 174.519 65.9787 173.937 66.7307 173.251Z" fill="white"/>
<path d="M198.779 94.5272C198.756 94.3179 198.681 94.1176 198.561 93.9447C198.44 93.7718 198.278 93.6319 198.089 93.5377C197.93 93.4701 197.759 93.4351 197.586 93.4348C197.413 93.4345 197.242 93.4689 197.083 93.536C196.923 93.603 196.779 93.7014 196.659 93.8251C196.539 93.9489 196.444 94.0955 196.382 94.2564L190.228 107.172L188.842 158.027H191.059L191.89 107.285L198.663 95.3287C198.785 95.0805 198.826 94.8 198.779 94.5272Z" fill="#3F3D56"/>
<path opacity="0.1" d="M298.035 169.514C296.22 171.097 294.265 172.513 292.194 173.745C292.162 173.791 292.126 173.833 292.086 173.872C291.866 174.059 291.605 174.189 291.324 174.254C284.457 178.071 276.718 180.053 268.857 180.008H116.503C99.0459 178.217 88.3942 175.843 88.3942 173.237C88.3942 171.216 94.7897 169.334 105.802 167.759C106.943 167.593 108.134 167.433 109.373 167.278C110.136 167.182 110.917 167.09 111.715 167.001L113.07 166.844C114.075 166.73 115.106 166.618 116.165 166.51H116.251L117.359 166.399C118.296 166.302 119.252 166.211 120.227 166.123L120.937 166.059L122.746 165.899C123.921 165.794 125.122 165.693 126.348 165.597C127.366 165.518 128.401 165.439 129.452 165.36C140.109 164.572 152.396 163.978 165.766 163.594L169.584 163.464L170.87 163.436L173.585 163.375L174.674 163.353L175.819 163.331L176.633 163.317L180.457 163.256L182.422 163.229H182.824C187.47 163.174 192.203 163.145 197.022 163.143C206.549 163.143 215.787 163.256 224.591 163.472C229.645 163.594 234.545 163.748 239.291 163.936H239.335C253.018 164.473 265.266 165.263 275.402 166.244L275.588 166.264C278.19 166.515 280.653 166.783 282.964 167.06C285.139 167.319 287.181 167.593 289.077 167.872C289.734 167.969 290.371 168.068 290.992 168.165L291.15 168.193C293.776 168.616 296.082 169.047 298.035 169.514Z" fill="white"/>
<path d="M292.194 173.745C292.162 173.791 292.126 173.833 292.086 173.873C291.866 174.059 291.605 174.189 291.324 174.254C290.764 174.411 290.187 174.503 289.606 174.53H289.432C289.1 174.541 288.767 174.53 288.437 174.497C288.195 174.462 287.952 174.447 287.708 174.45H287.675C287.32 174.5 286.972 174.586 286.636 174.707C285.886 174.912 285.113 175.022 284.336 175.033H284.059C283.189 175.033 282.307 175.003 281.434 175.008C281.293 175.008 281.157 175.008 281.011 175.008C279.514 175.047 278.026 175.285 276.53 175.31H276.05C274.585 175.274 273.086 174.961 271.919 174.077C271.684 173.922 271.493 173.709 271.365 173.458C271.265 173.193 271.232 172.909 271.268 172.629C271.295 172.129 271.392 171.584 271.769 171.247C272.006 171.066 272.278 170.935 272.567 170.863C273.074 170.7 273.584 170.542 274.091 170.385C274.598 170.227 275.178 170.058 275.723 169.898L275.829 169.865L276.134 169.774L276.33 169.707C276.569 169.631 276.798 169.527 277.012 169.398C277.295 169.219 277.534 168.981 277.713 168.699C277.744 168.649 277.777 168.596 277.805 168.544C277.832 168.491 277.804 168.458 277.785 168.414C277.738 168.068 277.702 167.715 277.641 167.377C276.861 167.197 276.15 166.796 275.593 166.222C275.115 165.749 274.712 165.206 274.399 164.611C273.709 163.317 273.354 161.872 272.839 160.498C272.049 158.409 270.899 156.479 269.741 154.567C268.682 152.803 267.618 151.035 266.416 149.368C265.615 148.262 264.753 147.209 263.961 146.101C261.719 143.009 260.111 139.505 259.228 135.792C259.093 135.079 258.901 134.379 258.654 133.697C258.178 132.536 257.305 131.591 256.629 130.529C255.902 129.385 255.404 128.112 255.163 126.779C255.024 126.022 254.792 125.203 254.035 125.121L253.955 125.278C252.386 128.318 250.776 131.414 248.413 133.896C248.035 134.261 247.689 134.657 247.379 135.082C247.131 135.493 246.909 135.919 246.714 136.358C246.34 137.147 245.843 137.872 245.243 138.506C245.064 138.686 244.869 138.85 244.661 138.995C244.384 139.196 244.076 139.35 243.749 139.451C243.62 139.49 243.489 139.52 243.356 139.54C243.356 139.573 243.37 139.603 243.372 139.636C243.375 139.67 243.389 139.708 243.394 139.744C243.802 141.955 243.627 144.234 242.887 146.358C242.868 146.424 242.846 146.488 242.821 146.554C242.706 146.864 242.582 147.168 242.447 147.466C242.109 148.199 241.707 148.901 241.391 149.644C241.338 149.772 241.286 149.899 241.239 150.026C240.13 152.986 240.407 156.292 240.263 159.473C240.251 160.168 240.168 160.861 240.017 161.54C239.828 162.306 239.526 163.096 239.36 163.887C239.208 164.479 239.196 165.099 239.324 165.697L239.257 165.722C238.961 165.832 238.659 165.932 238.357 166.026V166.067C238.465 166.686 238.57 167.306 238.678 167.922C238.77 168.453 238.878 169.027 239.249 169.403C239.35 169.486 239.443 169.579 239.526 169.68C239.745 170.022 239.551 170.476 239.593 170.882C239.654 171.457 240.186 171.946 240.103 172.518C240.065 172.689 239.987 172.848 239.874 172.982C239.761 173.116 239.617 173.221 239.454 173.287C239.318 173.348 239.174 173.394 239.027 173.422L238.936 173.441C238.77 173.472 238.603 173.488 238.437 173.505C236.373 173.709 234.281 173.914 232.236 173.566C231.831 173.497 231.429 173.405 231.019 173.372C230.501 173.349 229.982 173.37 229.468 173.436C225.674 173.794 221.859 173.868 218.054 173.657C217.065 173.602 215.929 173.441 215.405 172.598C214.97 171.899 215.128 170.995 215.347 170.197C215.409 169.903 215.523 169.622 215.682 169.367C215.7 169.34 215.72 169.314 215.743 169.29C216.253 168.657 217.211 168.618 218.037 168.643L220.736 168.723C221.002 168.745 221.269 168.724 221.529 168.663C221.967 168.535 222.299 168.187 222.709 167.991C223.225 167.745 223.873 167.715 224.244 167.294L224.291 167.234C224.357 167.145 224.418 167.052 224.474 166.957C224.474 166.938 224.499 166.919 224.513 166.899C224.523 166.882 224.534 166.865 224.546 166.849C224.887 166.402 225.483 166.253 225.968 165.968C226.041 165.925 226.111 165.876 226.176 165.821L226.231 165.772C225.709 165.4 225.254 164.943 224.884 164.42C224.742 164.267 224.637 164.084 224.577 163.884C224.543 163.734 224.554 163.577 224.61 163.433C224.622 163.398 224.637 163.364 224.654 163.331L224.668 163.303C224.857 162.933 225.245 162.599 225.458 162.22C225.466 162.208 225.473 162.195 225.477 162.181C225.771 161.629 225.829 160.772 225.394 160.327C225.616 156.687 226.619 153.141 226.841 149.49C226.929 148.044 226.893 146.593 226.96 145.142C227.026 143.691 227.181 142.284 227.345 140.861C227.711 137.608 228.597 134.421 228.473 131.154C228.462 130.85 228.475 130.545 228.512 130.242C228.51 130.22 228.51 130.198 228.512 130.176C228.6 129.506 228.81 128.858 229.129 128.263C229.531 127.59 229.986 126.951 230.49 126.35C232.194 124.139 234.242 121.928 234.849 119.209C235.162 117.805 235.855 116.519 236.545 115.256C236.952 114.505 237.376 113.733 238.027 113.181C238.38 112.937 238.707 112.659 239.005 112.351C239.46 111.766 239.476 110.956 239.745 110.259C239.884 109.897 240.097 109.565 240.202 109.192C240.202 109.154 240.222 109.118 240.23 109.079C240.291 108.702 240.324 108.322 240.327 107.94C240.327 107.83 240.344 107.722 240.357 107.614C240.519 106.521 240.838 105.458 241.302 104.455C241.361 104.328 241.416 104.198 241.471 104.071C240.193 103.327 239.065 102.351 238.146 101.194C237.835 100.819 237.564 100.412 237.34 99.9803C236.769 98.8499 236.639 97.562 236.37 96.3237C235.727 93.3719 234.256 90.5915 234.051 87.5733C233.99 86.653 234.051 85.7022 233.729 84.8316C233.641 84.5962 233.536 84.3672 233.416 84.1461C233.366 84.0522 233.319 83.9582 233.269 83.8697L233.214 83.7647L233.073 83.4883L232.845 83.6652C227.176 88.0927 221.225 92.1476 215.028 95.8041L214.496 96.1192C214.219 96.2525 213.978 96.4495 213.792 96.6941C213.77 96.73 213.751 96.766 213.731 96.8019C213.604 97.0645 213.57 97.3547 213.454 97.6311C213.205 98.264 212.565 98.6675 211.911 98.8555C210.727 99.1589 209.473 98.9976 208.405 98.4049C208.27 98.3358 208.128 98.264 208.006 98.1838C207.682 98.363 207.341 98.5084 206.987 98.6178C205.878 98.9384 204.717 98.9245 203.57 98.9218C202.423 98.919 201.251 98.9218 200.164 99.2977C199.438 99.5437 198.735 99.95 197.981 99.9886C197.894 99.9942 197.807 99.9942 197.72 99.9886C197.291 99.9395 196.873 99.817 196.485 99.6266L196.257 99.5243C196.14 99.4686 196.025 99.4068 195.914 99.3391C195.792 99.2645 195.68 99.1764 195.578 99.0766C195.432 98.9297 195.325 98.748 195.268 98.5487C195.231 98.4046 195.231 98.2533 195.268 98.1092C195.279 98.0445 195.312 97.9858 195.362 97.9434C195.412 97.9142 195.468 97.8998 195.526 97.9019C195.844 97.8985 196.161 97.9253 196.473 97.9821C196.657 98.0072 196.842 98.0174 197.028 98.0125H197.127C197.291 97.995 197.449 97.9442 197.592 97.8634C197.735 97.7826 197.86 97.6734 197.959 97.5426C197.989 97.5021 198.013 97.4574 198.031 97.4099C198.064 97.3323 198.081 97.2485 198.081 97.164C198.082 97.1428 198.082 97.1216 198.081 97.1004C197.964 97.0479 197.848 96.9954 197.737 96.9318C197.679 96.9014 197.623 96.8682 197.568 96.8351L197.535 96.813C197.435 96.7455 197.342 96.6687 197.258 96.5836C197.204 96.5303 197.156 96.4709 197.116 96.4067C197.043 96.3065 196.987 96.1943 196.953 96.075C196.725 96.0274 196.488 96.034 196.263 96.0943C195.961 96.1773 195.656 96.3541 195.357 96.415C195.206 96.4528 195.047 96.4461 194.9 96.3956C194.467 96.2408 194.315 95.7157 194.223 95.2652C194.207 95.1795 194.187 95.0911 194.174 95.0026C194.142 94.8327 194.142 94.6584 194.174 94.4885C194.308 94.1024 194.563 93.7698 194.902 93.5405L195.811 92.7805L195.878 92.7252C195.878 92.6506 195.847 92.5759 195.836 92.5013C195.804 92.3305 195.804 92.1553 195.836 91.9845C195.97 91.599 196.226 91.2673 196.565 91.0392L198.577 89.3505C198.954 89.0354 199.364 88.7037 199.854 88.6706C200.583 88.6208 201.165 89.2234 201.711 89.707C202.398 90.3151 203.232 90.8126 204.149 90.8734C204.586 90.8933 205.023 90.8334 205.438 90.6965L205.673 90.6191C205.623 90.5168 205.573 90.4146 205.526 90.3123C205.446 90.1437 205.366 89.9724 205.288 89.801C206.468 89.7264 207.541 89.0796 208.436 88.3057C209.331 87.5319 210.098 86.617 211.002 85.857C211.977 85.0278 213.097 84.4115 214.086 83.6127C216.386 81.7526 217.913 79.0191 220.373 77.3802C221.227 76.808 222.213 76.352 222.795 75.5007C222.975 75.2243 223.111 74.948 223.297 74.6716C223.887 73.8424 224.898 73.461 225.732 72.8861C226.566 72.3112 227.292 71.4682 227.971 70.6584C228.453 70.0808 228.938 69.5031 229.398 68.9089C229.822 68.1212 230.18 67.2975 230.623 66.5209C230.999 65.8648 231.438 65.2465 231.934 64.6746C232.047 64.4535 232.164 64.2324 232.288 64.0168C232.413 63.8012 232.505 63.6548 232.621 63.4641C232.701 63.3397 232.784 63.2208 232.87 63.0992C232.618 62.6542 232.377 62.2701 232.263 62.1015L232.208 62.0268C231.964 61.7671 231.703 61.5234 231.427 61.2972C231.137 61.2534 230.85 61.1925 230.568 61.1148C228.857 60.6473 227.349 59.6318 226.274 58.2249C225.2 56.818 224.619 55.0976 224.621 53.3289C224.62 53.3207 224.62 53.3123 224.621 53.3041C224.622 52.0374 224.924 50.789 225.502 49.6613C225.619 49.4346 225.743 49.2163 225.879 49.0035C225.752 48.9636 225.629 48.9137 225.511 48.8542C225.308 48.7548 225.132 48.6101 224.995 48.4314C224.882 48.2721 224.809 48.0883 224.782 47.8952C224.735 47.4396 224.804 46.9796 224.981 46.5574C225.057 46.3542 225.143 46.1549 225.239 45.9604C225.247 45.9491 225.253 45.937 225.258 45.9245C226.497 43.437 229.138 41.9086 231.776 41.8008C234.622 41.6875 237.393 43.0197 239.637 44.9268C240.307 45.4749 240.906 46.1033 241.422 46.7979C242.594 48.4231 243.123 50.5015 243.278 52.5606C243.336 53.1974 243.325 53.8387 243.245 54.4732C243.216 54.6993 243.169 54.9229 243.106 55.142C243.07 55.2719 243.023 55.4018 242.973 55.5317C242.923 55.6616 242.893 55.7197 242.849 55.8081V55.8219C242.807 55.9104 242.76 55.9933 242.713 56.0762L242.688 56.1122L242.652 56.1702C242.674 56.2227 242.699 56.278 242.724 56.3305C242.749 56.383 242.771 56.4328 242.799 56.4825H242.832C243.386 56.5267 243.899 56.6041 244.464 56.6483C244.73 56.6609 244.994 56.7017 245.251 56.77C245.805 56.9358 246.224 57.3393 246.689 57.6655C247.842 58.478 249.261 58.8567 250.394 59.6969C252.057 60.9351 252.888 62.9804 253.896 64.8128C255.227 67.2671 257.393 69.3566 258.349 71.9823C258.782 73.1745 259.216 74.3648 259.652 75.5532C260.502 77.8832 261.353 80.2242 262.509 82.4215C264.116 85.4783 266.291 88.2256 267.58 91.4372C267.707 91.7591 267.948 92.0241 268.256 92.1835C270.011 94.6564 271.572 97.2613 272.925 99.9748C273.637 101.409 274.31 102.899 274.518 104.488C274.68 105.903 274.563 107.336 274.172 108.706C273.951 109.52 273.68 110.319 273.36 111.099C273.235 111.373 273.142 111.659 273.083 111.953C273.083 111.984 273.083 112.014 273.083 112.045C273.027 112.575 273.23 113.1 273.285 113.631C273.331 114.058 273.283 114.49 273.144 114.897C273.122 114.961 273.097 115.024 273.072 115.088C272.9 115.411 272.754 115.747 272.637 116.094C272.627 116.136 272.619 116.178 272.614 116.221C272.523 116.821 272.761 117.426 272.892 118.026C273.379 120.193 273.291 122.448 273.169 124.659C273.105 125.765 274 126.652 274.748 127.467C276.134 128.995 277.217 130.784 278.262 132.564C278.832 133.467 279.312 134.424 279.694 135.422C280.091 136.56 280.249 137.765 280.467 138.945C281.174 142.594 283.482 145.816 284.108 149.473C284.399 151.148 285.139 152.712 286.25 154C286.585 154.345 286.894 154.715 287.173 155.106C287.366 155.417 287.52 155.752 287.63 156.101C287.903 156.914 288.031 157.767 288.01 158.624C287.966 159.034 287.99 159.449 288.079 159.851C288.34 160.7 289.271 161.167 289.656 161.966C290.041 162.764 289.775 163.787 289.933 164.694C290.057 165.425 290.453 166.082 291.041 166.534C290.82 166.728 290.587 166.905 290.349 167.087C290.569 167.258 290.763 167.461 290.922 167.69C291.031 167.843 291.124 168.007 291.199 168.179C291.565 169.027 291.576 170.036 291.876 170.943C292.003 171.319 292.183 171.717 292.072 172.098C292.025 172.207 291.993 172.323 291.978 172.441C291.978 172.69 292.239 172.853 292.338 173.079C292.375 173.193 292.38 173.315 292.355 173.431C292.33 173.548 292.274 173.657 292.194 173.745Z" fill="url(#paint0_linear_2_106)"/>
<path d="M233.549 65.9543C235.245 65.4983 236.755 64.5447 238.235 63.6022L243.392 60.3271C241.992 60.2165 240.784 59.2215 240.067 58.0165C239.349 56.8114 239.052 55.4101 238.809 54.0337C236.592 54.8961 234.671 56.3581 232.881 57.9031C232.172 58.514 230.665 59.4371 230.446 60.3906C230.227 61.3442 231.623 62.118 232.164 62.7565C232.349 62.9693 234.098 65.8023 233.549 65.9543Z" fill="#FBBEBE"/>
<path opacity="0.1" d="M233.549 65.9543C235.245 65.4983 236.755 64.5447 238.235 63.6022L243.392 60.3271C241.992 60.2165 240.784 59.2215 240.067 58.0165C239.349 56.8114 239.052 55.4101 238.809 54.0337C236.592 54.8961 234.671 56.3581 232.881 57.9031C232.172 58.514 230.665 59.4371 230.446 60.3906C230.227 61.3442 231.623 62.118 232.164 62.7565C232.349 62.9693 234.098 65.8023 233.549 65.9543Z" fill="black"/>
<path d="M205.371 93.0071C204.462 93.4714 203.495 93.9468 202.478 93.8805C201.564 93.8224 200.73 93.3277 200.042 92.7224C199.488 92.2415 198.917 91.6417 198.189 91.6915C197.701 91.7247 197.291 92.0536 196.914 92.3659L194.905 94.0435C194.567 94.2702 194.311 94.5999 194.176 94.9833C194.137 95.2435 194.153 95.5091 194.223 95.7627C194.315 96.2104 194.467 96.7328 194.9 96.8848C195.332 97.0368 195.803 96.7107 196.26 96.5863C196.539 96.5151 196.833 96.5204 197.109 96.6016C197.386 96.6829 197.635 96.837 197.831 97.0479C197.995 97.208 198.093 97.4225 198.108 97.6504C198.108 98.1507 197.554 98.4796 197.044 98.5044C196.534 98.5293 196.047 98.3635 195.542 98.3939C195.512 98.39 195.481 98.3923 195.452 98.4006C195.422 98.4088 195.394 98.4229 195.37 98.442C195.346 98.461 195.326 98.4847 195.312 98.5115C195.297 98.5384 195.288 98.5679 195.285 98.5984C195.253 98.773 195.267 98.9526 195.323 99.1207C195.38 99.2888 195.478 99.44 195.609 99.5602C195.872 99.7999 196.179 99.9875 196.512 100.113C196.9 100.304 197.318 100.426 197.748 100.472C198.599 100.528 199.38 100.058 200.187 99.7841C201.273 99.4193 202.442 99.4082 203.589 99.411C204.737 99.4137 205.9 99.4303 207 99.1097C208.101 98.7891 209.145 98.0788 209.575 97.0202C209.625 96.9215 209.642 96.8087 209.622 96.6996C209.579 96.5832 209.497 96.4854 209.389 96.4232C207.843 95.2818 207.217 93.8943 205.476 93.0734L205.371 93.0071Z" fill="#FBBEBE"/>
<path opacity="0.1" d="M205.371 93.0071C204.462 93.4714 203.495 93.9468 202.478 93.8805C201.564 93.8224 200.73 93.3277 200.042 92.7224C199.488 92.2415 198.917 91.6417 198.189 91.6915C197.701 91.7247 197.291 92.0536 196.914 92.3659L194.905 94.0435C194.567 94.2702 194.311 94.5999 194.176 94.9833C194.137 95.2435 194.153 95.5091 194.223 95.7627C194.315 96.2104 194.467 96.7328 194.9 96.8848C195.332 97.0368 195.803 96.7107 196.26 96.5863C196.539 96.5151 196.833 96.5204 197.109 96.6016C197.386 96.6829 197.635 96.837 197.831 97.0479C197.995 97.208 198.093 97.4225 198.108 97.6504C198.108 98.1507 197.554 98.4796 197.044 98.5044C196.534 98.5293 196.047 98.3635 195.542 98.3939C195.512 98.39 195.481 98.3923 195.452 98.4006C195.422 98.4088 195.394 98.4229 195.37 98.442C195.346 98.461 195.326 98.4847 195.312 98.5115C195.297 98.5384 195.288 98.5679 195.285 98.5984C195.253 98.773 195.267 98.9526 195.323 99.1207C195.38 99.2888 195.478 99.44 195.609 99.5602C195.872 99.7999 196.179 99.9875 196.512 100.113C196.9 100.304 197.318 100.426 197.748 100.472C198.599 100.528 199.38 100.058 200.187 99.7841C201.273 99.4193 202.442 99.4082 203.589 99.411C204.737 99.4137 205.9 99.4303 207 99.1097C208.101 98.7891 209.145 98.0788 209.575 97.0202C209.625 96.9215 209.642 96.8087 209.622 96.6996C209.579 96.5832 209.497 96.4854 209.389 96.4232C207.843 95.2818 207.217 93.8943 205.476 93.0734L205.371 93.0071Z" fill="black"/>
<path d="M237.819 63.5304C237.389 63.2536 236.901 63.079 236.393 63.0201C235.885 62.9611 235.37 63.0194 234.888 63.1904C233.922 63.5373 233.056 64.113 232.363 64.8681C231.672 65.5715 231.073 66.36 230.581 67.2146C230.11 68.0438 229.75 68.9116 229.279 69.738C228.448 71.2167 227.362 72.5213 226.27 73.8148C225.591 74.619 224.904 75.4344 224.034 76.0259C223.164 76.6173 222.191 76.9794 221.601 77.8003C221.415 78.0601 221.282 78.353 221.099 78.6156C220.52 79.4613 219.536 79.9146 218.68 80.4812C216.225 82.1119 214.698 84.826 212.404 86.6751C211.415 87.4711 210.298 88.0957 209.325 88.9083C208.419 89.6628 207.663 90.5666 206.759 91.3405C205.856 92.1144 204.795 92.7528 203.617 92.8247C204.404 94.5742 205.343 96.2906 206.693 97.6532C208.042 99.0157 210.065 99.8864 211.908 99.3529C212.562 99.165 213.202 98.767 213.451 98.1368C213.53 97.813 213.639 97.4973 213.778 97.1944C213.963 96.9511 214.204 96.7551 214.479 96.6222C221.876 92.3154 228.928 87.4429 235.569 82.0483C237.351 80.6001 239.119 79.3038 240.948 77.9025C241.603 77.4386 242.21 76.9089 242.757 76.3216C243.52 75.4131 243.996 74.3 244.126 73.1222C244.257 71.9444 244.035 70.7545 243.489 69.7021C242.998 68.897 242.436 68.1376 241.809 67.433C240.669 65.9522 239.326 64.6385 237.819 63.5304Z" fill="white"/>
<path opacity="0.1" d="M237.819 63.5304C237.389 63.2536 236.901 63.079 236.393 63.0201C235.885 62.9611 235.37 63.0194 234.888 63.1904C233.922 63.5373 233.056 64.113 232.363 64.8681C231.672 65.5715 231.073 66.36 230.581 67.2146C230.11 68.0438 229.75 68.9116 229.279 69.738C228.448 71.2167 227.362 72.5213 226.27 73.8148C225.591 74.619 224.904 75.4344 224.034 76.0259C223.164 76.6173 222.191 76.9794 221.601 77.8003C221.415 78.0601 221.282 78.353 221.099 78.6156C220.52 79.4613 219.536 79.9146 218.68 80.4812C216.225 82.1119 214.698 84.826 212.404 86.6751C211.415 87.4711 210.298 88.0957 209.325 88.9083C208.419 89.6628 207.663 90.5666 206.759 91.3405C205.856 92.1144 204.795 92.7528 203.617 92.8247C204.404 94.5742 205.343 96.2906 206.693 97.6532C208.042 99.0157 210.065 99.8864 211.908 99.3529C212.562 99.165 213.202 98.767 213.451 98.1368C213.53 97.813 213.639 97.4973 213.778 97.1944C213.963 96.9511 214.204 96.7551 214.479 96.6222C221.876 92.3154 228.928 87.4429 235.569 82.0483C237.351 80.6001 239.119 79.3038 240.948 77.9025C241.603 77.4386 242.21 76.9089 242.757 76.3216C243.52 75.4131 243.996 74.3 244.126 73.1222C244.257 71.9444 244.035 70.7545 243.489 69.7021C242.998 68.897 242.436 68.1376 241.809 67.433C240.669 65.9522 239.326 64.6385 237.819 63.5304Z" fill="black"/>
<path d="M225.912 166.062C225.427 166.338 224.832 166.493 224.491 166.941C224.38 167.084 224.305 167.253 224.186 167.391C223.818 167.822 223.164 167.842 222.651 168.088C222.241 168.281 221.908 168.64 221.473 168.754C221.213 168.815 220.945 168.836 220.678 168.815L217.985 168.734C217.131 168.71 216.131 168.754 215.635 169.448C215.474 169.702 215.359 169.982 215.297 170.277C215.089 171.07 214.92 171.968 215.355 172.665C215.876 173.494 217.018 173.662 218.001 173.718C221.801 173.927 225.612 173.854 229.401 173.497C229.914 173.431 230.431 173.41 230.947 173.433C231.357 173.466 231.759 173.557 232.164 173.627C234.206 173.972 236.295 173.77 238.357 173.566C238.705 173.549 239.049 173.476 239.374 173.35C239.536 173.284 239.679 173.18 239.791 173.047C239.904 172.913 239.982 172.755 240.019 172.585C240.105 172.015 239.571 171.532 239.512 170.959C239.471 170.556 239.665 170.105 239.443 169.763C239.36 169.662 239.267 169.569 239.166 169.486C238.795 169.102 238.687 168.541 238.595 168.016L238.11 165.177C238.097 164.977 238.014 164.788 237.877 164.641C237.776 164.568 237.658 164.52 237.534 164.5C235.422 164.025 233.258 164.459 231.161 164.724C230.081 164.882 228.989 164.937 227.899 164.887C227.428 164.857 227.245 164.801 226.893 165.108C226.541 165.415 226.353 165.805 225.912 166.062Z" fill="#3F3D56"/>
<path d="M276.901 169.478C276.531 169.685 276.133 169.84 275.721 169.939C274.633 170.256 273.546 170.587 272.462 170.932C272.173 171.003 271.903 171.133 271.667 171.313C271.29 171.645 271.193 172.187 271.165 172.695C271.129 172.975 271.163 173.26 271.262 173.524C271.392 173.772 271.583 173.983 271.816 174.138C273.058 175.075 274.679 175.365 276.236 175.365C277.793 175.365 279.34 175.102 280.897 175.061C282.778 175.011 284.71 175.277 286.519 174.751C286.865 174.624 287.223 174.537 287.589 174.492C287.832 174.488 288.074 174.504 288.315 174.539C289.285 174.634 290.265 174.545 291.202 174.276C291.484 174.214 291.747 174.084 291.967 173.897C292.076 173.803 292.154 173.678 292.19 173.539C292.227 173.4 292.221 173.253 292.172 173.118C292.072 172.894 291.817 172.731 291.815 172.485C291.828 172.367 291.858 172.251 291.906 172.142C292.02 171.764 291.837 171.368 291.709 170.995C291.352 169.928 291.41 168.701 290.77 167.775C290.13 166.849 288.955 166.468 287.838 166.322C286.931 166.194 286.008 166.22 285.109 166.399C284.097 166.615 283.152 167.065 282.16 167.352C281.009 167.683 279.806 167.796 278.614 167.687C277.821 167.621 278.093 167.745 277.824 168.408C277.633 168.851 277.311 169.224 276.901 169.478Z" fill="#3F3D56"/>
<path d="M232.624 62.1208C237.062 62.1208 240.66 58.5323 240.66 54.1056C240.66 49.6789 237.062 46.0903 232.624 46.0903C228.186 46.0903 224.588 49.6789 224.588 54.1056C224.588 58.5323 228.186 62.1208 232.624 62.1208Z" fill="#FBBEBE"/>
<path d="M290.881 166.612C288.387 168.748 285.02 169.682 281.737 169.716C280.351 169.729 278.913 169.58 277.732 168.864C277.649 168.411 277.616 167.922 277.533 167.469C276.1 167.17 274.989 166.007 274.296 164.719C273.604 163.431 273.252 161.999 272.736 160.634C271.949 158.555 270.797 156.64 269.644 154.738C268.585 152.986 267.524 151.228 266.319 149.573C265.521 148.467 264.656 147.428 263.866 146.325C261.629 143.255 260.023 139.774 259.142 136.082C259.007 135.374 258.815 134.678 258.568 134.001C258.092 132.846 257.219 131.906 256.546 130.853C255.819 129.716 255.322 128.45 255.08 127.124C254.944 126.373 254.711 125.56 253.955 125.483C252.364 128.564 250.743 131.696 248.338 134.203C247.96 134.565 247.614 134.958 247.304 135.38C247.056 135.789 246.834 136.214 246.639 136.651C246.266 137.436 245.77 138.156 245.171 138.785C244.668 139.322 244.005 139.682 243.281 139.813C243.815 142.469 243.497 145.225 242.372 147.69C242.037 148.42 241.635 149.116 241.319 149.854C240.028 152.895 240.327 156.325 240.191 159.622C240.179 160.313 240.098 161.001 239.947 161.676C239.612 163.024 238.919 164.459 239.255 165.808C235.78 167.131 231.92 167.048 228.24 166.49C227.52 166.425 226.822 166.213 226.187 165.868C225.665 165.5 225.209 165.046 224.84 164.525C224.698 164.373 224.592 164.191 224.532 163.992C224.388 163.361 225.087 162.886 225.411 162.333C225.735 161.781 225.793 160.904 225.347 160.451C225.569 156.833 226.572 153.301 226.794 149.672C226.882 148.235 226.846 146.792 226.913 145.352C226.979 143.912 227.134 142.511 227.295 141.096C227.661 137.865 228.548 134.697 228.423 131.45C228.385 130.45 228.615 129.459 229.091 128.578C229.491 127.909 229.945 127.273 230.448 126.677C232.15 124.485 234.195 122.288 234.802 119.582C235.115 118.186 235.808 116.909 236.495 115.654C236.902 114.905 237.326 114.14 237.974 113.59C238.327 113.346 238.655 113.068 238.953 112.76C239.407 112.177 239.424 111.379 239.692 110.682C239.831 110.323 240.044 109.991 240.147 109.621C240.231 109.212 240.273 108.795 240.272 108.377C240.36 107.039 240.876 105.746 241.419 104.521C240.141 103.784 239.014 102.815 238.094 101.664C237.785 101.29 237.515 100.885 237.29 100.456C236.719 99.3336 236.589 98.0539 236.32 96.824C235.68 93.8888 234.209 91.1277 234.004 88.1289C233.943 87.214 234.004 86.2688 233.685 85.4037C233.538 85.0376 233.366 84.682 233.17 84.3396C232.976 84.0032 232.829 83.6425 232.732 83.2672C232.554 82.4519 232.798 81.6089 232.732 80.7797C232.665 80.0473 232.352 79.3618 232.197 78.646C232.039 77.7146 232.011 76.7657 232.117 75.8268C232.186 74.7213 232.427 73.5798 232.333 72.4881C232.18 70.6816 232.411 68.8632 233.01 67.1517C233.609 65.4401 234.563 63.8737 235.81 62.5547L235.874 62.4912C236.403 61.9384 236.982 61.4492 237.459 60.8632C238.107 60.0783 238.567 59.1552 239.252 58.3923C239.551 58.0524 239.889 57.7484 240.186 57.4056C240.458 57.0462 240.759 56.7097 241.086 56.3996C241.252 56.2462 241.453 56.1355 241.671 56.0772C241.889 56.0189 242.118 56.0148 242.339 56.0652C242.394 56.4773 242.524 56.8762 242.721 57.2426C243.297 57.2868 243.81 57.3669 244.384 57.4112C244.65 57.4238 244.913 57.4645 245.171 57.5328C245.711 57.6958 246.143 58.0855 246.606 58.42C247.759 59.2298 249.175 59.6057 250.308 60.4404C251.971 61.6703 252.802 63.7017 253.805 65.5231C255.132 67.9636 257.296 70.0393 258.239 72.6484L259.538 76.1972C260.389 78.5133 261.24 80.8378 262.392 83.0212C263.997 86.0615 266.169 88.8005 267.458 91.9817C267.586 92.3008 267.825 92.5634 268.131 92.7224C269.885 95.1768 271.445 97.7643 272.795 100.461C273.507 101.887 274.18 103.369 274.385 104.947C274.687 107.177 274.078 109.433 273.23 111.517C273.093 111.815 272.999 112.132 272.952 112.456C272.897 112.984 273.099 113.504 273.155 114.032C273.208 114.525 273.135 115.023 272.941 115.48C272.769 115.801 272.624 116.136 272.506 116.481C272.357 117.116 272.623 117.763 272.767 118.399C273.255 120.552 273.166 122.782 273.044 124.988C272.98 126.093 273.875 126.97 274.621 127.779C276.006 129.297 277.087 131.071 278.131 132.843C278.699 133.741 279.178 134.693 279.561 135.684C279.958 136.814 280.116 138.011 280.334 139.186C281.038 142.809 283.344 146.013 283.97 149.647C284.26 151.312 284.999 152.867 286.109 154.144C286.443 154.489 286.752 154.859 287.032 155.25C287.223 155.56 287.376 155.892 287.486 156.239C287.759 157.046 287.887 157.894 287.866 158.746C287.822 159.153 287.845 159.565 287.935 159.965C288.196 160.808 289.127 161.272 289.509 162.065C289.892 162.858 289.628 163.876 289.786 164.777C289.906 165.504 290.297 166.16 290.881 166.612Z" fill="#E3E3E3"/>
<path d="M207.034 90.5196C206.125 90.984 205.158 91.4593 204.141 91.393C203.226 91.335 202.392 90.8402 201.705 90.2349C201.151 89.754 200.58 89.1543 199.851 89.204C199.364 89.2372 198.954 89.5661 198.577 89.8784L196.568 91.5561C196.23 91.7828 195.974 92.1124 195.839 92.4958C195.799 92.756 195.815 93.0216 195.886 93.2752C195.977 93.7229 196.13 94.2453 196.562 94.3973C196.994 94.5493 197.466 94.2232 197.923 94.0988C198.202 94.0276 198.495 94.0329 198.772 94.1141C199.048 94.1954 199.298 94.3496 199.494 94.5604C199.657 94.7206 199.756 94.935 199.771 95.1629C199.771 95.6632 199.217 95.9921 198.707 96.017C198.197 96.0418 197.709 95.876 197.205 95.9064C197.175 95.9026 197.144 95.9048 197.114 95.9131C197.085 95.9214 197.057 95.9354 197.033 95.9545C197.009 95.9735 196.989 95.9972 196.974 96.0241C196.96 96.0509 196.95 96.0805 196.947 96.1109C196.916 96.2855 196.929 96.4651 196.986 96.6332C197.043 96.8013 197.141 96.9525 197.272 97.0728C197.535 97.3124 197.841 97.5 198.175 97.6255C198.562 97.8167 198.981 97.9383 199.411 97.9848C200.261 98.0401 201.043 97.5703 201.849 97.2966C202.935 96.9318 204.105 96.9207 205.252 96.9235C206.399 96.9263 207.563 96.9429 208.663 96.6222C209.763 96.3016 210.808 95.5913 211.237 94.5328C211.288 94.434 211.305 94.3213 211.284 94.2121C211.242 94.0957 211.159 93.9979 211.052 93.9358C209.505 92.7943 208.879 91.4068 207.139 90.5859L207.034 90.5196Z" fill="#FBBEBE"/>
<path d="M228.714 49.1803C228.234 49.2577 227.827 49.5811 227.373 49.7608C227.068 49.8789 226.741 49.9312 226.414 49.914C226.088 49.8969 225.768 49.8107 225.477 49.6613C225.274 49.5629 225.097 49.4192 224.959 49.2412C224.588 48.7271 224.718 47.9808 224.945 47.3783C226.02 44.5288 228.891 42.7654 231.734 42.6521C234.577 42.5388 237.343 43.8627 239.584 45.7559C240.251 46.3022 240.849 46.9267 241.366 47.616C242.535 49.2329 243.065 51.2975 243.22 53.3427C243.313 54.201 243.256 55.0688 243.051 55.9076C242.952 56.3152 242.773 56.6988 242.522 57.0355C242.272 57.3722 241.956 57.6551 241.593 57.8672C240.801 58.2707 239.85 58.1436 239.05 57.7566C238.249 57.3697 237.562 56.7589 236.874 56.1757C236.563 55.8763 236.195 55.6423 235.791 55.4875C235.59 55.416 235.372 55.404 235.164 55.453C234.956 55.5021 234.767 55.61 234.619 55.7639C234.247 56.2089 234.342 56.9385 234.004 57.4222C233.666 57.9059 232.962 57.975 232.369 57.975C231.776 57.975 231.174 57.9252 230.82 57.4554C230.496 57.0297 230.543 56.4079 230.665 55.8717C230.787 55.3355 230.994 54.8048 230.942 54.2548C230.828 53.1493 229.858 52.4694 229.556 51.4523C229.359 50.7862 229.792 50.5042 229.747 49.9017C229.714 49.3711 229.143 49.1112 228.714 49.1803Z" fill="#3F3D56"/>
<path opacity="0.1" d="M253.96 125.414V125.483C252.37 128.564 250.749 131.696 248.343 134.203C247.965 134.565 247.62 134.959 247.31 135.38C247.061 135.789 246.839 136.214 246.645 136.651C246.272 137.436 245.776 138.156 245.176 138.785L243.17 139.786L249.543 106.619L253.96 125.414Z" fill="black"/>
<path opacity="0.1" d="M244.697 75.2161C244.149 75.8033 243.543 76.3331 242.887 76.797C241.059 78.1789 239.285 79.4835 237.509 80.9428C236.077 82.1055 234.625 83.2442 233.153 84.3589C232.96 84.0225 232.813 83.6619 232.715 83.2866C232.538 82.4712 232.782 81.6282 232.715 80.7991C232.649 80.0666 232.336 79.3812 232.18 78.6654C232.022 77.734 231.995 76.7851 232.1 75.8462C232.169 74.7407 232.41 73.5992 232.316 72.5075C232.163 70.6966 232.395 68.8739 232.997 67.1587C233.599 65.4435 234.558 63.8746 235.81 62.5547L235.874 62.4912C236.172 62.3182 236.488 62.1774 236.816 62.0711C237.299 61.9021 237.815 61.8461 238.323 61.9074C238.832 61.9688 239.319 62.1458 239.748 62.4248C241.255 63.533 242.598 64.8467 243.738 66.3274C244.365 67.032 244.927 67.7915 245.417 68.5966C245.965 69.6479 246.189 70.8372 246.06 72.0149C245.932 73.1927 245.458 74.3064 244.697 75.2161Z" fill="black"/>
<path d="M239.482 61.0429C239.052 60.7661 238.564 60.5916 238.056 60.5326C237.547 60.4737 237.032 60.532 236.55 60.703C235.585 61.0498 234.718 61.6256 234.026 62.3806C233.334 63.084 232.736 63.8726 232.244 64.7272C231.773 65.5563 231.413 66.4242 230.942 67.2506C230.11 68.7292 229.024 70.0338 227.932 71.3273C227.254 72.1316 226.566 72.9469 225.696 73.5384C224.826 74.1298 223.854 74.4919 223.263 75.3128C223.078 75.5726 222.945 75.8656 222.762 76.1281C222.183 76.9739 221.199 77.4271 220.343 77.9937C217.888 79.6244 216.361 82.3386 214.066 84.1876C213.077 84.9836 211.961 85.6082 210.988 86.4208C210.082 87.1753 209.325 88.0791 208.422 88.853C207.519 89.6269 206.457 90.2653 205.28 90.3372C206.067 92.0867 207.006 93.8031 208.355 95.1657C209.705 96.5283 211.728 97.3989 213.57 96.8655C214.224 96.6775 214.864 96.2795 215.114 95.6494C215.192 95.3255 215.302 95.0099 215.441 94.7069C215.626 94.4637 215.866 94.2676 216.142 94.1348C223.539 89.828 230.59 84.9554 237.232 79.5609C239.014 78.1126 240.781 76.8163 242.61 75.4151C243.266 74.9512 243.872 74.4214 244.42 73.8341C245.182 72.9256 245.659 71.8125 245.789 70.6347C245.919 69.4569 245.697 68.267 245.151 67.2146C244.661 66.4095 244.099 65.6501 243.472 64.9455C242.332 63.4647 240.989 62.151 239.482 61.0429Z" fill="#E3E3E3"/>
<g opacity="0.1">
<path d="M232.923 56.8612C232.369 56.8612 231.729 56.8114 231.374 56.3416C231.053 55.9159 231.097 55.294 231.219 54.7579C231.341 54.2217 231.549 53.691 231.496 53.141C231.382 52.0354 230.412 51.3555 230.11 50.3384C229.914 49.6723 230.346 49.3904 230.302 48.7879C230.263 48.2655 229.695 48.0057 229.265 48.0748C228.786 48.1522 228.379 48.4756 227.924 48.6552C227.619 48.7734 227.292 48.8257 226.966 48.8085C226.639 48.7914 226.32 48.7052 226.029 48.5557C225.826 48.4574 225.649 48.3136 225.511 48.1356C225.139 47.6215 225.27 46.8753 225.497 46.2728C225.497 46.2507 225.516 46.2313 225.524 46.2092C225.293 46.579 225.098 46.9706 224.943 47.3783C224.715 47.9808 224.585 48.7271 224.956 49.2412C225.094 49.4192 225.272 49.5629 225.475 49.6613C225.765 49.8107 226.085 49.8969 226.412 49.9141C226.738 49.9312 227.065 49.879 227.37 49.7608C227.824 49.5811 228.232 49.2577 228.711 49.1804C229.141 49.1113 229.709 49.3711 229.747 49.8934C229.792 50.496 229.359 50.7779 229.556 51.444C229.853 52.4611 230.823 53.1521 230.942 54.2465C230.997 54.7993 230.795 55.33 230.665 55.8634C230.534 56.3968 230.498 57.0215 230.82 57.4471C231.174 57.917 231.809 57.9612 232.369 57.9667C232.929 57.9722 233.649 57.9335 234.004 57.4139C234.157 57.153 234.257 56.8648 234.3 56.5654C233.923 56.8335 233.397 56.8667 232.923 56.8612Z" fill="black"/>
<path d="M242.148 56.7617C241.355 57.1652 240.405 57.0381 239.604 56.6511C238.803 56.2642 238.116 55.6534 237.429 55.0702C237.117 54.7708 236.749 54.5367 236.345 54.382C236.144 54.3104 235.926 54.2985 235.718 54.3475C235.51 54.3965 235.321 54.5045 235.173 54.6584C234.985 54.9358 234.866 55.2543 234.827 55.587C234.971 55.5023 235.131 55.4494 235.298 55.4318C235.464 55.4141 235.632 55.4322 235.791 55.4848C236.195 55.6395 236.563 55.8735 236.874 56.173C237.562 56.7561 238.26 57.3697 239.05 57.7539C239.839 58.1381 240.801 58.268 241.593 57.8645C242.294 57.4553 242.805 56.7869 243.015 56.0044C242.787 56.3192 242.491 56.5782 242.148 56.7617Z" fill="black"/>
</g>
<path d="M173.186 175.578C177.777 175.578 181.499 171.866 181.499 167.286C181.499 162.707 177.777 158.995 173.186 158.995C168.595 158.995 164.873 162.707 164.873 167.286C164.873 171.866 168.595 175.578 173.186 175.578Z" fill="#3F3D56"/>
<path opacity="0.1" d="M173.186 175.578C177.777 175.578 181.499 171.866 181.499 167.286C181.499 162.707 177.777 158.995 173.186 158.995C168.595 158.995 164.873 162.707 164.873 167.286C164.873 171.866 168.595 175.578 173.186 175.578Z" fill="black"/>
<path d="M173.186 172.538C176.094 172.538 178.451 170.186 178.451 167.286C178.451 164.386 176.094 162.035 173.186 162.035C170.278 162.035 167.921 164.386 167.921 167.286C167.921 170.186 170.278 172.538 173.186 172.538Z" fill="#65617D"/>
<path opacity="0.1" d="M173.186 172.538C176.094 172.538 178.451 170.186 178.451 167.286C178.451 164.386 176.094 162.035 173.186 162.035C170.278 162.035 167.921 164.386 167.921 167.286C167.921 170.186 170.278 172.538 173.186 172.538Z" fill="black"/>
<path d="M166.813 154.296L172.266 166.595C172.347 166.78 172.48 166.937 172.648 167.049C172.816 167.161 173.012 167.222 173.214 167.226C173.416 167.23 173.615 167.177 173.787 167.072C173.959 166.967 174.098 166.815 174.186 166.634L180.668 153.467L166.813 154.296Z" fill="#3F3D56"/>
<path opacity="0.1" d="M166.813 154.296L172.266 166.595C172.347 166.78 172.48 166.937 172.648 167.049C172.816 167.161 173.012 167.222 173.214 167.226C173.416 167.23 173.615 167.177 173.787 167.072C173.959 166.967 174.098 166.815 174.186 166.634L180.668 153.467L166.813 154.296Z" fill="black"/>
<path d="M121.369 175.578C125.96 175.578 129.682 171.866 129.682 167.286C129.682 162.707 125.96 158.995 121.369 158.995C116.778 158.995 113.056 162.707 113.056 167.286C113.056 171.866 116.778 175.578 121.369 175.578Z" fill="#3F3D56"/>
<path opacity="0.1" d="M121.369 175.578C125.96 175.578 129.682 171.866 129.682 167.286C129.682 162.707 125.96 158.995 121.369 158.995C116.778 158.995 113.056 162.707 113.056 167.286C113.056 171.866 116.778 175.578 121.369 175.578Z" fill="black"/>
<path d="M121.369 172.538C124.277 172.538 126.634 170.186 126.634 167.286C126.634 164.386 124.277 162.035 121.369 162.035C118.461 162.035 116.104 164.386 116.104 167.286C116.104 170.186 118.461 172.538 121.369 172.538Z" fill="#65617D"/>
<path opacity="0.1" d="M121.369 172.538C124.277 172.538 126.634 170.186 126.634 167.286C126.634 164.386 124.277 162.035 121.369 162.035C118.461 162.035 116.104 164.386 116.104 167.286C116.104 170.186 118.461 172.538 121.369 172.538Z" fill="black"/>
<path d="M114.996 154.296L120.449 166.595C120.53 166.78 120.662 166.937 120.83 167.049C120.998 167.161 121.195 167.222 121.397 167.226C121.599 167.23 121.797 167.177 121.97 167.072C122.142 166.967 122.281 166.815 122.369 166.634L128.851 153.467L114.996 154.296Z" fill="#3F3D56"/>
<path opacity="0.1" d="M114.996 154.296L120.449 166.595C120.53 166.78 120.662 166.937 120.83 167.049C120.998 167.161 121.195 167.222 121.397 167.226C121.599 167.23 121.797 167.177 121.97 167.072C122.142 166.967 122.281 166.815 122.369 166.634L128.851 153.467L114.996 154.296Z" fill="black"/>
<path d="M200.164 95.08C200.142 94.8706 200.067 94.6703 199.946 94.4975C199.825 94.3246 199.663 94.1846 199.474 94.0905C199.315 94.0229 199.144 93.9879 198.972 93.9876C198.799 93.9873 198.627 94.0217 198.468 94.0888C198.309 94.1558 198.165 94.2542 198.044 94.3779C197.924 94.5017 197.83 94.6483 197.768 94.8091L192.999 106.619L191.613 159.686H193.83L194.661 106.732L200.048 95.8815C200.171 95.6333 200.211 95.3527 200.164 95.08Z" fill="#3F3D56"/>
<path d="M102.111 155.54L109.592 150.841L190.366 150.15L192.444 155.54H102.111Z" fill="white"/>
<path d="M102.111 160.515V155.54L193.908 154.655L193.819 158.027H103.773V160.515H102.111Z" fill="#3F3D56"/>
<path d="M113.749 178.48C118.34 178.48 122.062 174.768 122.062 170.188C122.062 165.609 118.34 161.897 113.749 161.897C109.158 161.897 105.436 165.609 105.436 170.188C105.436 174.768 109.158 178.48 113.749 178.48Z" fill="#3F3D56"/>
<path d="M113.749 175.44C116.656 175.44 119.014 173.088 119.014 170.188C119.014 167.288 116.656 164.937 113.749 164.937C110.841 164.937 108.484 167.288 108.484 170.188C108.484 173.088 110.841 175.44 113.749 175.44Z" fill="#65617D"/>
<path d="M107.375 157.198L112.829 169.497C112.91 169.682 113.042 169.839 113.21 169.951C113.378 170.063 113.575 170.124 113.776 170.128C113.978 170.132 114.177 170.079 114.349 169.974C114.522 169.869 114.66 169.717 114.749 169.536L121.23 156.369L107.375 157.198Z" fill="#3F3D56"/>
<path d="M178.313 178.48C182.904 178.48 186.625 174.768 186.625 170.188C186.625 165.609 182.904 161.897 178.313 161.897C173.721 161.897 170 165.609 170 170.188C170 174.768 173.721 178.48 178.313 178.48Z" fill="#3F3D56"/>
<path d="M178.313 175.44C181.22 175.44 183.577 173.088 183.577 170.188C183.577 167.288 181.22 164.937 178.313 164.937C175.405 164.937 173.048 167.288 173.048 170.188C173.048 173.088 175.405 175.44 178.313 175.44Z" fill="#65617D"/>
<path d="M171.939 157.198L177.393 169.497C177.474 169.682 177.606 169.839 177.774 169.951C177.942 170.063 178.138 170.124 178.34 170.128C178.542 170.132 178.741 170.079 178.913 169.974C179.086 169.869 179.224 169.717 179.313 169.536L185.794 156.369L171.939 157.198Z" fill="#3F3D56"/>
<path d="M147.139 133.843H112.502V152.914H147.139V133.843Z" fill="#65617D"/>
<path opacity="0.1" d="M135.224 137.16H124.694V139.371H135.224V137.16Z" fill="black"/>
<path opacity="0.1" d="M133.908 137.436H126.01V139.095H133.908V137.436Z" fill="black"/>
<path d="M182.33 133.843H147.693V152.914H182.33V133.843Z" fill="#65617D"/>
<path opacity="0.1" d="M170.415 137.16H159.885V139.371H170.415V137.16Z" fill="black"/>
<path opacity="0.1" d="M169.099 137.436H161.202V139.095H169.099V137.436Z" fill="black"/>
<path d="M147.139 114.22H112.502V133.291H147.139V114.22Z" fill="#65617D"/>
<path opacity="0.1" d="M135.224 117.536H124.694V119.748H135.224V117.536Z" fill="black"/>
<path opacity="0.1" d="M133.908 117.813H126.01V119.471H133.908V117.813Z" fill="black"/>
<path d="M182.33 114.22H147.693V133.291H182.33V114.22Z" fill="#65617D"/>
<path opacity="0.1" d="M170.415 117.536H159.885V119.748H170.415V117.536Z" fill="black"/>
<path opacity="0.1" d="M169.099 117.813H161.202V119.471H169.099V117.813Z" fill="black"/>
<path d="M147.139 94.3199H112.502V113.391H147.139V94.3199Z" fill="#65617D"/>
<path opacity="0.1" d="M135.224 97.6366H124.694V99.8477H135.224V97.6366Z" fill="black"/>
<path opacity="0.1" d="M133.908 97.913H126.01V99.5713H133.908V97.913Z" fill="black"/>
<path d="M182.33 94.3199H147.693V113.391H182.33V94.3199Z" fill="#65617D"/>
<path opacity="0.1" d="M170.415 97.6366H159.885V99.8477H170.415V97.6366Z" fill="black"/>
<path opacity="0.1" d="M169.099 97.913H161.202V99.5713H169.099V97.913Z" fill="black"/>
<path d="M182.33 74.42H147.693V93.4908H182.33V74.42Z" fill="#65617D"/>
<path opacity="0.1" d="M170.415 77.7367H159.885V79.9478H170.415V77.7367Z" fill="black"/>
<path opacity="0.1" d="M169.099 78.0131H161.202V79.6714H169.099V78.0131Z" fill="black"/>
</g>
<defs>
<linearGradient id="paint0_linear_2_106" x1="243.245" y1="175.34" x2="243.245" y2="41.8063" gradientUnits="userSpaceOnUse">
<stop stop-color="#808080" stop-opacity="0.25"/>
<stop offset="0.54" stop-color="#808080" stop-opacity="0.12"/>
<stop offset="1" stop-color="#808080" stop-opacity="0.1"/>
</linearGradient>
<clipPath id="clip0_2_106">
<rect width="317" height="180" fill="white"/>
</clipPath>
</defs>
</svg>
