<svg width="393" height="323" viewBox="0 0 393 323" fill="none" xmlns="http://www.w3.org/2000/svg">
<path d="M-8.64663 100.825C-10.3056 100.818 -11.9194 100.284 -13.2545 99.299L-24.3586 91.2328C-25.2799 90.5601 -26.3912 90.1976 -27.532 90.1976C-28.6728 90.1976 -29.7841 90.5601 -30.7054 91.2328L-41.8095 99.299C-43.1487 100.272 -44.7614 100.796 -46.4167 100.796C-48.072 100.796 -49.6849 100.272 -51.0241 99.2993C-52.3633 98.3266 -53.3602 96.955 -53.8719 95.381C-54.3836 93.807 -54.3837 92.1114 -53.8724 90.5373L-49.6309 77.4858C-49.2763 76.4015 -49.2752 75.2327 -49.6276 74.1478C-49.9801 73.0629 -50.668 72.1178 -51.5921 71.4489L-62.6962 63.3826C-64.0353 62.4097 -65.032 61.0379 -65.5434 59.4638C-66.0549 57.8897 -66.0548 56.1941 -65.5432 54.62C-65.0317 53.0459 -64.0349 51.6742 -62.6957 50.7014C-61.3565 49.7286 -59.7437 49.2046 -58.0884 49.2045H-44.3632C-43.2226 49.2066 -42.1107 48.8465 -41.1879 48.1761C-40.2651 47.5058 -39.5789 46.5598 -39.2284 45.4745L-34.9868 32.423C-34.4755 30.8487 -33.4787 29.4767 -32.1394 28.5036C-30.8002 27.5306 -29.1872 27.0065 -27.5317 27.0065C-25.8762 27.0065 -24.2632 27.5306 -22.9239 28.5036C-21.5847 29.4767 -20.5879 30.8487 -20.0765 32.423L-15.8356 45.4745C-15.4849 46.5598 -14.7986 47.5058 -13.8757 48.1762C-12.9528 48.8465 -11.8409 49.2066 -10.7001 49.2045H3.02503C4.68035 49.2046 6.29317 49.7286 7.63236 50.7014C8.97154 51.6742 9.96834 53.046 10.4799 54.62C10.9915 56.1941 10.9915 57.8897 10.4801 59.4638C9.96866 61.0379 8.97196 62.4097 7.63285 63.3826L-3.47126 71.4489C-4.39557 72.1177 -5.08361 73.0627 -5.43618 74.1476C-5.78875 75.2326 -5.78764 76.4015 -5.43302 77.4858L-1.19149 90.5373C-0.661285 92.1098 -0.651978 93.8113 -1.16496 95.3895C-1.67795 96.9677 -2.68592 98.3386 -4.03943 99.299C-5.3743 100.284 -6.98788 100.818 -8.64663 100.825Z" fill="white"/>
<path d="M103.876 100.825C102.218 100.818 100.604 100.284 99.2691 99.299L88.1649 91.2328C87.2428 90.5617 86.1317 90.2002 84.9912 90.2002C83.8507 90.2002 82.7396 90.5617 81.8175 91.2328L70.7134 99.299C69.3743 100.272 67.7615 100.796 66.1062 100.796C64.4509 100.796 62.8381 100.272 61.4989 99.2994C60.1597 98.3266 59.1629 96.955 58.6513 95.3809C58.1397 93.8069 58.1396 92.1114 58.651 90.5373L62.892 77.4858C63.2466 76.4015 63.2477 75.2327 62.8953 74.1478C62.5428 73.0629 61.855 72.1178 60.9308 71.4489L49.8267 63.3826C48.4876 62.4097 47.4909 61.0379 46.9795 59.4638C46.468 57.8897 46.4681 56.1941 46.9796 54.62C47.4912 53.046 48.488 51.6742 49.8272 50.7014C51.1664 49.7286 52.7792 49.2046 54.4345 49.2045H68.1597C69.3003 49.2066 70.4122 48.8465 71.3351 48.1762C72.2579 47.5058 72.944 46.5598 73.2946 45.4745L77.5361 32.423C78.0475 30.8487 79.0443 29.4767 80.3835 28.5036C81.7228 27.5306 83.3358 27.0065 84.9913 27.0065C86.6468 27.0065 88.2598 27.5306 89.599 28.5036C90.9383 29.4767 91.935 30.8487 92.4464 32.423L96.688 45.4745C97.0385 46.5598 97.7247 47.5058 98.6475 48.1761C99.5703 48.8465 100.682 49.2066 101.823 49.2045H115.548C117.203 49.2046 118.816 49.7286 120.155 50.7014C121.494 51.6742 122.491 53.046 123.003 54.62C123.514 56.1941 123.514 57.8897 123.003 59.4638C122.492 61.0379 121.495 62.4097 120.156 63.3826L109.052 71.4489C108.127 72.1178 107.44 73.0629 107.087 74.1478C106.735 75.2327 106.736 76.4015 107.09 77.4858L111.331 90.5373C111.862 92.1097 111.871 93.8112 111.358 95.3893C110.845 96.9675 109.837 98.3385 108.484 99.299C107.149 100.284 105.535 100.818 103.876 100.825Z" fill="white"/>
<path d="M177.65 101.278C175.829 101.271 174.057 100.685 172.59 99.6043C171.103 98.549 169.996 97.0428 169.432 95.3089C168.869 93.575 168.879 91.7057 169.461 89.978L173.703 76.9268C174.007 75.9977 174.008 74.9961 173.706 74.0665C173.403 73.1369 172.814 72.3272 172.022 71.754L160.918 63.687C159.447 62.6183 158.352 61.1115 157.79 59.3824C157.228 57.6533 157.228 55.7907 157.79 54.0616C158.352 52.3325 159.447 50.8257 160.918 49.7571C162.389 48.6885 164.16 48.113 165.979 48.1131H179.704C180.682 48.1149 181.635 47.8062 182.426 47.2315C183.217 46.6569 183.805 45.8459 184.105 44.9156L188.347 31.8644C188.909 30.1354 190.004 28.6286 191.475 27.56C192.946 26.4914 194.718 25.9158 196.536 25.9158C198.354 25.9158 200.126 26.4914 201.597 27.56C203.068 28.6286 204.163 30.1354 204.725 31.8644L208.966 44.9156C209.266 45.8459 209.854 46.6568 210.645 47.2315C211.436 47.8061 212.389 48.1148 213.367 48.1131H227.092C228.911 48.1131 230.682 48.6887 232.153 49.7573C233.624 50.8259 234.719 52.3327 235.281 54.0618C235.843 55.7908 235.843 57.6533 235.281 59.3824C234.719 61.1114 233.625 62.6183 232.154 63.687L221.05 71.754C220.257 72.3269 219.668 73.1366 219.365 74.0663C219.063 74.996 219.064 75.9976 219.368 76.9268L223.61 89.978C224.171 91.7071 224.171 93.5697 223.609 95.2988C223.047 97.0278 221.952 98.5346 220.481 99.6033C219.01 100.672 217.239 101.247 215.42 101.247C213.602 101.247 211.83 100.672 210.359 99.6033L199.256 91.5373C198.466 90.9612 197.513 90.6507 196.535 90.6507C195.558 90.6507 194.605 90.9612 193.815 91.5373L182.711 99.6033C181.245 100.685 179.472 101.271 177.65 101.278ZM196.536 86.6668C198.354 86.6671 200.126 87.2444 201.596 88.3156L212.7 96.3816C213.491 96.9562 214.443 97.2658 215.42 97.2659C216.398 97.2661 217.35 96.9568 218.141 96.3824C218.931 95.8081 219.52 94.9981 219.822 94.0687C220.124 93.1393 220.124 92.1381 219.822 91.2087L215.58 78.1576C215.015 76.4287 215.013 74.565 215.576 72.8351C216.138 71.1052 217.235 69.5985 218.709 68.5322L229.812 60.4653C230.603 59.8909 231.192 59.0811 231.494 58.1518C231.795 57.2225 231.795 56.2215 231.494 55.2922C231.192 54.363 230.603 53.5531 229.812 52.9788C229.022 52.4044 228.07 52.0951 227.092 52.095H213.367C211.548 52.0984 209.775 51.5241 208.303 50.455C206.831 49.386 205.737 47.8772 205.178 46.1464L200.937 33.0952C200.635 32.1658 200.046 31.3559 199.256 30.7815C198.465 30.2071 197.513 29.8978 196.535 29.8978C195.558 29.8978 194.606 30.2071 193.815 30.7815C193.025 31.3559 192.436 32.1658 192.134 33.0952L187.892 46.1464C187.334 47.8773 186.24 49.386 184.768 50.4551C183.296 51.5242 181.523 52.0985 179.704 52.095H165.979C165.002 52.095 164.049 52.4042 163.259 52.9785C162.468 53.5528 161.88 54.3627 161.577 55.292C161.275 56.2213 161.275 57.2224 161.577 58.1517C161.879 59.081 162.468 59.8909 163.258 60.4653L174.363 68.5322C175.837 69.5987 176.933 71.1055 177.496 72.8353C178.058 74.5651 178.056 76.4287 177.491 78.1576L173.249 91.2088C172.947 92.1381 172.947 93.1391 173.249 94.0685C173.551 94.9978 174.139 95.8076 174.93 96.3819C175.721 96.9563 176.673 97.2655 177.65 97.2655C178.628 97.2654 179.58 96.956 180.37 96.3816L191.475 88.3156C192.945 87.2445 194.717 86.6672 196.536 86.6668Z" fill="#DFDFDF"/>
<path d="M267.988 192.741C266.166 192.734 264.394 192.147 262.927 191.067C261.44 190.012 260.333 188.505 259.77 186.772C259.206 185.038 259.216 183.168 259.798 181.441L264.041 168.389C264.344 167.46 264.345 166.459 264.043 165.529C263.741 164.6 263.151 163.79 262.359 163.217L251.255 155.15C249.784 154.081 248.689 152.574 248.127 150.845C247.565 149.116 247.565 147.253 248.127 145.524C248.689 143.795 249.784 142.288 251.255 141.22C252.726 140.151 254.498 139.576 256.316 139.576H270.042C271.019 139.577 271.972 139.269 272.763 138.694C273.554 138.12 274.142 137.309 274.442 136.378L278.684 123.327C279.246 121.598 280.341 120.091 281.812 119.023C283.283 117.954 285.055 117.378 286.873 117.378C288.691 117.378 290.463 117.954 291.934 119.023C293.405 120.091 294.5 121.598 295.062 123.327L299.303 136.378C299.604 137.309 300.192 138.119 300.983 138.694C301.774 139.269 302.727 139.577 303.704 139.576H317.43C319.248 139.576 321.02 140.151 322.491 141.22C323.962 142.289 325.056 143.795 325.618 145.524C326.18 147.253 326.18 149.116 325.619 150.845C325.057 152.574 323.962 154.081 322.491 155.15L311.387 163.217C310.595 163.79 310.005 164.599 309.703 165.529C309.4 166.459 309.401 167.46 309.705 168.389L313.947 181.441C314.509 183.17 314.509 185.032 313.947 186.761C313.385 188.49 312.29 189.997 310.819 191.066C309.348 192.135 307.576 192.71 305.758 192.71C303.939 192.71 302.168 192.135 300.697 191.066L289.593 183C288.803 182.424 287.85 182.113 286.873 182.113C285.895 182.113 284.942 182.424 284.152 183L273.048 191.066C271.582 192.147 269.81 192.734 267.988 192.741ZM286.873 178.129C288.692 178.13 290.464 178.707 291.933 179.778L303.037 187.844C303.828 188.419 304.78 188.728 305.758 188.729C306.735 188.729 307.687 188.419 308.478 187.845C309.269 187.271 309.857 186.461 310.159 185.531C310.461 184.602 310.461 183.601 310.159 182.671L305.918 169.62C305.352 167.891 305.351 166.028 305.913 164.298C306.475 162.568 307.572 161.061 309.046 159.995L320.15 151.928C320.94 151.354 321.529 150.544 321.831 149.614C322.133 148.685 322.133 147.684 321.831 146.755C321.529 145.826 320.94 145.016 320.15 144.441C319.359 143.867 318.407 143.558 317.43 143.558H303.704C301.885 143.561 300.112 142.987 298.64 141.918C297.169 140.849 296.075 139.34 295.516 137.609L291.274 124.558C290.972 123.628 290.384 122.818 289.593 122.244C288.802 121.67 287.85 121.36 286.873 121.36C285.895 121.36 284.943 121.67 284.152 122.244C283.362 122.818 282.773 123.628 282.471 124.558L278.23 137.609C277.671 139.34 276.577 140.849 275.105 141.918C273.634 142.987 271.861 143.561 270.042 143.558H256.316C255.339 143.558 254.387 143.867 253.596 144.441C252.805 145.015 252.217 145.825 251.915 146.755C251.613 147.684 251.613 148.685 251.915 149.614C252.217 150.544 252.805 151.354 253.596 151.928L264.7 159.995C266.174 161.061 267.271 162.568 267.833 164.298C268.395 166.028 268.393 167.891 267.828 169.62L263.586 182.671C263.284 183.601 263.284 184.602 263.586 185.531C263.888 186.46 264.477 187.27 265.267 187.845C266.058 188.419 267.01 188.728 267.988 188.728C268.965 188.728 269.917 188.419 270.708 187.844L281.812 179.778C283.282 178.707 285.054 178.13 286.873 178.129Z" fill="#F0F0F0"/>
<path d="M228.968 246.341H-115.329C-116.833 246.339 -118.274 245.741 -119.337 244.678C-120.4 243.615 -120.998 242.174 -121 240.671V137.806C-120.998 136.303 -120.4 134.862 -119.337 133.799C-118.274 132.736 -116.833 132.138 -115.329 132.136H228.968C230.471 132.138 231.913 132.736 232.976 133.799C234.039 134.862 234.637 136.303 234.639 137.806V240.671C234.637 242.174 234.039 243.615 232.976 244.678C231.913 245.741 230.471 246.339 228.968 246.341ZM-115.329 133.756C-116.403 133.758 -117.433 134.185 -118.192 134.944C-118.951 135.703 -119.379 136.732 -119.38 137.806V240.671C-119.379 241.745 -118.951 242.774 -118.192 243.533C-117.433 244.293 -116.403 244.72 -115.329 244.721H228.968C230.042 244.72 231.071 244.293 231.831 243.533C232.59 242.774 233.017 241.745 233.018 240.671V137.806C233.017 136.732 232.59 135.703 231.831 134.944C231.071 134.185 230.042 133.758 228.968 133.756H-115.329Z" fill="#3F3D56"/>
<path d="M35.3312 289.654C34.6563 289.651 33.9998 289.434 33.4566 289.033L28.9391 285.752C28.5643 285.478 28.1122 285.33 27.648 285.33C27.1839 285.33 26.7318 285.478 26.357 285.752L21.8395 289.033C21.2946 289.429 20.6385 289.642 19.9651 289.642C19.2916 289.642 18.6355 289.429 18.0906 289.033C17.5458 288.637 17.1402 288.079 16.932 287.439C16.7239 286.799 16.7238 286.109 16.9318 285.469L18.6574 280.159C18.8017 279.718 18.8021 279.242 18.6587 278.801C18.5154 278.36 18.2355 277.975 17.8595 277.703L13.342 274.422C12.7972 274.026 12.3916 273.468 12.1835 272.827C11.9754 272.187 11.9754 271.497 12.1835 270.857C12.3916 270.217 12.7971 269.658 13.342 269.263C13.8868 268.867 14.5429 268.654 15.2164 268.654H20.8005C21.2646 268.655 21.7169 268.508 22.0923 268.235C22.4678 267.963 22.7469 267.578 22.8895 267.136L24.6149 261.827C24.823 261.186 25.2285 260.628 25.7734 260.232C26.3182 259.836 26.9745 259.623 27.648 259.623C28.3215 259.623 28.9778 259.836 29.5226 260.232C30.0675 260.628 30.4731 261.186 30.6811 261.827L32.4065 267.136C32.5491 267.578 32.8282 267.963 33.2037 268.235C33.5791 268.508 34.0315 268.655 34.4955 268.654H40.0796C40.753 268.654 41.4092 268.867 41.954 269.263C42.4988 269.658 42.9043 270.217 43.1124 270.857C43.3205 271.497 43.3205 272.187 43.1124 272.827C42.9043 273.468 42.4988 274.026 41.954 274.422L37.4365 277.703C37.0605 277.975 36.7806 278.36 36.6373 278.801C36.4939 279.242 36.4943 279.718 36.6386 280.159L38.3642 285.469C38.5799 286.108 38.5837 286.8 38.375 287.443C38.1663 288.085 37.7562 288.642 37.2056 289.033C36.6625 289.434 36.006 289.651 35.3312 289.654Z" fill="white"/>
<path d="M81.1093 289.654C80.4344 289.651 79.7778 289.434 79.2347 289.033L74.7172 285.752C74.3424 285.478 73.8902 285.33 73.4261 285.33C72.962 285.33 72.5099 285.478 72.1351 285.752L67.6175 289.033C67.0727 289.429 66.4166 289.642 65.7431 289.642C65.0697 289.642 64.4135 289.429 63.8687 289.033C63.3238 288.637 62.9183 288.079 62.7101 287.439C62.502 286.799 62.5019 286.109 62.7099 285.469L64.4355 280.159C64.5797 279.718 64.5802 279.242 64.4368 278.801C64.2934 278.36 64.0136 277.975 63.6376 277.703L59.1201 274.422C58.5753 274.026 58.1698 273.468 57.9617 272.827C57.7537 272.187 57.7537 271.497 57.9618 270.857C58.1699 270.217 58.5755 269.658 59.1203 269.263C59.6651 268.867 60.3213 268.654 60.9947 268.654H66.5785C67.0426 268.655 67.495 268.508 67.8704 268.235C68.2458 267.963 68.525 267.578 68.6676 267.136L70.3932 261.827C70.6012 261.186 71.0067 260.628 71.5516 260.232C72.0965 259.836 72.7527 259.623 73.4262 259.623C74.0997 259.623 74.7559 259.836 75.3008 260.232C75.8456 260.628 76.2511 261.186 76.4592 261.827L78.1845 267.136C78.3272 267.578 78.6064 267.963 78.9819 268.235C79.3574 268.508 79.8097 268.655 80.2738 268.654H85.8577C86.5311 268.654 87.1873 268.867 87.7321 269.263C88.2769 269.658 88.6824 270.217 88.8906 270.857C89.0987 271.497 89.0987 272.187 88.8906 272.827C88.6826 273.468 88.2771 274.026 87.7323 274.422L83.2147 277.703C82.8387 277.975 82.5588 278.36 82.4154 278.801C82.2719 279.242 82.2724 279.718 82.4166 280.159L84.1422 285.469C84.3579 286.108 84.3617 286.8 84.153 287.443C83.9443 288.085 83.5343 288.642 82.9836 289.033C82.4406 289.434 81.7841 289.651 81.1093 289.654Z" fill="white"/>
<path d="M126.887 289.654C126.212 289.651 125.556 289.434 125.013 289.033L120.495 285.752C120.12 285.479 119.668 285.331 119.204 285.331C118.74 285.331 118.288 285.479 117.913 285.752L113.396 289.033C112.851 289.429 112.195 289.642 111.521 289.642C110.848 289.642 110.192 289.429 109.647 289.033C109.102 288.637 108.696 288.079 108.488 287.439C108.28 286.799 108.28 286.109 108.488 285.469L110.214 280.159C110.358 279.718 110.358 279.242 110.215 278.801C110.071 278.36 109.792 277.975 109.416 277.703L104.898 274.422C104.353 274.026 103.948 273.468 103.74 272.827C103.532 272.187 103.532 271.497 103.74 270.857C103.948 270.217 104.354 269.658 104.898 269.263C105.443 268.867 106.099 268.654 106.773 268.654H112.357C112.821 268.655 113.273 268.508 113.648 268.235C114.024 267.963 114.303 267.578 114.446 267.136L116.171 261.827C116.379 261.186 116.785 260.628 117.33 260.232C117.875 259.836 118.531 259.623 119.204 259.623C119.878 259.623 120.534 259.836 121.079 260.232C121.624 260.628 122.029 261.186 122.237 261.827L123.963 267.136C124.105 267.578 124.385 267.963 124.76 268.235C125.135 268.508 125.588 268.655 126.052 268.654H131.636C132.309 268.654 132.965 268.867 133.51 269.263C134.055 269.658 134.46 270.217 134.669 270.857C134.877 271.497 134.877 272.187 134.669 272.827C134.461 273.468 134.055 274.026 133.51 274.422L128.993 277.703C128.617 277.975 128.337 278.36 128.194 278.801C128.05 279.242 128.051 279.718 128.195 280.159L129.92 285.469C130.136 286.108 130.14 286.8 129.931 287.442C129.722 288.084 129.312 288.642 128.762 289.033C128.219 289.434 127.562 289.651 126.887 289.654Z" fill="white"/>
<path d="M203.077 289.968C202.336 289.965 201.615 289.727 201.019 289.287C200.414 288.858 199.963 288.245 199.734 287.54C199.505 286.834 199.509 286.074 199.746 285.371L201.472 280.062C201.595 279.684 201.595 279.276 201.473 278.898C201.35 278.52 201.11 278.191 200.788 277.957L196.27 274.676C195.671 274.241 195.226 273.628 194.997 272.924C194.769 272.221 194.769 271.463 194.997 270.76C195.226 270.056 195.671 269.443 196.27 269.009C196.868 268.574 197.589 268.34 198.329 268.34H203.913C204.311 268.341 204.698 268.215 205.02 267.981C205.342 267.747 205.581 267.417 205.703 267.039L207.429 261.73C207.658 261.026 208.103 260.413 208.702 259.978C209.3 259.544 210.021 259.31 210.761 259.31C211.5 259.31 212.221 259.544 212.82 259.978C213.418 260.413 213.864 261.026 214.092 261.73L215.818 267.039C215.94 267.417 216.179 267.747 216.501 267.981C216.823 268.215 217.21 268.341 217.608 268.34H223.192C223.932 268.34 224.653 268.574 225.251 269.009C225.849 269.443 226.295 270.056 226.524 270.76C226.752 271.463 226.752 272.221 226.524 272.924C226.295 273.628 225.85 274.241 225.251 274.676L220.734 277.957C220.411 278.19 220.171 278.52 220.049 278.898C219.926 279.276 219.926 279.684 220.05 280.062L221.775 285.371C222.004 286.075 222.004 286.832 221.775 287.536C221.546 288.239 221.101 288.852 220.503 289.287C219.904 289.722 219.183 289.956 218.444 289.956C217.704 289.956 216.983 289.722 216.385 289.287L211.867 286.006C211.546 285.771 211.158 285.645 210.761 285.645C210.363 285.645 209.975 285.771 209.654 286.006L205.136 289.287C204.54 289.727 203.819 289.965 203.077 289.968ZM210.761 284.024C211.501 284.024 212.221 284.259 212.819 284.695L217.337 287.976C217.658 288.21 218.046 288.336 218.443 288.336C218.841 288.336 219.228 288.21 219.55 287.977C219.872 287.743 220.111 287.413 220.234 287.035C220.357 286.657 220.357 286.25 220.234 285.872L218.509 280.562C218.279 279.859 218.278 279.101 218.507 278.397C218.735 277.693 219.182 277.08 219.781 276.647L224.299 273.365C224.62 273.131 224.86 272.802 224.982 272.424C225.105 272.046 225.105 271.638 224.982 271.26C224.86 270.882 224.62 270.553 224.299 270.319C223.977 270.086 223.59 269.96 223.192 269.96H217.608C216.868 269.961 216.147 269.728 215.548 269.293C214.949 268.858 214.504 268.244 214.277 267.54L212.551 262.23C212.428 261.852 212.189 261.523 211.867 261.289C211.545 261.055 211.158 260.93 210.76 260.93C210.363 260.93 209.975 261.055 209.654 261.289C209.332 261.523 209.093 261.852 208.97 262.23L207.244 267.54C207.017 268.244 206.572 268.858 205.973 269.293C205.374 269.728 204.653 269.961 203.913 269.96H198.329C197.931 269.96 197.544 270.086 197.222 270.319C196.901 270.553 196.661 270.882 196.538 271.26C196.415 271.638 196.415 272.046 196.538 272.424C196.661 272.802 196.901 273.131 197.222 273.365L201.74 276.647C202.339 277.081 202.786 277.694 203.014 278.397C203.243 279.101 203.242 279.859 203.012 280.562L201.287 285.872C201.164 286.25 201.164 286.657 201.287 287.035C201.409 287.413 201.649 287.743 201.971 287.976C202.292 288.21 202.68 288.336 203.077 288.336C203.475 288.336 203.862 288.21 204.184 287.976L208.702 284.695C209.3 284.259 210.021 284.024 210.761 284.024Z" fill="#F0F0F0"/>
<path d="M156.901 289.838C156.16 289.835 155.439 289.597 154.842 289.157C154.237 288.728 153.787 288.115 153.558 287.41C153.328 286.704 153.333 285.944 153.569 285.241L155.295 279.932C155.419 279.554 155.419 279.146 155.296 278.768C155.173 278.39 154.934 278.06 154.611 277.827L150.094 274.545C149.495 274.111 149.05 273.498 148.821 272.794C148.592 272.091 148.593 271.333 148.821 270.63C149.05 269.926 149.495 269.313 150.094 268.879C150.692 268.444 151.413 268.21 152.153 268.21H157.737C158.134 268.21 158.522 268.085 158.844 267.851C159.166 267.617 159.405 267.287 159.527 266.909L161.253 261.6C161.481 260.896 161.927 260.283 162.525 259.848C163.124 259.414 163.845 259.18 164.584 259.18C165.324 259.18 166.045 259.414 166.643 259.848C167.242 260.283 167.687 260.896 167.916 261.6L169.641 266.909C169.764 267.287 170.003 267.617 170.325 267.851C170.646 268.085 171.034 268.21 171.432 268.21H177.016C177.756 268.21 178.476 268.444 179.075 268.879C179.673 269.313 180.119 269.926 180.347 270.63C180.576 271.333 180.576 272.091 180.347 272.794C180.119 273.498 179.673 274.111 179.075 274.545L174.557 277.827C174.235 278.06 173.995 278.39 173.872 278.768C173.749 279.146 173.75 279.554 173.873 279.932L175.599 285.241C175.827 285.945 175.827 286.702 175.599 287.406C175.37 288.109 174.925 288.722 174.326 289.157C173.728 289.592 173.007 289.826 172.267 289.826C171.527 289.826 170.807 289.592 170.208 289.157L165.691 285.875C165.369 285.641 164.982 285.515 164.584 285.515C164.186 285.515 163.799 285.641 163.478 285.875L158.96 289.157C158.363 289.597 157.642 289.835 156.901 289.838ZM164.584 283.894C165.324 283.894 166.045 284.129 166.643 284.565L171.16 287.846C171.482 288.08 171.869 288.206 172.267 288.206C172.665 288.206 173.052 288.08 173.374 287.847C173.696 287.613 173.935 287.283 174.058 286.905C174.181 286.527 174.181 286.12 174.058 285.742L172.332 280.432C172.102 279.729 172.102 278.971 172.33 278.267C172.559 277.563 173.005 276.95 173.605 276.517L178.122 273.235C178.444 273.001 178.683 272.672 178.806 272.294C178.929 271.916 178.929 271.508 178.806 271.13C178.683 270.752 178.444 270.423 178.122 270.189C177.801 269.956 177.413 269.83 177.016 269.83H171.432C170.692 269.831 169.97 269.597 169.372 269.163C168.773 268.728 168.328 268.114 168.1 267.41L166.375 262.1C166.252 261.722 166.012 261.393 165.691 261.159C165.369 260.925 164.982 260.799 164.584 260.799C164.187 260.799 163.799 260.925 163.477 261.159C163.156 261.393 162.916 261.722 162.794 262.1L161.068 267.41C160.841 268.114 160.395 268.728 159.797 269.163C159.198 269.597 158.477 269.831 157.737 269.83H152.153C151.755 269.83 151.368 269.955 151.046 270.189C150.724 270.423 150.485 270.752 150.362 271.13C150.239 271.508 150.239 271.916 150.362 272.294C150.485 272.672 150.724 273.001 151.046 273.235L155.564 276.517C156.163 276.95 156.609 277.563 156.838 278.267C157.067 278.971 157.066 279.729 156.836 280.432L155.11 285.742C154.988 286.12 154.988 286.527 155.11 286.905C155.233 287.283 155.473 287.613 155.794 287.846C156.116 288.08 156.503 288.206 156.901 288.206C157.299 288.206 157.686 288.08 158.008 287.846L162.525 284.565C163.123 284.129 163.844 283.894 164.584 283.894Z" fill="#F0F0F0"/>
<path d="M-76.4439 156.435C-77.8405 156.435 -79.1798 156.99 -80.1673 157.977C-81.1549 158.965 -81.7096 160.304 -81.7096 161.7C-81.7096 163.096 -81.1549 164.435 -80.1673 165.423C-79.1798 166.41 -77.8405 166.965 -76.4439 166.965H190.082C191.479 166.965 192.818 166.41 193.806 165.423C194.793 164.435 195.348 163.096 195.348 161.7C195.348 160.304 194.793 158.965 193.806 157.977C192.818 156.99 191.479 156.435 190.082 156.435H-76.4439Z" fill="#CCCCCC"/>
<path d="M-76.4439 183.974C-77.8405 183.974 -79.1798 184.529 -80.1673 185.516C-81.1549 186.503 -81.7096 187.842 -81.7096 189.239C-81.7096 190.635 -81.1549 191.974 -80.1673 192.961C-79.1798 193.949 -77.8405 194.503 -76.4439 194.503H190.082C191.479 194.503 192.818 193.949 193.806 192.961C194.793 191.974 195.348 190.635 195.348 189.239C195.348 187.842 194.793 186.503 193.806 185.516C192.818 184.529 191.479 183.974 190.082 183.974H-76.4439Z" fill="#CCCCCC"/>
<path d="M-76.4439 211.513C-77.8405 211.513 -79.1798 212.067 -80.1673 213.055C-81.1549 214.042 -81.7096 215.381 -81.7096 216.777C-81.7096 218.174 -81.1549 219.513 -80.1673 220.5C-79.1798 221.487 -77.8405 222.042 -76.4439 222.042H190.082C191.479 222.042 192.818 221.487 193.806 220.5C194.793 219.513 195.348 218.174 195.348 216.777C195.348 215.381 194.793 214.042 193.806 213.055C192.818 212.067 191.479 211.513 190.082 211.513H-76.4439Z" fill="#CCCCCC"/>
<path d="M-76.4439 156.435C-77.8405 156.435 -79.1798 156.99 -80.1673 157.977C-81.1549 158.965 -81.7096 160.304 -81.7096 161.7C-81.7096 163.096 -81.1549 164.435 -80.1673 165.423C-79.1798 166.41 -77.8405 166.965 -76.4439 166.965H190.082C191.479 166.965 192.818 166.41 193.806 165.423C194.793 164.435 195.348 163.096 195.348 161.7C195.348 160.304 194.793 158.965 193.806 157.977C192.818 156.99 191.479 156.435 190.082 156.435H-76.4439Z" fill="#CCCCCC"/>
<path d="M-76.4439 183.974C-77.8405 183.974 -79.1798 184.529 -80.1673 185.516C-81.1549 186.503 -81.7096 187.842 -81.7096 189.239C-81.7096 190.635 -81.1549 191.974 -80.1673 192.961C-79.1798 193.949 -77.8405 194.503 -76.4439 194.503H190.082C191.479 194.503 192.818 193.949 193.806 192.961C194.793 191.974 195.348 190.635 195.348 189.239C195.348 187.842 194.793 186.503 193.806 185.516C192.818 184.529 191.479 183.974 190.082 183.974H-76.4439Z" fill="#CCCCCC"/>
<path d="M-76.4439 211.513C-77.8405 211.513 -79.1798 212.067 -80.1673 213.055C-81.1549 214.042 -81.7096 215.381 -81.7096 216.777C-81.7096 218.174 -81.1549 219.513 -80.1673 220.5C-79.1798 221.487 -77.8405 222.042 -76.4439 222.042H190.082C191.479 222.042 192.818 221.487 193.806 220.5C194.793 219.513 195.348 218.174 195.348 216.777C195.348 215.381 194.793 214.042 193.806 213.055C192.818 212.067 191.479 211.513 190.082 211.513H-76.4439Z" fill="#CCCCCC"/>
<path d="M411.642 321.468L388.158 321.467V321.17C388.158 318.746 389.121 316.421 390.835 314.707C392.55 312.993 394.874 312.029 397.299 312.029L411.643 312.03L411.642 321.468Z" fill="#2F2E41"/>
<path d="M354.455 314.168L347.418 312.286L351.327 284.252L361.712 287.029L354.455 314.168Z" fill="#9F616A"/>
<path d="M354.425 321.468L331.738 315.401L331.815 315.114C332.441 312.772 333.972 310.775 336.071 309.562C338.17 308.349 340.664 308.019 343.006 308.645L356.863 312.35L354.425 321.468Z" fill="#2F2E41"/>
<path d="M413.975 156.971L420.075 164.058L412.185 308.088H395.333L386.836 197.262L360.491 311.06L342.971 306.763L358.901 162.225L413.975 156.971Z" fill="#2F2E41"/>
<path d="M362.974 63.9838L379.754 55.5673L405.559 56.0209L427.765 67.384L415.131 130.483L420.589 163.382C399.494 168.762 377.41 168.943 356.23 163.912L356.061 163.872C356.061 163.872 368.604 119.366 363.264 105.784L362.974 63.9838Z" fill="#CBCBCB"/>
<path d="M411.519 30.3544C411.501 25.3183 409.485 20.4954 405.914 16.9442C402.343 13.393 397.509 11.4037 392.472 11.413C387.436 11.4223 382.61 13.4295 379.052 16.9939C375.494 20.5582 373.496 25.3886 373.496 30.4248C373.496 35.4609 375.494 40.2913 379.052 43.8557C382.61 47.4201 387.436 49.4272 392.472 49.4365C397.509 49.4459 402.343 47.4566 405.914 43.9054C409.485 40.3542 411.501 35.5312 411.519 30.4951C411.519 30.4482 411.519 30.4013 411.519 30.3544Z" fill="#9F616A"/>
<path d="M383.994 19.4911C384.979 18.5642 386.276 18.041 387.628 18.0252C389.659 17.9592 392.703 18.6805 393.998 20.3318C395.039 21.6589 395.089 23.4848 395.093 25.1714L395.104 29.8265C395.107 31.2037 395.124 32.6396 395.749 33.8665C396.375 35.0934 397.811 36.0252 399.123 35.607C400.68 35.1109 401.364 33.0421 402.955 32.6701C404.15 32.3907 405.377 33.2637 405.899 34.3739C406.34 35.5248 406.486 36.7677 406.324 37.9895C406.174 40.4269 402.678 41.3939 402.183 43.7853C401.897 45.1686 400.894 47.9281 402.183 47.3497C408.124 46.7557 410.731 43.2857 413.45 40.0193L419.583 32.6523C420.283 31.9208 420.821 31.0499 421.162 30.0963C421.314 29.4283 421.369 28.7418 421.324 28.0582C421.291 26.2271 421.241 24.3965 421.175 22.5664C421.117 20.9674 420.715 18.9499 419.149 18.6213C418.334 18.4504 417.257 18.7484 416.826 18.0362C416.665 17.6792 416.639 17.2758 416.752 16.901C417.098 15.0734 417.681 13.1619 417.08 11.4019C416.173 8.74748 413.049 7.65828 410.289 7.15748C407.529 6.65668 404.431 6.22583 402.698 4.01963C402.234 3.28704 401.732 2.58006 401.191 1.90176C400.397 1.17922 399.42 0.686724 398.367 0.477129C394.941 -0.389984 391.321 -0.068775 388.101 1.38822C386.766 1.99747 385.425 2.8179 383.96 2.72508C382.439 2.62865 381.14 1.55798 379.638 1.29752C377.212 0.876781 374.892 2.69434 373.697 4.84684C372.215 7.51399 372.079 11.1665 374.172 13.3866C375.216 14.4941 376.774 15.2549 377.208 16.714C377.384 17.3079 377.343 17.9475 377.499 18.5471C377.681 19.1439 378.028 19.6772 378.5 20.0854C378.971 20.4936 379.549 20.7602 380.166 20.8542C381.649 21.0959 382.904 20.4163 383.994 19.4911Z" fill="#2F2E41"/>
<path d="M360.658 109.989C361.019 110.917 361.579 111.754 362.299 112.442C363.019 113.13 363.88 113.651 364.824 113.97C365.767 114.289 366.768 114.397 367.757 114.287C368.747 114.176 369.7 113.851 370.55 113.332L404.622 131.343L405.725 123.043L372.618 103.52C371.652 102.15 370.218 101.182 368.586 100.799C366.954 100.416 365.239 100.645 363.765 101.443C362.29 102.24 361.16 103.551 360.587 105.126C360.015 106.701 360.04 108.431 360.658 109.989Z" fill="#9F616A"/>
<path d="M406.063 111.424C405.507 112.251 404.778 112.945 403.925 113.459C403.072 113.972 402.117 114.293 401.127 114.397C400.137 114.502 399.136 114.388 398.195 114.064C397.254 113.74 396.395 113.214 395.679 112.522L358.492 122.642L358.816 112.104L395.808 102.496C397.05 101.37 398.662 100.739 400.338 100.723C402.014 100.706 403.637 101.305 404.901 102.405C406.165 103.506 406.982 105.032 407.196 106.694C407.41 108.356 407.007 110.04 406.063 111.424Z" fill="#9F616A"/>
<path d="M420.515 67.8383L427.765 67.384C427.765 67.384 436.254 78.5854 431.546 90.7405C431.546 90.7405 432.362 134.404 413.559 132.611C394.757 130.817 388.816 130.817 388.816 130.817L394.46 115.074L407.086 111.176C407.086 111.176 403.195 94.0106 410.56 86.8687L420.515 67.8383Z" fill="#CBCBCB"/>
<path d="M368.158 67.4547L367.133 62.2016C367.133 62.2016 352.02 61.8465 349.031 84.7474C349.031 84.7474 335.441 119.021 348.762 123.434C362.083 127.847 376.736 123.434 376.736 123.434L375.632 108.319L360.975 105.328C360.975 105.328 368.547 95.5323 364.424 87.0354L368.158 67.4547Z" fill="#CBCBCB"/>
<path d="M513.357 323H287.015C286.857 323 286.706 322.937 286.594 322.826C286.483 322.715 286.42 322.563 286.42 322.406C286.42 322.248 286.483 322.097 286.594 321.986C286.706 321.874 286.857 321.812 287.015 321.812H513.357C513.514 321.812 513.665 321.874 513.777 321.986C513.888 322.097 513.951 322.248 513.951 322.406C513.951 322.563 513.888 322.715 513.777 322.826C513.665 322.937 513.514 323 513.357 323Z" fill="#CBCBCB"/>
</svg>
