<svg width="314" height="333" viewBox="0 0 314 333" fill="none" xmlns="http://www.w3.org/2000/svg">
<path d="M157.905 332.969C152.748 332.952 147.613 332.287 142.621 330.991L141.637 330.719L140.725 330.261C107.727 313.711 79.8881 291.85 57.9821 265.286C39.8484 243.167 25.7106 218.053 16.2044 191.074C4.83643 158.774 -0.632684 124.692 0.0581543 90.4546C0.0720941 89.7359 0.0838915 89.181 0.0838915 88.7987C0.0838915 72.1559 9.31859 57.553 23.6103 51.5959C34.5485 47.0367 133.862 6.22988 141.038 3.28147C154.551 -3.4922 168.968 2.16149 171.275 3.15018C176.45 5.26671 268.259 42.8314 288.099 52.2821C308.546 62.0223 314.002 79.5202 314.002 88.3236C314.002 128.18 307.102 165.429 293.493 199.035C282.502 226.237 266.925 251.35 247.441 273.28C209.847 315.602 172.243 330.605 171.88 330.737C167.386 332.284 162.658 333.039 157.905 332.969ZM149.062 311.056C152.322 311.787 159.828 312.884 164.721 311.099C170.935 308.831 202.409 292.505 231.82 259.395C272.457 213.648 293.075 156.141 293.106 88.4707C293.033 87.0997 292.06 77.3215 279.115 71.1556C259.66 61.8877 164.232 22.8532 163.27 22.4598L163.007 22.348C161.007 21.5097 154.643 19.7438 150.255 22.0437L149.377 22.4533C148.313 22.8904 42.8908 66.2053 31.6474 70.8917C23.7824 74.1699 20.9801 82.2914 20.9801 88.7988C20.9801 89.2743 20.9678 89.966 20.9504 90.8601C20.0518 137.163 30.7627 251.099 149.062 311.056Z" fill="#494949"/>
<path d="M145.408 12.785C145.408 12.785 39.0269 56.4929 27.629 61.2437C16.231 65.9946 10.532 77.3966 10.532 88.7987C10.532 100.201 1.98362 248.982 145.408 320.918C145.408 320.918 158.425 324.521 168.301 320.918C178.177 317.315 303.554 256.504 303.554 88.3236C303.554 88.3236 303.554 71.2205 283.607 61.7188C263.661 52.2171 167.224 12.785 167.224 12.785C167.224 12.785 155.381 7.55906 145.408 12.785Z" fill="white"/>
<path opacity="0.1" d="M156.805 46.9912V280.157C156.805 280.157 49.475 228.474 50.4248 92.5994L156.805 46.9912Z" fill="black"/>
<path d="M135.3 214.334L101.109 170.357L120.992 154.887L137.181 175.709L191.871 117.956L210.159 135.289L135.3 214.334Z" fill="#949494"/>
</svg>
