<svg width="2185" height="1627" viewBox="0 0 2185 1627" fill="none" xmlns="http://www.w3.org/2000/svg">
<path d="M575.183 463.944C574.49 458.446 573.087 453.061 571.01 447.925C570.745 446.954 570.281 446.049 569.648 445.267C569.015 444.486 568.226 443.845 567.332 443.385C566.138 443.074 564.885 443.06 563.684 443.344L544.951 446.218C543.384 446.29 541.882 446.874 540.677 447.883C538.238 450.455 540.64 454.597 540.565 458.145C540.481 462.136 536.945 465.374 533.109 466.446C529.194 467.239 525.156 467.189 521.262 466.299L495.069 462.218C502.783 459.749 509.649 455.156 514.884 448.962C518.331 444.869 520.165 437.226 515.183 435.288C513.703 434.881 512.16 434.757 510.634 434.922C498.766 435.014 489.428 425.081 478.318 420.898C471.207 418.393 463.489 418.207 456.266 420.366C449.043 422.524 442.686 426.917 438.104 432.915L452.058 433.59C453.371 433.517 454.672 433.865 455.775 434.583C458.833 437.102 455.031 441.94 455.462 445.884C456.021 451.008 462.808 452.102 467.924 452.62C473.04 453.138 479.53 457.305 477.069 461.831C451.356 470.71 425.189 444.475 398.184 447.704C391.35 448.522 384.896 451.213 378.223 452.906C337.46 463.245 295.317 435.659 253.675 441.501C244.418 443.084 235.319 445.489 226.488 448.69C220.82 450.555 214.909 452.571 210.791 456.897C206.673 461.224 205.105 468.623 209.006 473.146C198.254 474.034 187.429 473.003 177.036 470.1C179.847 471.666 182.185 473.962 183.805 476.746C185.425 479.53 186.268 482.701 186.245 485.924C169.456 488.669 153.111 493.664 137.651 500.777C140.537 505.587 143.907 510.088 147.709 514.208L126.454 527.897C133.635 529.71 137.348 539.526 133.172 545.656C140.617 542.336 145.232 533.746 153.194 532.005C158.41 530.864 163.717 533.003 168.666 535.012C173.614 537.022 179.052 538.97 184.175 537.462C189.297 535.954 193.076 529.295 189.821 525.053C211.716 518.649 234.343 515.105 257.143 514.509C258.902 514.288 260.686 514.627 262.242 515.479C265.21 517.543 264.429 522.002 264.269 525.62C264.109 529.237 266.922 533.992 270.147 532.361C266.353 535.66 269.597 541.87 273.237 545.338C276.878 548.807 281.266 553.593 279.037 558.105C278.455 559.283 277.469 560.225 276.909 561.413C275.257 564.921 277.88 569.01 280.974 571.34C284.068 573.669 287.858 575.297 290.007 578.522C292.156 581.748 291.18 587.394 287.337 587.844L276.413 573.94C272.681 577.82 270.122 582.681 269.034 587.959C280.618 597.451 282.36 616.773 272.662 628.194C267.707 634.031 260.659 637.577 254.508 642.13C248.357 646.682 242.665 653.165 242.681 660.83C242.708 674.071 241.628 686.373 246.578 698.65C255.706 721.288 266.244 743.328 278.13 764.639C281.251 770.236 285.285 776.37 291.609 777.333C283.617 757.831 276.424 738.025 270.027 717.916C274.193 717.932 279.008 718.264 281.45 721.647C283.472 724.449 283.038 728.258 283.666 731.658C284.465 734.953 285.798 738.094 287.611 740.956L325.773 809.099C328.936 814.748 332.565 820.812 338.611 823.1C342.476 824.562 346.949 824.287 350.507 826.393C353.295 828.043 355.174 830.973 358.017 832.528C366.056 836.924 377.234 828.493 384.747 833.742C386.895 835.242 388.262 837.627 390.241 839.345C397.179 845.368 408.561 841.339 416.571 845.832C421.733 848.728 424.408 854.52 427.162 859.768C434.059 872.915 445.218 885.795 459.999 886.842C464.642 887.17 469.384 886.288 473.923 887.323C478.461 888.358 482.929 892.329 482.2 896.937C480.951 904.838 484.845 913.489 483.799 921.419C481.895 935.864 461.455 942.212 459.7 956.676C459.315 959.843 459.917 963.112 459.165 966.212C458.243 970.011 455.397 973.105 454.385 976.881C452.469 984.037 457.583 991.159 463.202 995.974C468.821 1000.79 475.523 1004.94 478.594 1011.68C481.841 1018.8 480.246 1027.11 481.302 1034.87C483.608 1051.81 498.204 1064.37 513.226 1072.47C517.803 1074.94 522.718 1077.32 525.68 1081.6C529.546 1087.19 529.161 1094.56 530.452 1101.23C533.614 1117.58 547.343 1131.05 547.732 1147.7C548.009 1159.53 541.448 1170.26 537.529 1181.43C533.854 1192.12 532.524 1203.49 533.63 1214.75C534.736 1226.01 538.252 1236.9 543.937 1246.67C546.869 1251.63 550.375 1256.31 552.45 1261.69C556.151 1271.29 554.95 1282.21 558.362 1291.91C562.874 1304.75 575.272 1315.35 574.085 1328.91C579.714 1340.62 592.143 1346.38 604.64 1349.87L627.039 1356.12C631.328 1357.32 635.81 1358.52 640.177 1357.66C644.544 1356.79 648.712 1353.15 648.599 1348.69C637.615 1346.21 626.279 1343.57 617.224 1336.86C608.169 1330.15 601.967 1318.2 605.402 1307.45C606.995 1302.47 610.384 1296.71 607.162 1292.59C605.318 1290.23 601.944 1289.62 599.863 1287.47C596.618 1284.11 597.733 1278.47 600.066 1274.43C602.399 1270.38 605.772 1266.76 606.713 1262.19C607.188 1259.62 606.871 1256.98 605.803 1254.6C604.736 1252.23 602.97 1250.24 600.741 1248.9C604.894 1247.33 608.672 1244.9 611.828 1241.77C614.743 1238.43 616.09 1233.28 613.796 1229.49C620.607 1230.35 628.648 1230.78 633.119 1225.56C636.689 1221.39 636.444 1215.15 635.033 1209.84C633.622 1204.53 631.238 1199.37 631.164 1193.88C646.875 1194.62 662.621 1194.09 678.245 1192.28C675.986 1184.65 670.851 1178.2 663.931 1174.3C671.007 1173.1 677.454 1164.61 679.69 1157.77C681.925 1150.94 681.355 1143.49 679.973 1136.43C679.443 1134.61 679.37 1132.69 679.762 1130.84C680.558 1128.29 683.053 1126.74 685.361 1125.41L720.486 1105.19C722.582 1104.14 724.482 1102.73 726.103 1101.03C729.783 1096.7 729.238 1090.16 727.353 1084.79C725.469 1079.42 722.451 1074.37 721.725 1068.73C719.554 1051.85 737.58 1039.74 743.663 1023.85C746.05 1017.61 746.537 1010.83 746.999 1004.17C747.495 997.014 747.532 988.702 742.05 984.09C736.796 979.669 728.586 980.655 723.088 976.543C718.047 972.773 716.308 965.451 710.801 962.406C705.8 959.641 699.529 961.399 693.967 960.099C684.174 957.809 678.011 946.494 668.009 945.446C662.366 944.855 655.979 947.621 651.354 944.326C647.278 941.423 647.115 935.588 646.339 930.637C644.98 922.942 641.301 915.85 635.797 910.315C630.294 904.781 623.231 901.07 615.56 899.682C609.741 898.747 603.408 899.102 598.458 895.897C593.446 892.651 591.148 886.574 587.211 882.079C580.865 874.835 570.872 872.261 561.51 870.055L523.43 861.081C516.671 859.488 507.957 858.643 504.33 864.579C503.256 866.839 502.496 869.236 502.07 871.703C500.711 876.165 497.976 880.081 494.257 882.886C490.539 885.692 486.028 887.244 481.375 887.318C478.184 881.862 473.013 877.851 466.943 876.124C463.081 875.045 458.948 874.925 455.266 873.338C453.26 872.357 451.475 870.976 450.021 869.279C448.566 867.582 447.472 865.606 446.806 863.47C446.14 861.335 445.915 859.086 446.146 856.861C446.377 854.636 447.058 852.481 448.149 850.529C450.344 846.61 451.192 842.076 450.561 837.627C449.931 833.177 447.857 829.059 444.66 825.909C438.184 820.081 428.816 818.673 420.133 819.256C417.859 814.281 421.661 808.669 425.759 805.054C429.857 801.439 434.832 797.885 435.725 792.487C437.128 783.995 426.32 777.545 418.114 780.077C409.907 782.609 404.67 790.6 401.207 798.476C399.221 802.996 397.532 807.755 394.398 811.565C391.264 815.376 386.218 818.104 381.445 816.882C374.688 815.15 372.078 807.102 370.583 800.273C368.576 791.111 366.558 781.821 366.978 772.45C367.399 763.079 370.55 753.457 377.443 747.113C388.676 736.776 405.908 737.789 421.068 739.438C417.486 735.393 418.371 728.575 422.203 724.768C424.226 722.966 426.657 721.686 429.285 721.039C431.913 720.392 434.658 720.397 437.284 721.054C441.852 722.007 445.967 724.473 448.967 728.056C453.275 733.321 454.5 740.43 457.756 746.407C461.012 752.383 468.334 757.48 474.327 754.274C479.503 751.505 480.325 744.309 479.036 738.571C477.748 732.833 475.012 727.253 475.479 721.39C476.369 710.202 487.938 703.468 498.146 698.861C508.355 694.253 520.044 688.057 521.662 676.952C521.717 674.777 522.126 672.626 522.873 670.584C524.005 668.781 525.579 667.297 527.444 666.275C557.238 646.537 587.528 626.558 621.581 615.772C623.353 615.211 623.561 615.835 625.366 615.395C627.893 613.931 626.219 609.881 623.796 608.25C621.374 606.618 618.135 605.367 617.521 602.507C617.069 600.404 618.305 598.34 618.626 596.213C619.414 590.988 613.178 586.163 608.336 588.252C605.6 584.62 611.013 580.401 615.389 579.193C628.532 575.567 642.022 573.358 655.632 572.603C657.203 572.352 658.812 572.627 660.211 573.384C662.497 574.971 662.205 578.612 660.585 580.877C658.965 583.143 656.445 584.565 654.426 586.483C652.221 588.637 650.648 591.356 649.879 594.345C649.11 597.334 649.174 600.478 650.066 603.432C657.171 607.055 664.895 610.785 672.764 609.509C680.634 608.232 687.618 599.369 683.919 592.29C680.475 585.698 670.128 584.212 668.349 576.987C666.266 568.528 678.211 561.005 675.52 552.72C674.342 549.092 670.734 546.956 667.965 544.336C664.696 541.124 662.472 536.995 661.586 532.493C660.699 527.99 661.192 523.325 662.999 519.108C658.49 519.903 653.856 519.603 649.487 518.232C645.117 516.862 641.139 514.461 637.887 511.23C631.88 505.154 627.088 495.568 618.559 495.84C610.732 496.089 603.99 505.243 596.671 502.45C594.871 501.763 592.972 500.365 591.228 501.184C590.656 501.556 590.176 502.054 589.824 502.639C589.473 503.225 589.258 503.883 589.197 504.563C587.337 513.477 590.537 523.634 585.69 531.337C580.417 539.719 568.218 540.881 561.824 548.439C558.354 552.543 557.009 558.071 553.819 562.397C550.629 566.723 543.858 569.473 540.03 565.704C541.911 561.826 542.425 557.423 541.487 553.215C540.549 549.007 538.215 545.242 534.866 542.536C531.312 540.211 527.48 538.343 523.462 536.975C518.971 535.07 514.7 532.683 510.721 529.857C508.728 528.652 507.109 526.915 506.044 524.84C505.202 522.242 505.315 519.428 506.364 516.906C508.305 511.327 511.73 506.385 516.268 502.614C520.807 498.843 526.286 496.387 532.116 495.51C537.213 494.815 543.146 495.059 546.519 491.166C548.304 489.106 549.24 485.991 551.831 485.155C553.488 484.821 555.209 485.033 556.736 485.76L575.762 492.473C577.885 493.434 580.221 493.822 582.539 493.597C583.689 493.442 584.737 492.857 585.474 491.959C586.211 491.061 586.582 489.917 586.513 488.756C585.905 485.589 581.043 484.069 581.486 480.874C581.733 479.839 582.289 478.903 583.078 478.191C589.944 470.865 598.341 465.151 607.668 461.459C616.995 457.767 627.02 456.188 637.027 456.834C639.429 460.788 635.631 465.47 632.471 468.845C629.311 472.22 626.771 478.251 630.593 480.849C632.159 481.65 633.901 482.043 635.659 481.992C640.343 482.628 644.895 484.012 649.142 486.092C655.717 488.96 662.165 492.098 668.487 495.507C667.929 491.328 667.396 486.926 668.976 483.018C670.556 479.111 675.046 476.046 678.969 477.568C682.749 479.035 684.687 484.052 688.714 484.512C694.087 485.125 696.206 477.169 693.962 472.238C691.718 467.307 687.276 463.178 686.905 457.77C686.655 454.122 688.04 449.598 685.133 447.389C684.099 446.726 682.924 446.313 681.703 446.184L609.123 432.795C604.813 432 598.586 432.609 598.395 436.998C598.288 439.448 600.471 441.871 599.504 444.124C598.472 446.528 595.082 446.308 592.613 447.158C588.782 448.478 586.86 453.038 587.228 457.082C587.901 461.101 589.454 464.92 591.774 468.266C587.053 466.287 579.904 465.923 575.183 463.944Z" fill="white"/>
<path d="M517.272 402.181C512.695 400.662 507.763 400.591 503.145 401.978C498.526 403.364 494.445 406.141 491.454 409.931C490.259 411.509 489.255 413.683 490.256 415.391C491.69 417.84 495.345 416.873 498.04 415.997C502 414.578 506.311 414.475 510.335 415.703C512.865 416.574 515.129 418.113 517.67 418.951C518.907 419.469 520.261 419.641 521.588 419.446C522.915 419.252 524.164 418.699 525.201 417.847C526.946 416.064 527.055 413.292 527.058 410.795C527.179 409.959 527.112 409.107 526.863 408.301C526.613 407.494 526.188 406.753 525.616 406.133C524.599 405.542 523.456 405.203 522.282 405.144C519.653 404.656 517.275 403.264 515.56 401.207" fill="white"/>
<path d="M543.442 394.876C542.418 394.82 541.397 395.029 540.477 395.483C539.556 395.938 538.768 396.621 538.188 397.469C537.607 398.317 537.254 399.3 537.162 400.325C537.071 401.349 537.243 402.379 537.664 403.317C540.809 404.177 544.096 404.392 547.326 403.949C548.937 403.698 550.438 402.975 551.64 401.87C552.842 400.766 553.691 399.329 554.079 397.742C550.276 398.436 546.351 397.684 543.071 395.634" fill="white"/>
<path d="M631.249 382.677C622.688 384.501 614.371 387.333 606.472 391.114C610.196 392.549 613.361 395.145 615.502 398.519C617.643 401.894 618.645 405.869 618.362 409.858C618.028 411.389 618.067 412.978 618.475 414.492C619.385 416.703 622.022 417.533 624.34 418.101C628.505 419.371 632.854 419.928 637.203 419.746C639.379 419.632 641.492 418.976 643.352 417.837C645.211 416.698 646.757 415.113 647.851 413.224C648.482 411.431 649.221 409.679 650.066 407.977C655.622 399.493 672.129 409.751 678.095 401.552C680.197 398.663 680.005 394.316 682.744 392.027C684.161 391.03 685.804 390.401 687.523 390.199C699.521 387.809 711.64 386.079 723.825 385.016C729.599 384.512 737.125 382.434 737.173 376.624C715.425 372.342 692.875 375.383 673.029 385.274C665.879 388.864 656.422 396.416 649.534 391.657C646.955 389.875 647.083 385.076 643.533 383.072C639.905 381.023 635.101 381.856 631.249 382.677Z" fill="white"/>
<path d="M702.372 396.01L712.581 397.976C710.701 397.893 708.826 398.212 707.08 398.913C705.333 399.613 703.756 400.679 702.453 402.039C701.15 403.399 700.152 405.022 699.524 406.8C698.897 408.578 698.654 410.469 698.814 412.348C708.374 415.549 718.797 412.434 728.867 412.859C738.938 413.285 750.655 420.496 748.936 430.453C748.416 433.463 746.682 436.472 747.584 439.39C748.216 441.435 750.015 442.887 751.031 444.77C753.148 448.696 751.456 453.661 748.784 457.23C746.111 460.798 742.519 463.645 740.173 467.438C734.338 476.87 737.653 489.063 741.129 499.6C742.134 503.582 743.989 507.297 746.568 510.489C751.717 515.977 760.108 516.454 767.623 516.564C773.093 516.644 779.359 516.373 782.818 512.125C787.334 506.579 784.176 497.925 787.15 491.415C789.85 485.503 796.73 482.967 802.963 481.168C814.382 477.873 826.019 475.071 836.815 470.093C850.22 463.912 862.748 454.28 877.482 453.484C881.616 453.261 885.852 453.75 889.834 452.614C893.815 451.479 897.598 448.028 897.296 443.889C897.039 440.353 894.054 437.756 891.722 435.091C889.39 432.425 887.559 428.325 889.702 425.505L928.322 418.274C925.584 410.795 923.452 400.945 929.742 396.077C932.012 394.32 935.051 393.618 936.983 391.495C940.277 387.876 938.621 381.642 934.819 378.564C931.017 375.486 925.876 374.771 921.006 374.366C904.072 372.956 887.041 373.887 870.074 374.82C836.907 376.642 803.741 378.465 770.575 380.287C763.898 380.654 756.189 380.094 750.066 382.377C744.882 384.31 741.196 387.859 735.267 389.105C724.321 391.407 712.276 389.849 702.372 396.01Z" fill="white"/>
<path d="M885.261 476.902C884.221 476.737 883.157 476.979 882.29 477.578C881.716 478.211 881.375 479.021 881.322 479.875C880.663 483.642 881.448 487.52 883.52 490.732C884.576 492.308 886.033 493.572 887.74 494.392C889.447 495.213 891.342 495.56 893.229 495.398C897.826 494.811 901.213 490.88 905.439 488.961C911.953 486.007 939.614 481.402 920.479 471.039C913.885 467.468 909.624 470.62 904.427 472.972C898.514 476.005 891.887 477.364 885.261 476.902Z" fill="white"/>
<path d="M1052.86 390.159C1050.62 391.074 1048.75 392.705 1047.54 394.798C1046.98 395.86 1046.85 397.097 1047.18 398.253C1047.51 399.408 1048.26 400.394 1049.29 401.006C1050.13 401.31 1051.01 401.45 1051.9 401.421L1060.98 401.693C1064.84 401.808 1069.67 402.632 1070.7 406.361C1071.47 409.129 1069.75 412.687 1071.83 414.665C1072.72 415.358 1073.79 415.778 1074.92 415.873C1077.91 416.644 1081.04 416.745 1084.07 416.17C1090.68 414.392 1087.21 410.348 1089.29 406.747C1092.48 401.237 1091.93 404.572 1097.54 401.414C1101.68 399.082 1107.04 394.851 1103.58 388.907C1097.56 378.571 1061.74 385.719 1052.86 390.159Z" fill="white"/>
<path d="M1232.17 384.963L1226.9 385.668C1215 387.26 1203.04 388.866 1191.58 392.447C1196.54 394.413 1201.74 395.693 1207.05 396.251C1209.97 396.395 1212.87 396.808 1215.71 397.486C1220.77 398.996 1225.87 402.896 1230.76 400.898C1233.79 399.66 1234.78 396.496 1237.29 394.819C1239.02 393.661 1245.6 391.787 1246.34 390.618C1252.28 381.17 1236.74 384.351 1232.17 384.963Z" fill="white"/>
<path d="M1255.34 408.998C1248.29 412.948 1241.75 417.747 1235.87 423.29C1233.39 425.625 1230.86 428.53 1231.08 431.933C1231.38 436.456 1236.19 439.079 1240.35 440.846L1257.22 448.004C1259.26 445.113 1257.39 441.123 1255.27 438.282C1253.16 435.442 1250.65 432.155 1251.58 428.737C1252.65 424.836 1257.39 423.506 1261.37 422.834C1267.85 421.74 1285.34 421.827 1283.24 411.355C1280.76 399.014 1261.84 405.352 1255.34 408.998Z" fill="white"/>
<path d="M1251.94 1107.34C1250.34 1111.99 1250.19 1117.48 1252.96 1121.55C1256.08 1126.12 1262.32 1127.82 1267.71 1126.66C1273.09 1125.23 1277.88 1122.14 1281.41 1117.83C1284.63 1114.23 1287.29 1110.14 1289.28 1105.73C1292.06 1098.84 1294.02 1091.66 1295.12 1084.31L1300.36 1056.76C1301.53 1050.6 1301.48 1031.71 1290.19 1037.86C1287.1 1039.55 1279.96 1052.82 1276.73 1056.58C1270.9 1063.36 1270.13 1069.94 1267.06 1078.16C1263.22 1088.45 1255.5 1097.03 1251.94 1107.34Z" fill="white"/>
<path d="M1848.39 1248.37C1844.7 1246.92 1841.11 1245.21 1837.66 1243.24C1834.2 1252.78 1832.36 1262.82 1832.22 1272.96L1857.51 1258.62C1861.31 1256.46 1865.62 1253.47 1865.54 1249.09C1865.57 1248.54 1865.46 1248 1865.22 1247.52C1864.97 1247.04 1864.6 1246.63 1864.14 1246.34C1863.58 1246.12 1862.97 1246.04 1862.37 1246.13C1858.62 1246.45 1855.2 1248.3 1851.66 1249.58C1848.13 1250.87 1843.99 1251.55 1840.75 1249.64" fill="white"/>
<path d="M1981.78 1256.88C1979 1257.64 1976.29 1258.61 1973.67 1259.8C1967.87 1262.76 1963.92 1268.38 1958.7 1272.28C1953.7 1276.01 1947.68 1278.06 1941.78 1280.05C1940.04 1281.59 1940.84 1284.69 1942.73 1286.04C1944.75 1287.19 1947.08 1287.72 1949.4 1287.54C1955.54 1287.68 1962 1287.74 1967.38 1284.77C1970.4 1282.8 1973.24 1280.54 1975.84 1278.04C1982.12 1272.78 1989.66 1269.31 1997.13 1265.96C1999.85 1264.93 2002.36 1263.43 2004.55 1261.51C2009.25 1256.88 2009.58 1249.73 2002.81 1248.15C1997.34 1246.88 1986.98 1255.19 1981.78 1256.88Z" fill="white"/>
<path d="M2040.71 1218.29C2041.01 1215.1 2040.59 1211.88 2039.47 1208.88C2038.36 1205.88 2036.57 1203.17 2034.26 1200.96C2034.19 1207.34 2034 1214.14 2030.42 1219.42C2027.86 1223.18 2023.86 1225.72 2021.07 1229.3C2018.28 1232.88 2017.04 1238.56 2020.31 1241.7C2022.41 1243.3 2024.96 1244.18 2027.59 1244.21C2034.12 1244.98 2041.67 1245.41 2046.25 1240.69C2048.75 1238.11 2049.96 1234.29 2053.01 1232.39C2054.14 1231.91 2055.16 1231.19 2055.97 1230.26C2057.23 1228.26 2055.23 1225.62 2052.98 1224.89C2050.73 1224.17 2048.25 1224.51 2045.99 1223.82C2043.73 1223.14 2041.66 1220.59 2042.82 1218.53" fill="white"/>
<path d="M1935.97 984.339C1932.54 985.174 1929 985.383 1925.5 984.958C1919.69 983.887 1915.17 979.498 1910.48 975.899C1899.33 967.39 1885.78 962.643 1871.77 962.341C1859.02 962.099 1846.16 965.561 1833.64 963.146C1834.46 967.705 1838.35 971.125 1842.51 973.158C1846.66 975.19 1851.24 976.213 1855.42 978.205C1862.1 981.425 1867.4 986.953 1870.34 993.774C1871.69 996.919 1872.53 1000.34 1874.57 1003.09C1878.73 1008.7 1886.62 1009.93 1893.58 1009.47C1902.65 1008.87 1912.13 1006.26 1920.57 1009.65C1927.03 1012.24 1931.65 1017.91 1937.05 1022.31C1942.44 1026.72 1950.04 1029.99 1956.23 1026.81C1949.8 1024.72 1944.2 1020.63 1940.25 1015.13C1936.3 1009.62 1934.21 1003 1934.29 996.224C1940.36 996.784 1957.85 996.567 1956.91 986.223C1956.11 977.455 1941.18 983.393 1935.97 984.339Z" fill="white"/>
<path d="M1856.52 1055.67C1857.59 1049.74 1863.49 1044.51 1861.65 1038.77C1860.38 1034.8 1855.79 1032.84 1851.64 1032.74C1847.48 1032.64 1843.4 1033.89 1839.24 1034C1836.54 1033.86 1833.83 1033.9 1831.13 1034.12C1822.88 1035.48 1817.79 1044.15 1810.02 1047.23C1805.29 1049.1 1799.98 1048.74 1795.06 1050.04C1783.9 1052.98 1776.84 1063.55 1769.04 1072.08C1756.43 1085.79 1740.01 1095.39 1721.9 1099.63C1715.55 1101.11 1708.73 1102.05 1703.69 1106.18C1697.01 1111.65 1695.36 1121.03 1693.88 1129.55C1689.77 1153.07 1683.5 1176.16 1675.13 1198.52L1701.63 1201.91C1706.67 1202.56 1711.89 1203.19 1716.75 1201.69C1720.28 1200.36 1723.62 1198.58 1726.69 1196.39C1738.49 1189.04 1751.7 1184.26 1765.46 1182.36C1772.4 1181.4 1779.68 1181.23 1786.19 1183.81C1792.7 1186.4 1798.29 1192.26 1798.84 1199.26C1801.65 1198.38 1804.66 1198.29 1807.52 1198.99C1810.39 1199.69 1813.01 1201.15 1815.11 1203.23C1819.26 1207.47 1821.98 1212.91 1822.88 1218.78C1823.58 1222.41 1824.27 1226.76 1827.64 1228.29C1830.38 1229.53 1833.53 1228.19 1836.53 1227.95C1846.72 1227.14 1855.18 1239.04 1865.19 1236.99C1875.93 1234.79 1878.57 1218.67 1889.05 1215.44C1895.06 1213.58 1903.51 1215.84 1906.39 1210.23C1908.93 1205.28 1903.86 1199.58 1904.38 1194.04C1905.03 1187.22 1913.05 1184.32 1919.24 1181.41C1940.56 1171.38 1950.68 1142.61 1940.35 1121.39C1934.22 1108.81 1922.18 1098.92 1919.95 1085.1C1918.24 1074.48 1922.42 1062.08 1915.66 1053.72C1912.22 1049.46 1906.4 1047.11 1904.35 1042.04C1903.07 1038.84 1903.58 1035.21 1902.89 1031.84C1902.2 1028.46 1899.26 1024.93 1895.93 1025.8C1886.28 1028.34 1883.2 1058.24 1878.03 1065.51C1870.17 1076.55 1854.04 1069.27 1856.52 1055.67Z" fill="white"/>
<path d="M1678.06 995.635C1674.77 994.708 1671.16 993.795 1668 995.12C1664.84 996.445 1662.99 1001.1 1665.53 1003.41C1685.38 1002.63 1705.35 1001.86 1725.03 1004.56C1747.71 1007.68 1770.15 1015.39 1792.92 1013.12C1779.91 1009.27 1766.69 1006.2 1753.32 1003.91L1731.02 999.638C1725.04 998.383 1719 997.446 1712.92 996.834C1700.2 995.781 1690.57 999.151 1678.06 995.635Z" fill="white"/>
<path d="M1697.94 926.336C1696.29 926.198 1694.25 926.079 1693.39 927.499C1692.58 928.856 1693.51 930.649 1693.07 932.171C1692.48 934.249 1689.76 934.78 1687.62 934.497C1685.48 934.214 1683.17 933.537 1681.27 934.571C1680.31 935.229 1679.59 936.182 1679.21 937.287C1678.84 938.392 1678.83 939.589 1679.19 940.699C1679.97 942.902 1681.22 944.906 1682.86 946.564C1685.66 950.105 1688.86 953.317 1692.38 956.139C1699.2 961.187 1708.45 963.619 1712.74 970.947C1713.35 972.367 1714.28 973.624 1715.46 974.616C1717.53 975.926 1720.22 974.929 1722.44 973.912L1730.22 970.346C1731.62 969.84 1732.88 968.987 1733.86 967.865C1735.64 965.446 1734.55 962.007 1733.05 959.401C1731.56 956.795 1729.65 954.098 1729.97 951.11C1730.54 945.782 1737.37 943.745 1740.18 939.186C1743.02 934.592 1741.17 928.672 1741.5 923.281C1741.88 916.976 1745.83 908.775 1739.47 904.064C1734.07 900.061 1728.91 903.76 1725.03 908.18C1716.84 917.501 1712.98 927.595 1697.94 926.336Z" fill="white"/>
<path d="M1745.19 832.133C1747.85 837.234 1753.39 840.279 1756.29 845.247C1759.43 850.631 1759.07 857.589 1762.48 862.808C1765.97 868.163 1773.01 871.006 1774.97 877.097C1777.11 883.746 1772.25 891.828 1776.13 897.638C1776.85 898.588 1777.76 899.377 1778.8 899.955C1779.84 900.534 1780.99 900.889 1782.18 900.998C1783.37 901.107 1784.56 900.968 1785.69 900.59C1786.82 900.212 1787.86 899.602 1788.74 898.8C1790.38 897.019 1791.25 894.668 1791.18 892.25C1791.11 889.832 1790.1 887.538 1788.36 885.856C1786.07 883.76 1782.78 882.855 1780.86 880.408C1779.87 878.995 1779.2 877.374 1778.92 875.667C1777.88 870.744 1778.05 865.639 1779.41 860.795C1779.92 859.565 1780.05 858.209 1779.78 856.905C1778.92 854.394 1775.53 854.216 1773.15 853.051C1767.74 850.405 1767.87 842.757 1768.82 836.801C1768.19 840.766 1754.1 834.022 1752.62 831.776C1749.69 827.314 1751.29 818.707 1750.71 813.777C1744.38 816.833 1741.94 825.896 1745.19 832.133Z" fill="white"/>
<path d="M1603.24 910.622C1600.64 907.703 1596.73 904.65 1593.24 906.41C1590.58 907.753 1589.85 911.443 1590.89 914.239C1592.16 916.956 1594.12 919.293 1596.56 921.019C1603.83 927.026 1611.65 932.448 1617.99 939.431C1629.33 951.927 1635.34 968.789 1647.68 980.301C1650.16 982.97 1653.44 984.751 1657.03 985.373C1660.62 985.708 1664.66 983.402 1665.07 979.807C1665.41 976.846 1663.35 974.195 1661.34 972.001C1656.55 966.776 1651.3 961.966 1646.78 956.506C1644.69 954.409 1643.38 951.66 1643.06 948.713C1643.03 945.773 1645.71 942.696 1648.55 943.424C1645.09 942.539 1642.53 936.767 1637.46 935.682C1633.22 934.776 1632.19 937.406 1627.15 935.238C1617.53 931.101 1609.98 918.183 1603.24 910.622Z" fill="white"/>
<path d="M1829.3 626.455C1826.54 625.632 1823.83 624.661 1821.18 623.544C1814.03 621.395 1804.58 626.658 1805.53 634.073C1806.17 639 1810.74 642.322 1813.27 646.596C1817.01 652.933 1816.01 660.971 1814.05 668.069C1813.56 670.266 1812.64 672.344 1811.34 674.179C1809.52 676.115 1807.35 677.682 1804.94 678.795C1795.29 684.217 1786.79 691.462 1779.89 700.129C1779.14 700.93 1778.62 701.917 1778.38 702.988C1778.04 705.492 1780.55 707.315 1781.97 709.404C1785.12 714.042 1782.84 720.284 1783.15 725.888C1783.1 726.681 1783.26 727.472 1783.6 728.188C1783.94 728.903 1784.46 729.519 1785.11 729.977C1787.01 730.945 1789.26 729.301 1790.29 727.431C1793.71 721.223 1791.14 711.258 1797.55 708.265C1798.76 707.699 1800.23 707.46 1801.04 706.392C1802.33 704.698 1801.09 702.189 1801.74 700.163C1802.71 697.123 1806.86 696.986 1810.05 697.121C1815.53 697.351 1821.01 696.619 1826.25 694.959C1828.3 694.469 1830.17 693.387 1831.61 691.845C1833.53 689.447 1833.36 686.037 1832.97 682.989C1831.06 667.788 1826.25 653.097 1818.83 639.707C1824.46 640.428 1830.59 641.053 1835.45 638.11C1838.17 636.462 1841.43 631.535 1840.08 628.181C1837.95 622.877 1834.09 627.341 1829.3 626.455Z" fill="white"/>
<path d="M1107.2 710.053C1107.87 713.677 1108.53 717.493 1107.35 720.983C1106.16 724.473 1102.44 727.389 1098.92 726.32C1096.19 725.49 1094.61 722.737 1092.67 720.638C1081.88 708.965 1057.55 715.723 1050.89 701.282C1048.17 695.388 1050.01 688.327 1048.16 682.106C1046.99 678.51 1044.66 675.405 1041.54 673.28C1038.42 671.154 1034.68 670.128 1030.92 670.363C1027.48 670.86 1024.14 671.861 1020.99 673.332C999.927 681.79 977.811 687.335 955.253 689.815C950.966 690.077 946.725 690.851 942.621 692.119C933.358 695.486 927.029 704.094 922.525 712.878C918.021 721.662 914.696 731.172 908.658 738.977C902.312 747.179 893.419 752.922 885.124 759.135C881.928 761.199 879.267 763.995 877.36 767.292C875.562 770.993 875.663 775.298 875.803 779.412L877.498 829.384C877.716 835.812 877.99 842.469 880.86 848.222C884.443 855.404 891.522 860.109 896.434 866.454C901.445 872.975 904.056 881.031 903.824 889.26C903.719 892.568 903.392 896.481 905.962 898.559C907.525 899.575 909.355 900.102 911.218 900.074L978.65 905.606C990.512 906.58 1003.66 908.18 1011.4 917.239C1015.06 921.515 1017.99 927.663 1023.59 928.122C1025.99 928.319 1028.33 927.331 1030.73 927.14C1036.79 926.659 1042.11 931.269 1045.47 936.348C1050.56 944.088 1052.87 953.331 1052.02 962.56C1051.47 968.353 1049.68 973.984 1049.29 979.791C1047.82 1001.88 1066.5 1021.08 1066.86 1043.22C1067.08 1056.24 1060.91 1068.41 1054.9 1079.95C1064.6 1094.69 1056.66 1114.31 1060.52 1131.54C1064.18 1147.88 1077.78 1160.68 1081.17 1177.08C1082.72 1184.59 1082.81 1193.84 1089.41 1197.7C1092.31 1199.12 1095.52 1199.76 1098.74 1199.58C1118.16 1199.81 1137.36 1195.43 1154.76 1186.79C1162.93 1182.73 1171.4 1176.66 1172.82 1167.63C1173.97 1160.35 1170.29 1152.21 1174.04 1145.87C1178.46 1138.39 1189.77 1138.98 1196.27 1133.24C1206.82 1123.91 1198.6 1106.13 1202.87 1092.7C1206.71 1080.63 1219.93 1074.22 1226.48 1063.39C1229.06 1058.73 1230.91 1053.7 1231.97 1048.48C1234.97 1036 1236.84 1023.27 1237.55 1010.45C1237.73 1002.66 1238.3 994.889 1239.27 987.16C1246.34 943.156 1289.73 913.69 1303.82 871.417C1305.17 867.38 1305.8 862.002 1302.22 859.718C1300.09 858.701 1297.68 858.449 1295.39 859.002L1264.31 862.93C1260.45 863.418 1256.35 863.874 1252.81 862.267C1249.26 860.659 1246.72 856.163 1248.6 852.748C1253.88 843.161 1243.02 831.046 1238.2 821.222C1225.2 794.767 1209.73 769.612 1191.99 746.094C1190.85 744.884 1190.14 743.336 1189.96 741.684L1198.78 741.978C1195.8 731.266 1190.89 719.544 1180.51 715.625C1174.66 713.417 1168.18 714.18 1161.94 714.522C1144.06 715.501 1124.89 712.795 1107.2 710.053Z" fill="white"/>
<path d="M1161.95 468.648C1166.63 473.628 1171.87 478.909 1178.64 479.777C1190.6 481.31 1199.19 468.917 1204.67 458.151C1204.87 460.896 1206.13 463.453 1208.18 465.278C1210.24 467.104 1212.92 468.054 1215.66 467.927C1218.62 467.429 1221.43 466.325 1223.94 464.685C1247.63 451.708 1274.16 444.832 1301.15 444.675C1300.89 442.625 1301.4 440.552 1302.58 438.855C1303.75 437.158 1305.51 435.958 1307.52 435.486C1313.01 434.395 1317.95 439.152 1320.6 444.093C1323.25 449.034 1324.9 454.761 1329.1 458.46C1333.31 462.158 1341.45 461.997 1343.12 456.641C1344.71 451.499 1339.37 447.114 1334.93 444.083C1330.49 441.052 1325.81 435.441 1328.8 430.967C1351.48 425.934 1374.3 420.882 1397.51 419.882C1401.46 420.02 1405.4 419.34 1409.07 417.885C1412.61 416.143 1415.43 412.191 1414.47 408.356C1409.41 409.549 1404.11 409.204 1399.24 407.363C1394.37 405.523 1390.16 402.27 1387.14 398.021C1419.35 395.357 1453.6 393.087 1482.14 408.277C1485.56 415.647 1468.11 421.778 1472.78 428.426C1474.26 430.546 1477.25 430.795 1479.84 430.843C1499.67 431.212 1519.61 431.574 1539.22 428.572C1546.39 427.475 1553.63 425.927 1560.82 426.816C1572.8 428.298 1583.05 436.313 1594.84 438.926C1599.64 439.99 1605.02 440.026 1609.06 437.228C1613.11 434.431 1614.85 428.06 1611.53 424.423C1622.63 413.518 1641.06 416.221 1655.7 421.442C1670.34 426.663 1684.21 435.082 1699.71 436.246C1710.83 437.081 1722.1 434.084 1733.08 435.989C1739.98 437.186 1746.4 440.263 1753.15 442.154C1765.9 445.73 1779.4 444.975 1792.64 445.147C1826.44 445.604 1859.86 452.262 1891.26 464.792C1895.35 466.125 1899.09 468.342 1902.22 471.285C1905.15 474.422 1906.64 479.296 1904.67 483.109L1872.22 478.356C1875.28 484.39 1883.19 485.418 1889.61 487.499C1896.04 489.58 1902.7 496.691 1898.84 502.242C1891.88 500.021 1885.57 506.996 1882.06 513.414C1878.54 519.831 1874.26 527.517 1866.96 527.908C1860.43 528.258 1852.53 522.683 1848.28 527.661C1854.16 535.098 1859.19 543.169 1863.29 551.725C1867.5 560.508 1870.49 571.575 1864.81 579.478C1863.91 580.889 1862.56 581.943 1860.97 582.46C1856.33 583.638 1853.31 577.945 1849.98 574.494C1845.79 570.146 1839.44 568.914 1833.76 566.875C1828.08 564.836 1822.1 560.824 1821.65 554.791C1821.38 551.037 1823.35 547.548 1824.81 544.079C1827.26 538.232 1828.33 531.897 1827.94 525.568C1827.62 520.476 1826.19 515.179 1822.55 511.622C1818.9 508.064 1812.6 506.935 1808.68 510.194C1806.86 511.714 1805.39 514.146 1803.02 514.237C1798.83 514.398 1795.61 507.07 1792.23 509.571C1792.63 512.237 1792.08 514.957 1790.68 517.256C1780.61 526.032 1765.15 522.319 1752.17 525.42C1746 527.19 1740.09 529.777 1734.6 533.111C1732.55 533.991 1730.8 535.462 1729.58 537.337C1727.96 540.492 1729.74 544.534 1732.6 546.632C1735.63 548.494 1739.03 549.658 1742.56 550.041C1758.38 553.045 1774.43 557.694 1786.92 567.881C1799.42 578.068 1807.61 594.908 1803.65 610.556L1772.45 580.67C1773.64 593.219 1774.31 605.802 1774.47 618.419C1774.67 620.882 1774.34 623.361 1773.48 625.68C1771.26 630.604 1765.23 632.262 1759.95 633.349C1758.48 633.629 1757.08 634.217 1755.86 635.075C1754.63 635.933 1753.6 637.042 1752.83 638.328C1752.06 639.614 1751.57 641.048 1751.4 642.537C1751.22 644.026 1751.36 645.535 1751.81 646.966C1753.69 653.099 1758.36 657.88 1762.65 662.644C1766.93 667.409 1771.15 672.823 1771.71 679.213C1772.27 685.604 1767.46 692.806 1761.08 692.362C1756.24 692.025 1752.65 687.682 1750.59 683.282C1748.52 678.881 1747.29 673.979 1744.19 670.239C1734.81 658.922 1713.72 663.771 1705.31 651.705C1703.17 654.143 1701.68 657.089 1700.99 660.264C1700.3 663.44 1700.44 666.739 1701.38 669.848C1705.29 667.393 1710.65 669.674 1713.59 673.242C1716.53 676.809 1717.91 681.383 1720.22 685.389C1723.34 690.796 1728.29 695.589 1728.73 701.818C1728.61 704.173 1728.65 706.533 1728.85 708.883C1729.62 712.657 1732.8 715.366 1735.01 718.521C1740.14 725.861 1739.89 735.944 1736.58 744.272C1733.27 752.599 1727.32 759.558 1721.44 766.305C1711.15 778.089 1700.66 789.804 1688.47 799.59C1684.99 802.382 1681.28 805.128 1679.11 809.032C1676.94 812.935 1676.83 818.415 1680.16 821.385C1677.78 821.504 1673.51 822.679 1671.12 822.799C1670.29 813.218 1670.1 803.592 1670.58 793.986C1661.18 789.461 1651.05 801.58 1652.27 811.964C1653.48 822.348 1660.97 830.68 1666.31 839.664C1670.21 846.234 1673.11 853.894 1671.8 861.427C1670.5 868.96 1663.79 875.909 1656.2 875.245C1644.11 874.188 1639.06 856.796 1627.09 854.806C1626.03 854.558 1624.93 854.668 1623.94 855.119C1622.16 856.097 1621.85 858.48 1621.75 860.508C1621.27 870.466 1620.84 880.82 1624.72 890.001C1630.39 903.433 1645.05 914.713 1641.97 928.97C1625.41 921.253 1616.8 902.635 1612.89 884.752C1608.98 866.869 1608.33 848.095 1601.32 831.19C1596 838.027 1584.82 832.375 1579.96 825.202C1575.35 818.402 1572.51 810.535 1568.04 803.644C1563.56 796.752 1556.71 790.581 1548.52 790.202C1539.93 789.804 1532.48 795.713 1525.93 801.297C1520.54 805.888 1515.01 810.66 1511.86 817.006C1507.28 826.241 1508.48 837.128 1508.26 847.441C1508.02 858.589 1505.66 870.351 1498.08 878.513C1490.5 886.674 1476.51 889.517 1468.15 882.162C1463.79 878.321 1461.67 872.584 1459.79 867.077C1450.72 840.53 1443.16 813.486 1437.16 786.077C1435.75 792.333 1430.27 800.396 1425.04 796.711C1423.86 795.72 1422.91 794.491 1422.25 793.104C1412.48 776.514 1394.4 766.562 1376.13 760.595C1357.86 754.628 1338.63 751.845 1320.56 745.288C1310.44 741.611 1300.77 736.782 1291.74 730.895C1289.44 734.284 1288.1 738.234 1287.85 742.326C1287.61 746.418 1288.47 750.501 1290.36 754.14C1294.36 761.254 1303.43 765.371 1311.2 762.884C1315.21 761.599 1318.6 758.807 1322.58 757.428C1326.56 756.049 1331.9 756.726 1333.64 760.571C1335.31 764.251 1332.79 768.703 1334.04 772.545C1335.94 778.398 1344.75 778.848 1347.83 784.174C1350.12 788.136 1348.23 793.398 1344.96 796.595C1341.69 799.793 1337.33 801.546 1333.33 803.772C1320.38 810.994 1311.17 823.322 1299.84 832.913C1288.52 842.505 1272.55 849.507 1259.06 843.355C1262.27 827.028 1242.87 815.042 1239.3 798.789C1238.13 793.44 1238.74 787.757 1237.06 782.544C1234.63 774.996 1227.95 769.807 1222.47 764.087C1215.82 757.074 1210.65 748.797 1207.24 739.746C1203.84 730.694 1202.28 721.051 1202.65 711.385C1202.95 704.668 1204.18 697.841 1202.65 691.294C1201.13 684.747 1195.72 678.41 1189.02 678.707C1173.71 679.384 1154.43 680.525 1146.4 667.447C1143.54 662.78 1142.29 655.944 1146.43 652.367C1149.36 649.845 1153.67 650.082 1157.51 650.461L1191.99 653.861C1200.06 654.657 1208.78 655.313 1215.7 651.086C1222.62 646.86 1225.62 635.641 1219.21 630.668C1214.52 627.035 1206.14 627.232 1204.77 621.455C1203.64 616.644 1208.95 611.185 1206.08 607.164C1204.03 604.282 1199.4 605.081 1196.6 607.243C1193.8 609.404 1191.76 612.564 1188.63 614.201C1183.12 617.071 1176.55 614.339 1170.63 612.483C1164.71 610.626 1156.77 610.468 1153.9 615.98C1150.69 622.144 1156.75 630.221 1153.56 636.398C1149.35 644.564 1135.08 639.915 1129.16 646.94C1122.37 655 1133.79 667.019 1131.5 677.317C1128.57 678.768 1125.32 679.435 1122.07 679.251C1118.81 679.068 1115.65 678.04 1112.91 676.27C1110.21 674.43 1108.06 671.892 1106.69 668.926C1105.32 665.959 1104.77 662.674 1105.11 659.421C1105.68 654.789 1108.09 650.061 1106.47 645.683C1105.17 642.144 1101.62 640.037 1098.33 638.212L1064.82 619.65C1061.71 625.435 1065.64 632.607 1070.56 636.953C1075.48 641.298 1081.64 644.571 1084.87 650.29C1086.92 654.252 1087.37 658.847 1086.15 663.136C1084.93 667.425 1082.12 671.086 1078.3 673.369C1077.82 673.701 1077.28 673.924 1076.7 674.025C1076.13 674.125 1075.54 674.099 1074.98 673.95C1074.44 673.635 1073.98 673.216 1073.61 672.717C1073.24 672.218 1072.97 671.65 1072.82 671.046C1066.91 655.879 1058.04 640.925 1043.84 633.002C1029.65 625.079 1009.26 626.708 999.954 640.055C997.743 643.225 996.26 646.838 994.334 650.19C984.104 667.997 962.172 676.429 941.68 675.878C939.676 675.989 937.682 675.52 935.936 674.525C932.625 672.232 932.774 667.367 933.281 663.364L935.432 646.379C935.864 642.968 936.49 639.198 939.183 637.068C942.979 634.067 948.455 635.961 953.289 635.891C956.952 635.719 960.473 634.423 963.376 632.177C966.278 629.932 968.422 626.846 969.516 623.337C970.492 619.795 970.486 616.052 969.498 612.513C968.509 608.973 966.576 605.772 963.907 603.252C961.691 601.166 958.717 598.545 959.887 595.733C960.354 594.955 960.986 594.289 961.737 593.782C962.488 593.275 963.341 592.939 964.236 592.798C972.919 590.27 982.095 589.607 990.634 586.624C999.173 583.642 1007.45 577.539 1009.48 568.704C1010.1 565.996 1010.38 562.717 1012.8 561.374C1014.02 560.859 1015.33 560.591 1016.65 560.587C1021.28 559.926 1025.49 557.553 1028.46 553.933C1031.44 550.313 1032.95 545.71 1032.7 541.029C1036.79 538.163 1042.53 540.271 1046.49 543.32C1050.45 546.369 1053.94 550.397 1058.76 551.711C1067.74 554.16 1076.41 546.192 1085.71 546.155C1089.63 546.14 1093.68 547.527 1097.36 546.197C1101.09 544.849 1103.32 541.125 1106.18 538.375C1109.05 535.624 1114.07 533.946 1116.71 536.909L1114.46 520.188C1119 521.337 1123.73 521.499 1128.33 520.665C1132.93 519.831 1137.3 518.019 1141.15 515.352L1112.05 505.494C1111.03 505.24 1110.1 504.739 1109.32 504.035C1107.21 501.751 1109.31 498.192 1111.03 495.596C1115.15 489.385 1115.84 479.153 1109.07 476.061C1104.45 473.951 1099.15 476.484 1094.71 478.963L1073.47 490.836C1072.79 494.884 1077.73 497.178 1080.79 499.904C1082.64 501.554 1083.95 503.726 1084.55 506.135C1085.15 508.545 1085 511.08 1084.14 513.406C1083.27 515.732 1081.72 517.741 1079.7 519.169C1077.67 520.598 1075.26 521.378 1072.79 521.409C1074.18 523.232 1075.16 525.347 1075.63 527.597C1076.1 529.848 1076.06 532.176 1075.52 534.41L1061.23 535.441C1059.62 535.764 1057.95 535.438 1056.59 534.534C1055.06 533.173 1055.27 530.788 1054.91 528.769C1054.06 523.898 1049.3 520.483 1044.44 519.608C1039.59 518.732 1034.62 519.855 1029.81 520.963C1027.77 521.699 1025.53 521.647 1023.52 520.817C1022.37 520.068 1021.5 518.962 1021.03 517.668C1018.92 512.544 1020.89 506.52 1024.28 502.138C1027.67 497.756 1032.3 494.552 1036.46 490.904C1046.42 482.147 1053.73 470.774 1057.58 458.069C1065.45 454.765 1073.6 450.275 1081.46 446.97C1093.59 440.814 1107.2 438.172 1120.74 439.341L1147.39 439.851C1155.28 440.002 1163.38 440.196 1170.67 443.211C1177.97 446.226 1184.38 452.746 1184.88 460.64C1185.03 461.533 1184.95 462.451 1184.66 463.307C1184.36 464.162 1183.85 464.928 1183.17 465.531C1182.14 466.095 1180.97 466.358 1179.8 466.292C1172.45 466.551 1169.31 468.389 1161.95 468.648Z" fill="white"/>
<path d="M949.574 552.36C950.615 551.372 951.364 550.116 951.739 548.729C952.114 547.342 952.101 545.878 951.7 544.499C949.167 543.519 946.411 543.267 943.743 543.772C941.076 544.277 938.601 545.519 936.599 547.357C935.02 548.958 933.66 550.761 932.553 552.719C929.052 558.445 925.955 565.285 927.984 571.686C928.15 572.384 928.452 573.042 928.875 573.621C929.297 574.2 929.831 574.689 930.444 575.059C931.354 575.425 932.334 575.579 933.311 575.509C937.169 575.504 941.022 575.266 944.85 574.797C947.202 574.509 949.932 573.843 950.841 571.651C952.035 568.768 949.145 565.506 949.987 562.501C950.542 561.157 951.382 559.951 952.449 558.967C952.979 558.471 953.386 557.858 953.638 557.177C953.89 556.496 953.98 555.766 953.901 555.044C953.561 553.634 951.408 552.834 950.633 554.059" fill="white"/>
<path d="M969.575 526.365C966.148 525.577 962.616 525.354 959.119 525.707C958.345 525.684 957.578 525.859 956.89 526.215C956.224 526.707 955.741 527.409 955.517 528.208C954.779 530.585 954.96 533.154 956.026 535.403C957.092 537.652 958.964 539.415 961.268 540.343C962.525 540.633 963.728 541.117 964.835 541.78C967.792 544.08 965.907 548.781 966.467 552.492C967.095 556.658 971.118 560.155 970.381 564.303C969.799 567.571 966.318 570.159 966.878 573.43C967.465 576.857 971.803 577.886 975.26 578.161C977.264 578.513 979.327 578.276 981.199 577.479C983.076 576.192 984.41 574.254 984.946 572.039C986.361 567.816 986.956 563.359 986.698 558.911C986.683 556.888 986.176 554.899 985.221 553.117C984.18 551.705 983.026 550.38 981.77 549.156C975.146 541.431 982.121 529.91 969.575 526.365Z" fill="white"/>
<path opacity="0.8" d="M1840.64 1131.45C1840.64 1131.45 1333.29 839.511 1114.88 894.826C1114.88 894.826 651.981 944.763 598.334 1054.63C598.334 1054.63 451.189 593.666 397.542 578.3" stroke="#5B5B5B" stroke-width="2" stroke-miterlimit="10"/>
<path opacity="0.8" d="M598.334 1054.63C683.403 827.219 1449.78 575.227 1449.78 575.227C1340.96 602.885 1114.88 894.826 1114.88 894.826C1114.88 894.826 636.653 546.033 397.542 578.3C397.542 578.3 1450.55 612.872 1840.64 1131.45" stroke="#5B5B5B" stroke-width="2" stroke-miterlimit="10"/>
<path d="M397.542 600.58C409.817 600.58 419.767 590.605 419.767 578.3C419.767 565.996 409.817 556.021 397.542 556.021C385.268 556.021 375.317 565.996 375.317 578.3C375.317 590.605 385.268 600.58 397.542 600.58Z" fill="black"/>
<path d="M598.334 1076.91C610.609 1076.91 620.559 1066.93 620.559 1054.63C620.559 1042.32 610.609 1032.35 598.334 1032.35C586.06 1032.35 576.109 1042.32 576.109 1054.63C576.109 1066.93 586.06 1076.91 598.334 1076.91Z" fill="black"/>
<path d="M1449.78 597.507C1462.06 597.507 1472.01 587.532 1472.01 575.227C1472.01 562.923 1462.06 552.948 1449.78 552.948C1437.51 552.948 1427.56 562.923 1427.56 575.227C1427.56 587.532 1437.51 597.507 1449.78 597.507Z" fill="black"/>
<path d="M1840.64 1153.73C1852.91 1153.73 1862.86 1143.76 1862.86 1131.45C1862.86 1119.15 1852.91 1109.17 1840.64 1109.17C1828.36 1109.17 1818.41 1119.15 1818.41 1131.45C1818.41 1143.76 1828.36 1153.73 1840.64 1153.73Z" fill="black"/>
<path d="M1114.88 917.106C1127.15 917.106 1137.1 907.131 1137.1 894.826C1137.1 882.521 1127.15 872.546 1114.88 872.546C1102.6 872.546 1092.65 882.521 1092.65 894.826C1092.65 907.131 1102.6 917.106 1114.88 917.106Z" fill="black"/>
</svg>
